<svg width="20" height="20" viewBox="0 0 20 20" fill="none" xmlns="http://www.w3.org/2000/svg">
<path d="M5.78455 4.16645C5.78424 4.84504 5.37255 5.45569 4.7436 5.71045C4.11465 5.96521 3.39404 5.81321 2.92156 5.32613C2.44909 4.83904 2.31911 4.11413 2.5929 3.49323C2.8667 2.87233 3.4896 2.47942 4.16788 2.49978C5.06877 2.52682 5.78496 3.26515 5.78455 4.16645ZM5.83455 7.06645H2.50121V17.4998H5.83455V7.06645ZM11.1012 7.06645H7.78455V17.4998H11.0679V12.0248C11.0679 8.97475 15.0429 8.69142 15.0429 12.0248V17.4998H18.3346V10.8914C18.3346 5.74978 12.4512 5.94145 11.0679 8.46642L11.1012 7.06645Z" fill="#646464"/>
</svg>
