<svg width="24" height="24" viewBox="0 0 24 24" fill="none" xmlns="http://www.w3.org/2000/svg">
  <path d="M22 17C22 17.5304 21.7893 18.0391 21.4142 18.4142C21.0391 18.7893 20.5304 19 20 19H6.82799C6.2976 19.0001 5.78898 19.2109 5.41399 19.586L3.21199 21.788C3.11476 21.8925 2.9879 21.9648 2.84843 21.9951C2.70897 22.0255 2.56355 22.0125 2.43168 21.9579C2.2998 21.9032 2.18778 21.8096 2.11063 21.6895C2.03347 21.5694 1.99487 21.4286 1.99999 21.286V5C1.99999 4.46957 2.21071 3.96086 2.58578 3.58579C2.96085 3.21071 3.46956 3 3.99999 3H20C20.5304 3 21.0391 3.21071 21.4142 3.58579C21.7893 3.96086 22 4.46957 22 5V17Z" stroke="currentColor" stroke-width="1.5" stroke-linecap="round" stroke-linejoin="round"/>
  <path d="M9 11L11 13L15 9" stroke="currentColor" stroke-width="1.5" stroke-linecap="round" stroke-linejoin="round"/>
</svg>
