<svg width="24" height="24" viewBox="0 0 24 24" fill="none" xmlns="http://www.w3.org/2000/svg">
  <path d="M12 18V5" stroke="currentColor" stroke-width="1.5" stroke-linecap="round" stroke-linejoin="round"/>
  <path d="M15 13C14.1348 12.7471 13.3748 12.2206 12.834 11.4995C12.2932 10.7784 12.0005 9.90141 12 9C11.9995 9.90141 11.7068 10.7784 11.166 11.4995C10.6252 12.2206 9.8652 12.7471 9 13" stroke="currentColor" stroke-width="1.5" stroke-linecap="round" stroke-linejoin="round"/>
  <path d="M17.598 6.49989C17.8281 6.10138 17.9635 5.65527 17.9936 5.19608C18.0237 4.73689 17.9478 4.27693 17.7717 3.85178C17.5956 3.42663 17.324 3.04769 16.9781 2.74427C16.6321 2.44085 16.221 2.22108 15.7765 2.10198C15.332 1.98288 14.866 1.96763 14.4147 2.0574C13.9634 2.14718 13.5387 2.33959 13.1737 2.61973C12.8086 2.89988 12.5129 3.26025 12.3093 3.67298C12.1058 4.0857 12 4.53971 12 4.99989C12 4.53971 11.8942 4.0857 11.6907 3.67298C11.4871 3.26025 11.1914 2.89988 10.8263 2.61973C10.4613 2.33959 10.0366 2.14718 9.5853 2.0574C9.13396 1.96763 8.66803 1.98288 8.22353 2.10198C7.77904 2.22108 7.3679 2.44085 7.02193 2.74427C6.67596 3.04769 6.40442 3.42663 6.22833 3.85178C6.05224 4.27693 5.97632 4.73689 6.00643 5.19608C6.03655 5.65527 6.17189 6.10138 6.402 6.49989" stroke="currentColor" stroke-width="1.5" stroke-linecap="round" stroke-linejoin="round"/>
  <path d="M17.997 5.125C18.5848 5.27614 19.1305 5.55905 19.5928 5.95231C20.0551 6.34557 20.4218 6.83887 20.6652 7.39485C20.9086 7.95082 21.0223 8.55489 20.9976 9.16131C20.973 9.76773 20.8107 10.3606 20.523 10.895" stroke="currentColor" stroke-width="1.5" stroke-linecap="round" stroke-linejoin="round"/>
  <path d="M18 17.9999C18.8805 17.9998 19.7364 17.7093 20.4349 17.1733C21.1335 16.6372 21.6356 15.8857 21.8635 15.0352C22.0914 14.1847 22.0323 13.2827 21.6954 12.4693C21.3585 11.6558 20.7625 10.9762 20 10.5359" stroke="currentColor" stroke-width="1.5" stroke-linecap="round" stroke-linejoin="round"/>
  <path d="M19.967 17.4829C20.0371 18.0251 19.9953 18.576 19.8441 19.1014C19.693 19.6269 19.4357 20.1157 19.0882 20.5379C18.7407 20.96 18.3104 21.3064 17.8238 21.5557C17.3372 21.805 16.8046 21.9518 16.259 21.9872C15.7134 22.0227 15.1664 21.9458 14.6516 21.7615C14.1369 21.5772 13.6654 21.2893 13.2662 20.9157C12.8671 20.542 12.5488 20.0905 12.331 19.589C12.1132 19.0875 12.0006 18.5467 12 17.9999C11.9994 18.5467 11.8867 19.0875 11.669 19.589C11.4512 20.0905 11.1329 20.542 10.7338 20.9157C10.3346 21.2893 9.86313 21.5772 9.34838 21.7615C8.83364 21.9458 8.28657 22.0227 7.74097 21.9872C7.19537 21.9518 6.66283 21.805 6.17622 21.5557C5.68961 21.3064 5.25927 20.96 4.91178 20.5379C4.56429 20.1157 4.30703 19.6269 4.15589 19.1014C4.00474 18.576 3.96291 18.0251 4.033 17.4829" stroke="currentColor" stroke-width="1.5" stroke-linecap="round" stroke-linejoin="round"/>
  <path d="M6.00001 17.9999C5.1195 17.9998 4.26361 17.7093 3.56507 17.1733C2.86653 16.6372 2.36438 15.8857 2.13648 15.0352C1.90859 14.1847 1.96769 13.2827 2.30462 12.4693C2.64156 11.6558 3.23749 10.9762 4.00001 10.5359" stroke="currentColor" stroke-width="1.5" stroke-linecap="round" stroke-linejoin="round"/>
  <path d="M6.00299 5.125C5.41519 5.27614 4.86949 5.55905 4.40722 5.95231C3.94495 6.34557 3.57823 6.83887 3.33483 7.39485C3.09144 7.95082 2.97775 8.55489 3.00238 9.16131C3.02701 9.76773 3.18931 10.3606 3.47699 10.895" stroke="currentColor" stroke-width="1.5" stroke-linecap="round" stroke-linejoin="round"/>
</svg>
