<svg width="565" height="400" viewBox="0 0 565 400" fill="none" xmlns="http://www.w3.org/2000/svg">
<g clip-path="url(#clip0_3005_2385)">
<circle opacity="0.1" cx="282.499" cy="200.008" r="117.909" stroke="#006FFF"/>
<circle opacity="0.07" cx="282.499" cy="200.008" r="176.499" stroke="#006FFF"/>
<circle opacity="0.03" cx="282.5" cy="200.01" r="229.5" stroke="#006FFF"/>
<g filter="url(#filter0_f_3005_2385)">
<path d="M361 320.01C361 302.061 375.551 287.51 393.5 287.51H479.5C497.449 287.51 512 302.061 512 320.01V320.01C512 337.959 497.449 352.51 479.5 352.51H393.5C375.551 352.51 361 337.959 361 320.01V320.01Z" fill="#00B3FF"/>
</g>
<path d="M349 287.51C349 280.882 354.373 275.51 361 275.51H512C518.627 275.51 524 280.882 524 287.51V335.51C524 342.137 518.627 347.51 512 347.51H361C354.373 347.51 349 342.137 349 335.51V287.51Z" fill="#F3F8FF"/>
<path d="M512 275.01C518.904 275.01 524.5 280.606 524.5 287.51V335.51C524.5 342.413 518.904 348.01 512 348.01H361C354.096 348.01 348.5 342.413 348.5 335.51V287.51C348.5 280.606 354.096 275.01 361 275.01H512Z" stroke="#006FFF" stroke-opacity="0.3"/>
<path d="M386.74 311.965C386.74 310.725 387.74 309.885 389.23 309.885C390.61 309.885 391.5 310.655 391.58 311.905H390.59C390.54 311.185 390.03 310.765 389.22 310.765C388.31 310.765 387.72 311.225 387.72 311.935C387.72 312.515 388.05 312.865 388.73 313.025L389.92 313.305C391.1 313.575 391.7 314.215 391.7 315.235C391.7 316.535 390.69 317.365 389.15 317.365C387.68 317.365 386.7 316.595 386.64 315.355H387.64C387.66 316.045 388.24 316.485 389.15 316.485C390.11 316.485 390.72 316.035 390.72 315.315C390.72 314.745 390.41 314.385 389.72 314.225L388.53 313.955C387.35 313.685 386.74 313.005 386.74 311.965ZM394.822 317.365C393.382 317.365 392.392 316.325 392.392 314.805C392.392 313.275 393.362 312.215 394.782 312.215C396.172 312.215 397.082 313.175 397.082 314.625V314.975L393.302 314.985C393.372 316.015 393.912 316.585 394.842 316.585C395.572 316.585 396.052 316.285 396.212 315.725H397.092C396.852 316.775 396.032 317.365 394.822 317.365ZM394.782 313.005C393.962 313.005 393.442 313.495 393.322 314.355H396.142C396.142 313.545 395.612 313.005 394.782 313.005ZM399.012 317.245H398.072V312.355H398.922L399.022 313.105C399.332 312.545 399.952 312.215 400.642 312.215C401.932 312.215 402.522 313.005 402.522 314.255V317.245H401.582V314.465C401.582 313.475 401.122 313.075 400.402 313.075C399.522 313.075 399.012 313.705 399.012 314.655V317.245ZM405.724 317.365C404.304 317.365 403.444 316.305 403.444 314.815C403.444 313.315 404.314 312.215 405.764 312.215C406.514 312.215 407.144 312.545 407.474 313.145V309.885H408.404V317.245H407.564L407.484 316.355C407.164 317.025 406.504 317.365 405.724 317.365ZM405.914 316.515C406.874 316.515 407.464 315.805 407.464 314.785C407.464 313.785 406.874 313.065 405.914 313.065C404.954 313.065 404.394 313.785 404.394 314.785C404.394 315.795 404.954 316.515 405.914 316.515ZM414.334 317.365C412.914 317.365 412.054 316.305 412.054 314.815C412.054 313.315 412.924 312.215 414.374 312.215C415.124 312.215 415.754 312.545 416.084 313.145V309.885H417.014V317.245H416.174L416.094 316.355C415.774 317.025 415.114 317.365 414.334 317.365ZM414.524 316.515C415.484 316.515 416.074 315.805 416.074 314.785C416.074 313.785 415.484 313.065 414.524 313.065C413.564 313.065 413.004 313.785 413.004 314.785C413.004 315.795 413.564 316.515 414.524 316.515ZM419.74 317.365C418.69 317.365 418.07 316.775 418.07 315.885C418.07 314.985 418.74 314.425 419.89 314.335L421.43 314.215V314.075C421.43 313.255 420.94 312.965 420.28 312.965C419.49 312.965 419.04 313.315 419.04 313.905H418.22C418.22 312.885 419.06 312.215 420.32 312.215C421.53 312.215 422.35 312.855 422.35 314.175V317.245H421.55L421.45 316.455C421.2 317.015 420.53 317.365 419.74 317.365ZM420.01 316.635C420.9 316.635 421.44 316.055 421.44 315.135V314.875L420.19 314.975C419.36 315.055 419.02 315.375 419.02 315.855C419.02 316.375 419.4 316.635 420.01 316.635ZM424.894 317.245H423.954V313.145H422.994V312.355H423.954V310.825H424.894V312.355H425.854V313.145H424.894V317.245ZM428.009 317.365C426.959 317.365 426.339 316.775 426.339 315.885C426.339 314.985 427.009 314.425 428.159 314.335L429.699 314.215V314.075C429.699 313.255 429.209 312.965 428.549 312.965C427.759 312.965 427.309 313.315 427.309 313.905H426.489C426.489 312.885 427.329 312.215 428.589 312.215C429.799 312.215 430.619 312.855 430.619 314.175V317.245H429.819L429.719 316.455C429.469 317.015 428.799 317.365 428.009 317.365ZM428.279 316.635C429.169 316.635 429.709 316.055 429.709 315.135V314.875L428.459 314.975C427.629 315.055 427.289 315.375 427.289 315.855C427.289 316.375 427.669 316.635 428.279 316.635ZM435.915 317.245H434.975V313.145H434.015V312.355H434.975V310.825H435.915V312.355H436.875V313.145H435.915V317.245ZM437.29 314.795C437.29 313.285 438.37 312.225 439.84 312.225C441.3 312.225 442.38 313.285 442.38 314.795C442.38 316.305 441.3 317.365 439.84 317.365C438.37 317.365 437.29 316.305 437.29 314.795ZM438.24 314.795C438.24 315.815 438.89 316.525 439.84 316.525C440.78 316.525 441.44 315.815 441.44 314.795C441.44 313.775 440.78 313.065 439.84 313.065C438.89 313.065 438.24 313.775 438.24 314.795ZM445.775 311.965C445.775 310.725 446.775 309.885 448.265 309.885C449.645 309.885 450.535 310.655 450.615 311.905H449.625C449.575 311.185 449.065 310.765 448.255 310.765C447.345 310.765 446.755 311.225 446.755 311.935C446.755 312.515 447.085 312.865 447.765 313.025L448.955 313.305C450.135 313.575 450.735 314.215 450.735 315.235C450.735 316.535 449.725 317.365 448.185 317.365C446.715 317.365 445.735 316.595 445.675 315.355H446.675C446.695 316.045 447.275 316.485 448.185 316.485C449.145 316.485 449.755 316.035 449.755 315.315C449.755 314.745 449.445 314.385 448.755 314.225L447.565 313.955C446.385 313.685 445.775 313.005 445.775 311.965ZM453.176 317.365C452.126 317.365 451.506 316.775 451.506 315.885C451.506 314.985 452.176 314.425 453.326 314.335L454.866 314.215V314.075C454.866 313.255 454.376 312.965 453.716 312.965C452.926 312.965 452.476 313.315 452.476 313.905H451.656C451.656 312.885 452.496 312.215 453.756 312.215C454.966 312.215 455.786 312.855 455.786 314.175V317.245H454.986L454.886 316.455C454.636 317.015 453.966 317.365 453.176 317.365ZM453.446 316.635C454.336 316.635 454.876 316.055 454.876 315.135V314.875L453.626 314.975C452.796 315.055 452.456 315.375 452.456 315.855C452.456 316.375 452.836 316.635 453.446 316.635ZM457.988 317.245H457.048V309.885H457.988V317.245ZM461.422 317.365C459.982 317.365 458.992 316.325 458.992 314.805C458.992 313.275 459.962 312.215 461.382 312.215C462.772 312.215 463.682 313.175 463.682 314.625V314.975L459.902 314.985C459.972 316.015 460.512 316.585 461.442 316.585C462.172 316.585 462.652 316.285 462.812 315.725H463.692C463.452 316.775 462.632 317.365 461.422 317.365ZM461.382 313.005C460.562 313.005 460.042 313.495 459.922 314.355H462.742C462.742 313.545 462.212 313.005 461.382 313.005ZM464.272 315.825H465.172C465.172 316.325 465.552 316.625 466.172 316.625C466.832 316.625 467.212 316.355 467.212 315.905C467.212 315.575 467.052 315.375 466.542 315.245L465.682 315.045C464.812 314.835 464.402 314.405 464.402 313.685C464.402 312.785 465.162 312.215 466.242 312.215C467.312 312.215 468.012 312.815 468.032 313.745H467.132C467.112 313.255 466.782 312.945 466.212 312.945C465.622 312.945 465.292 313.205 465.292 313.655C465.292 313.985 465.532 314.205 466.012 314.325L466.872 314.535C467.702 314.735 468.112 315.115 468.112 315.845C468.112 316.775 467.312 317.365 466.152 317.365C465.002 317.365 464.272 316.755 464.272 315.825ZM474.318 317.245H471.928V310.015H474.278C476.438 310.015 477.898 311.475 477.898 313.635C477.898 315.785 476.458 317.245 474.318 317.245ZM474.208 310.915H472.908V316.335H474.248C475.858 316.335 476.878 315.295 476.878 313.635C476.878 311.955 475.858 310.915 474.208 310.915ZM481.035 317.365C479.595 317.365 478.605 316.325 478.605 314.805C478.605 313.275 479.575 312.215 480.995 312.215C482.385 312.215 483.295 313.175 483.295 314.625V314.975L479.515 314.985C479.585 316.015 480.125 316.585 481.055 316.585C481.785 316.585 482.265 316.285 482.425 315.725H483.305C483.065 316.775 482.245 317.365 481.035 317.365ZM480.995 313.005C480.175 313.005 479.655 313.495 479.535 314.355H482.355C482.355 313.545 481.825 313.005 480.995 313.005ZM484.285 319.435V312.355H485.135L485.205 313.235C485.535 312.565 486.195 312.215 486.975 312.215C488.375 312.215 489.245 313.265 489.245 314.765C489.245 316.255 488.425 317.375 486.975 317.375C486.195 317.375 485.545 317.045 485.225 316.445V319.435H484.285ZM485.235 314.805C485.235 315.805 485.815 316.525 486.775 316.525C487.735 316.525 488.305 315.805 488.305 314.805C488.305 313.795 487.735 313.075 486.775 313.075C485.815 313.075 485.235 313.785 485.235 314.805Z" fill="black"/>
<path d="M361.749 292.386L364.509 288.123C364.779 287.705 365.429 287.896 365.429 288.394V291.245H366.831C367.227 291.245 367.466 291.684 367.251 292.017L364.491 296.28C364.22 296.699 363.571 296.507 363.571 296.009V293.158H362.169C361.773 293.158 361.534 292.719 361.749 292.386Z" fill="#006FFF"/>
<path d="M386.425 323.667V322.992H390.423V323.667H388.795V328.414H388.06V323.667H386.425ZM390.163 326.577C390.163 325.444 390.973 324.649 392.076 324.649C393.171 324.649 393.981 325.444 393.981 326.577C393.981 327.709 393.171 328.504 392.076 328.504C390.973 328.504 390.163 327.709 390.163 326.577ZM390.876 326.577C390.876 327.342 391.363 327.874 392.076 327.874C392.781 327.874 393.276 327.342 393.276 326.577C393.276 325.812 392.781 325.279 392.076 325.279C391.363 325.279 390.876 325.812 390.876 326.577ZM396.186 328.504C395.121 328.504 394.476 327.709 394.476 326.592C394.476 325.467 395.129 324.642 396.216 324.642C396.779 324.642 397.251 324.889 397.499 325.339V322.894H398.196V328.414H397.566L397.506 327.747C397.266 328.249 396.771 328.504 396.186 328.504ZM396.329 327.867C397.049 327.867 397.491 327.334 397.491 326.569C397.491 325.819 397.049 325.279 396.329 325.279C395.609 325.279 395.189 325.819 395.189 326.569C395.189 327.327 395.609 327.867 396.329 327.867ZM400.241 328.504C399.453 328.504 398.988 328.062 398.988 327.394C398.988 326.719 399.491 326.299 400.353 326.232L401.508 326.142V326.037C401.508 325.422 401.141 325.204 400.646 325.204C400.053 325.204 399.716 325.467 399.716 325.909H399.101C399.101 325.144 399.731 324.642 400.676 324.642C401.583 324.642 402.198 325.122 402.198 326.112V328.414H401.598L401.523 327.822C401.336 328.242 400.833 328.504 400.241 328.504ZM400.443 327.957C401.111 327.957 401.516 327.522 401.516 326.832V326.637L400.578 326.712C399.956 326.772 399.701 327.012 399.701 327.372C399.701 327.762 399.986 327.957 400.443 327.957ZM402.689 330.057V329.479H403.162C403.499 329.479 403.769 329.427 403.942 328.962L404.069 328.609L402.592 324.747H403.334L404.399 327.702L405.487 324.747H406.214L404.482 329.239C404.234 329.869 403.867 330.132 403.304 330.132C403.072 330.132 402.877 330.102 402.689 330.057ZM409.81 328.504C409.023 328.504 408.558 328.062 408.558 327.394C408.558 326.719 409.06 326.299 409.923 326.232L411.078 326.142V326.037C411.078 325.422 410.71 325.204 410.215 325.204C409.623 325.204 409.285 325.467 409.285 325.909H408.67C408.67 325.144 409.3 324.642 410.245 324.642C411.153 324.642 411.768 325.122 411.768 326.112V328.414H411.168L411.093 327.822C410.905 328.242 410.403 328.504 409.81 328.504ZM410.013 327.957C410.68 327.957 411.085 327.522 411.085 326.832V326.637L410.148 326.712C409.525 326.772 409.27 327.012 409.27 327.372C409.27 327.762 409.555 327.957 410.013 327.957ZM413.676 328.414H412.971V325.339H412.251V324.747H412.971V323.599H413.676V324.747H414.396V325.339H413.676V328.414ZM416.832 326.907C416.832 326.254 417.214 325.729 417.814 325.512C417.304 325.294 417.027 324.867 417.027 324.319C417.027 323.472 417.754 322.894 418.834 322.894C419.899 322.894 420.619 323.472 420.619 324.327C420.619 324.882 420.334 325.309 419.824 325.512C420.432 325.707 420.822 326.247 420.822 326.914C420.822 327.867 420.027 328.504 418.827 328.504C417.619 328.504 416.832 327.867 416.832 326.907ZM417.702 324.364C417.702 324.897 418.144 325.242 418.819 325.242C419.502 325.242 419.929 324.904 419.929 324.379C419.929 323.862 419.502 323.532 418.819 323.532C418.144 323.532 417.702 323.862 417.702 324.364ZM417.552 326.854C417.552 327.462 418.054 327.852 418.827 327.852C419.592 327.852 420.094 327.462 420.094 326.854C420.094 326.254 419.599 325.872 418.819 325.872C418.047 325.872 417.552 326.254 417.552 326.854ZM423.982 328.414H423.217L425.197 322.992H426.015L428.002 328.414H427.23L426.742 327.064H424.462L423.982 328.414ZM425.512 324.162L424.687 326.427H426.525L425.692 324.162C425.655 324.057 425.617 323.929 425.602 323.847C425.587 323.922 425.55 324.049 425.512 324.162ZM429.398 328.414H428.678V322.992H429.398L431.266 327.552L433.133 322.992H433.868V328.414H433.148V326.269C433.148 325.257 433.156 324.889 433.193 324.507L431.611 328.414H430.921L429.346 324.522C429.383 324.784 429.398 325.339 429.398 326.097V328.414Z" fill="#006FFF"/>
<path opacity="0.6" d="M373.912 294.51H373.096L375.208 288.726H376.08L378.2 294.51H377.376L376.856 293.07H374.424L373.912 294.51ZM375.544 289.974L374.664 292.39H376.624L375.736 289.974C375.696 289.862 375.656 289.726 375.64 289.638C375.624 289.718 375.584 289.854 375.544 289.974ZM379.705 288.726V294.51H378.921V288.726H379.705ZM382.585 289.446V288.726H386.849V289.446H385.113V294.51H384.329V289.446H382.585ZM387.973 294.606C387.133 294.606 386.637 294.134 386.637 293.422C386.637 292.702 387.173 292.254 388.093 292.182L389.325 292.086V291.974C389.325 291.318 388.933 291.086 388.405 291.086C387.773 291.086 387.413 291.366 387.413 291.838H386.757C386.757 291.022 387.429 290.486 388.437 290.486C389.405 290.486 390.061 290.998 390.061 292.054V294.51H389.421L389.341 293.878C389.141 294.326 388.605 294.606 387.973 294.606ZM388.189 294.022C388.901 294.022 389.333 293.558 389.333 292.822V292.614L388.333 292.694C387.669 292.758 387.397 293.014 387.397 293.398C387.397 293.814 387.701 294.022 388.189 294.022ZM390.734 293.374H391.454C391.454 293.774 391.758 294.014 392.254 294.014C392.782 294.014 393.086 293.798 393.086 293.438C393.086 293.174 392.958 293.014 392.55 292.91L391.862 292.75C391.166 292.582 390.838 292.238 390.838 291.662C390.838 290.942 391.446 290.486 392.31 290.486C393.166 290.486 393.726 290.966 393.742 291.71H393.022C393.006 291.318 392.742 291.07 392.286 291.07C391.814 291.07 391.55 291.278 391.55 291.638C391.55 291.902 391.742 292.078 392.126 292.174L392.814 292.342C393.478 292.502 393.806 292.806 393.806 293.39C393.806 294.134 393.166 294.606 392.238 294.606C391.318 294.606 390.734 294.118 390.734 293.374ZM395.36 294.51H394.608V288.622H395.36V292.438L397.096 290.598H398.04L396.544 292.158L398.032 294.51H397.168L396.024 292.702L395.36 293.398V294.51ZM398.31 293.374H399.03C399.03 293.774 399.334 294.014 399.83 294.014C400.358 294.014 400.662 293.798 400.662 293.438C400.662 293.174 400.534 293.014 400.126 292.91L399.438 292.75C398.742 292.582 398.414 292.238 398.414 291.662C398.414 290.942 399.022 290.486 399.886 290.486C400.742 290.486 401.302 290.966 401.318 291.71H400.598C400.582 291.318 400.318 291.07 399.862 291.07C399.39 291.07 399.126 291.278 399.126 291.638C399.126 291.902 399.318 292.078 399.702 292.174L400.39 292.342C401.054 292.502 401.382 292.806 401.382 293.39C401.382 294.134 400.742 294.606 399.814 294.606C398.894 294.606 398.31 294.118 398.31 293.374Z" fill="#006FFF"/>
<circle cx="377.82" cy="313.51" r="4.32019" stroke="#006FFF"/>
<path d="M376 314.01L377.5 315.01L379.5 311.51" stroke="#006FFF"/>
<circle cx="164.589" cy="200.008" r="25.4982" fill="#F3F8FF"/>
<circle cx="164.589" cy="200.008" r="25.9982" stroke="#006FFF" stroke-opacity="0.3"/>
<path d="M164.604 199.869C167.697 199.869 170.664 201.09 172.852 203.263C174.345 204.746 175.392 206.591 175.906 208.59C176.205 209.754 176.355 210.337 175.917 210.896C175.48 211.456 174.77 211.456 173.352 211.456L155.856 211.456C154.438 211.456 153.729 211.456 153.291 210.896C152.854 210.337 153.003 209.754 153.302 208.59C153.816 206.591 154.863 204.746 156.356 203.263C158.543 201.09 161.51 199.869 164.604 199.869ZM164.604 186.994C167.448 186.994 169.754 189.3 169.754 192.145C169.754 194.989 167.448 197.294 164.604 197.294C161.76 197.294 159.455 194.989 159.454 192.145C159.454 189.3 161.76 186.994 164.604 186.994Z" fill="white"/>
<circle cx="282.498" cy="83.008" r="25.4982" fill="#F3F8FF"/>
<circle cx="282.498" cy="83.008" r="25.9982" stroke="#006FFF" stroke-opacity="0.3"/>
<path d="M282.513 82.8691C285.606 82.8691 288.573 84.0897 290.761 86.2627C292.254 87.7462 293.301 89.591 293.815 91.5898C294.114 92.7543 294.264 93.3366 293.826 93.8965C293.388 94.4564 292.679 94.4561 291.261 94.4561L273.765 94.4561C272.347 94.4561 271.638 94.4561 271.2 93.8965C270.762 93.3366 270.912 92.7542 271.211 91.5898C271.725 89.591 272.771 87.7462 274.265 86.2627C276.452 84.0897 279.419 82.8692 282.513 82.8691ZM282.513 69.9941C285.357 69.9941 287.663 72.3003 287.663 75.1445C287.663 77.9887 285.357 80.2939 282.513 80.2939C279.669 80.2939 277.363 77.9887 277.363 75.1445C277.363 72.3003 279.669 69.9942 282.513 69.9941Z" fill="white"/>
<circle cx="282.498" cy="317.008" r="25.4982" fill="#F3F8FF"/>
<circle cx="282.498" cy="317.008" r="25.9982" stroke="#006FFF" stroke-opacity="0.3"/>
<path d="M282.513 316.869C285.606 316.869 288.573 318.09 290.761 320.263C292.254 321.746 293.301 323.591 293.815 325.59C294.114 326.754 294.264 327.337 293.826 327.896C293.388 328.456 292.679 328.456 291.261 328.456L273.765 328.456C272.347 328.456 271.638 328.456 271.2 327.896C270.762 327.337 270.912 326.754 271.211 325.59C271.725 323.591 272.771 321.746 274.265 320.263C276.452 318.09 279.419 316.869 282.513 316.869ZM282.513 303.994C285.357 303.994 287.663 306.3 287.663 309.145C287.663 311.989 285.357 314.294 282.513 314.294C279.669 314.294 277.363 311.989 277.363 309.145C277.363 306.3 279.669 303.994 282.513 303.994Z" fill="url(#paint0_linear_3005_2385)"/>
<circle cx="400.498" cy="200.008" r="25.4982" fill="#F3F8FF"/>
<circle cx="400.498" cy="200.008" r="25.9982" stroke="#006FFF" stroke-opacity="0.3"/>
<path d="M400.513 199.869C403.606 199.869 406.573 201.09 408.761 203.263C410.254 204.746 411.3 206.591 411.814 208.59C412.114 209.754 412.264 210.337 411.826 210.896C411.388 211.456 410.679 211.456 409.262 211.456L391.765 211.456C390.347 211.456 389.638 211.456 389.2 210.896C388.762 210.337 388.911 209.754 389.211 208.59C389.725 206.591 390.771 204.746 392.265 203.263C394.452 201.09 397.419 199.869 400.513 199.869ZM400.513 186.994C403.357 186.994 405.663 189.3 405.663 192.145C405.663 194.989 403.357 197.294 400.513 197.294C397.669 197.294 395.363 194.989 395.363 192.145C395.363 189.3 397.668 186.994 400.513 186.994Z" fill="white"/>
<g filter="url(#filter1_f_3005_2385)">
<rect x="58" y="89.5098" width="151" height="65" rx="32.5" fill="#00B3FF"/>
</g>
<path d="M46 60.5098C46 53.8824 51.3726 48.5098 58 48.5098H209C215.627 48.5098 221 53.8823 221 60.5098V137.51C221 144.137 215.627 149.51 209 149.51H58C51.3726 149.51 46 144.137 46 137.51V60.5098Z" fill="#F3F8FF"/>
<path d="M209 48.0098C215.904 48.0098 221.5 53.6062 221.5 60.5098V137.51C221.5 144.413 215.904 150.01 209 150.01H58C51.0964 150.01 45.5 144.413 45.5 137.51V60.5098C45.5 53.6062 51.0964 48.0098 58 48.0098H209Z" stroke="#006FFF" stroke-opacity="0.3"/>
<path d="M84.4602 90.2451H83.4402L86.0802 83.0151H87.1702L89.8202 90.2451H88.7902L88.1402 88.4451H85.1002L84.4602 90.2451ZM86.5002 84.5751L85.4002 87.5951H87.8502L86.7402 84.5751C86.6902 84.4351 86.6402 84.2651 86.6202 84.1551C86.6002 84.2551 86.5502 84.4251 86.5002 84.5751ZM90.5613 92.4351V85.3551H91.4113L91.4813 86.2351C91.8113 85.5651 92.4713 85.2151 93.2513 85.2151C94.6513 85.2151 95.5213 86.2651 95.5213 87.7651C95.5213 89.2551 94.7013 90.3751 93.2513 90.3751C92.4713 90.3751 91.8213 90.0451 91.5013 89.4451V92.4351H90.5613ZM91.5113 87.8051C91.5113 88.8051 92.0913 89.5251 93.0513 89.5251C94.0113 89.5251 94.5813 88.8051 94.5813 87.8051C94.5813 86.7951 94.0113 86.0751 93.0513 86.0751C92.0913 86.0751 91.5113 86.7851 91.5113 87.8051ZM96.4974 92.4351V85.3551H97.3474L97.4174 86.2351C97.7474 85.5651 98.4074 85.2151 99.1874 85.2151C100.587 85.2151 101.457 86.2651 101.457 87.7651C101.457 89.2551 100.637 90.3751 99.1874 90.3751C98.4074 90.3751 97.7574 90.0451 97.4374 89.4451V92.4351H96.4974ZM97.4474 87.8051C97.4474 88.8051 98.0274 89.5251 98.9874 89.5251C99.9474 89.5251 100.517 88.8051 100.517 87.8051C100.517 86.7951 99.9474 86.0751 98.9874 86.0751C98.0274 86.0751 97.4474 86.7851 97.4474 87.8051ZM102.113 87.7951C102.113 86.2851 103.193 85.2251 104.663 85.2251C106.123 85.2251 107.203 86.2851 107.203 87.7951C107.203 89.3051 106.123 90.3651 104.663 90.3651C103.193 90.3651 102.113 89.3051 102.113 87.7951ZM103.063 87.7951C103.063 88.8151 103.713 89.5251 104.663 89.5251C105.603 89.5251 106.263 88.8151 106.263 87.7951C106.263 86.7751 105.603 86.0651 104.663 86.0651C103.713 86.0651 103.063 86.7751 103.063 87.7951ZM108.644 84.1951C108.304 84.1951 108.024 83.9151 108.024 83.5751C108.024 83.2251 108.304 82.9551 108.644 82.9551C108.984 82.9551 109.264 83.2251 109.264 83.5751C109.264 83.9151 108.984 84.1951 108.644 84.1951ZM108.184 90.2451V85.3551H109.124V90.2451H108.184ZM111.369 90.2451H110.429V85.3551H111.279L111.379 86.1051C111.689 85.5451 112.309 85.2151 112.999 85.2151C114.289 85.2151 114.879 86.0051 114.879 87.2551V90.2451H113.939V87.4651C113.939 86.4751 113.479 86.0751 112.759 86.0751C111.879 86.0751 111.369 86.7051 111.369 87.6551V90.2451ZM117.501 90.2451H116.561V86.1451H115.601V85.3551H116.561V83.8251H117.501V85.3551H118.461V86.1451H117.501V90.2451ZM120.184 90.2451H119.244V85.3551H120.084L120.174 85.9951C120.424 85.5351 120.944 85.2151 121.634 85.2151C122.394 85.2151 122.934 85.5951 123.184 86.2051C123.414 85.5951 124.004 85.2151 124.764 85.2151C125.884 85.2151 126.564 85.9151 126.564 87.0451V90.2451H125.644V87.2751C125.644 86.5051 125.214 86.0651 124.554 86.0651C123.844 86.0651 123.374 86.5651 123.374 87.3451V90.2451H122.444V87.2651C122.444 86.4951 122.024 86.0751 121.364 86.0751C120.654 86.0751 120.184 86.5651 120.184 87.3451V90.2451ZM129.917 90.3651C128.477 90.3651 127.487 89.3251 127.487 87.8051C127.487 86.2751 128.457 85.2151 129.877 85.2151C131.267 85.2151 132.177 86.1751 132.177 87.6251V87.9751L128.397 87.9851C128.467 89.0151 129.007 89.5851 129.937 89.5851C130.667 89.5851 131.147 89.2851 131.307 88.7251H132.187C131.947 89.7751 131.127 90.3651 129.917 90.3651ZM129.877 86.0051C129.057 86.0051 128.537 86.4951 128.417 87.3551H131.237C131.237 86.5451 130.707 86.0051 129.877 86.0051ZM134.107 90.2451H133.167V85.3551H134.017L134.117 86.1051C134.427 85.5451 135.047 85.2151 135.737 85.2151C137.027 85.2151 137.617 86.0051 137.617 87.2551V90.2451H136.677V87.4651C136.677 86.4751 136.217 86.0751 135.497 86.0751C134.617 86.0751 134.107 86.7051 134.107 87.6551V90.2451ZM140.239 90.2451H139.299V86.1451H138.339V85.3551H139.299V83.8251H140.239V85.3551H141.199V86.1451H140.239V90.2451ZM145.797 90.2451H144.817V83.0151H147.547C149.097 83.0151 150.017 83.8351 150.017 85.1851C150.017 86.1851 149.517 86.9051 148.617 87.1951L150.087 90.2451H148.997L147.647 87.3851H145.797V90.2451ZM145.797 83.8951V86.5151H147.557C148.467 86.5151 148.987 86.0251 148.987 85.1951C148.987 84.3551 148.447 83.8951 147.547 83.8951H145.797ZM152.899 90.3651C151.459 90.3651 150.469 89.3251 150.469 87.8051C150.469 86.2751 151.439 85.2151 152.859 85.2151C154.249 85.2151 155.159 86.1751 155.159 87.6251V87.9751L151.379 87.9851C151.449 89.0151 151.989 89.5851 152.919 89.5851C153.649 89.5851 154.129 89.2851 154.289 88.7251H155.169C154.929 89.7751 154.109 90.3651 152.899 90.3651ZM152.859 86.0051C152.039 86.0051 151.519 86.4951 151.399 87.3551H154.219C154.219 86.5451 153.689 86.0051 152.859 86.0051ZM157.088 90.2451H156.148V85.3551H156.988L157.078 85.9951C157.328 85.5351 157.848 85.2151 158.538 85.2151C159.298 85.2151 159.838 85.5951 160.088 86.2051C160.318 85.5951 160.908 85.2151 161.668 85.2151C162.788 85.2151 163.468 85.9151 163.468 87.0451V90.2451H162.548V87.2751C162.548 86.5051 162.118 86.0651 161.458 86.0651C160.748 86.0651 160.278 86.5651 160.278 87.3451V90.2451H159.348V87.2651C159.348 86.4951 158.928 86.0751 158.268 86.0751C157.558 86.0751 157.088 86.5651 157.088 87.3451V90.2451ZM165.172 84.1951C164.832 84.1951 164.552 83.9151 164.552 83.5751C164.552 83.2251 164.832 82.9551 165.172 82.9551C165.512 82.9551 165.792 83.2251 165.792 83.5751C165.792 83.9151 165.512 84.1951 165.172 84.1951ZM164.712 90.2451V85.3551H165.652V90.2451H164.712ZM167.896 90.2451H166.956V85.3551H167.806L167.906 86.1051C168.216 85.5451 168.836 85.2151 169.526 85.2151C170.816 85.2151 171.406 86.0051 171.406 87.2551V90.2451H170.466V87.4651C170.466 86.4751 170.006 86.0751 169.286 86.0751C168.406 86.0751 167.896 86.7051 167.896 87.6551V90.2451ZM174.608 90.3651C173.188 90.3651 172.328 89.3051 172.328 87.8151C172.328 86.3151 173.198 85.2151 174.648 85.2151C175.398 85.2151 176.028 85.5451 176.358 86.1451V82.8851H177.288V90.2451H176.448L176.368 89.3551C176.048 90.0251 175.388 90.3651 174.608 90.3651ZM174.798 89.5151C175.758 89.5151 176.348 88.8051 176.348 87.7851C176.348 86.7851 175.758 86.0651 174.798 86.0651C173.838 86.0651 173.278 86.7851 173.278 87.7851C173.278 88.7951 173.838 89.5151 174.798 89.5151ZM180.694 90.3651C179.254 90.3651 178.264 89.3251 178.264 87.8051C178.264 86.2751 179.234 85.2151 180.654 85.2151C182.044 85.2151 182.954 86.1751 182.954 87.6251V87.9751L179.174 87.9851C179.244 89.0151 179.784 89.5851 180.714 89.5851C181.444 89.5851 181.924 89.2851 182.084 88.7251H182.964C182.724 89.7751 181.904 90.3651 180.694 90.3651ZM180.654 86.0051C179.834 86.0051 179.314 86.4951 179.194 87.3551H182.014C182.014 86.5451 181.484 86.0051 180.654 86.0051ZM186.744 85.3151V86.1751H186.324C185.434 86.1751 184.884 86.7151 184.884 87.6551V90.2451H183.944V85.3651H184.824L184.884 86.1051C185.084 85.5951 185.574 85.2551 186.244 85.2551C186.414 85.2551 186.554 85.2751 186.744 85.3151Z" fill="black"/>
<path d="M87.1602 119.176C85.1002 119.176 83.7302 117.696 83.7302 115.456C83.7302 113.226 85.1402 111.716 87.2102 111.716C88.8402 111.716 90.0902 112.686 90.3602 114.166H89.3102C89.0402 113.226 88.2302 112.656 87.1802 112.656C85.7202 112.656 84.7602 113.756 84.7602 115.446C84.7602 117.136 85.7202 118.236 87.1802 118.236C88.2402 118.236 89.0802 117.666 89.3502 116.776H90.3902C90.0802 118.216 88.7902 119.176 87.1602 119.176ZM94.1718 114.136V114.996H93.7518C92.8618 114.996 92.3118 115.536 92.3118 116.476V119.066H91.3718V114.186H92.2518L92.3118 114.926C92.5118 114.416 93.0018 114.076 93.6718 114.076C93.8418 114.076 93.9818 114.096 94.1718 114.136ZM96.9277 119.186C95.4877 119.186 94.4977 118.146 94.4977 116.626C94.4977 115.096 95.4677 114.036 96.8877 114.036C98.2777 114.036 99.1877 114.996 99.1877 116.446V116.796L95.4077 116.806C95.4777 117.836 96.0177 118.406 96.9477 118.406C97.6777 118.406 98.1577 118.106 98.3177 117.546H99.1977C98.9577 118.596 98.1377 119.186 96.9277 119.186ZM96.8877 114.826C96.0677 114.826 95.5477 115.316 95.4277 116.176H98.2477C98.2477 115.366 97.7177 114.826 96.8877 114.826ZM101.559 119.186C100.509 119.186 99.8888 118.596 99.8888 117.706C99.8888 116.806 100.559 116.246 101.709 116.156L103.249 116.036V115.896C103.249 115.076 102.759 114.786 102.099 114.786C101.309 114.786 100.859 115.136 100.859 115.726H100.039C100.039 114.706 100.879 114.036 102.139 114.036C103.349 114.036 104.169 114.676 104.169 115.996V119.066H103.369L103.269 118.276C103.019 118.836 102.349 119.186 101.559 119.186ZM101.829 118.456C102.719 118.456 103.259 117.876 103.259 116.956V116.696L102.009 116.796C101.179 116.876 100.839 117.196 100.839 117.676C100.839 118.196 101.219 118.456 101.829 118.456ZM106.712 119.066H105.772V114.966H104.812V114.176H105.772V112.646H106.712V114.176H107.672V114.966H106.712V119.066ZM110.517 119.186C109.077 119.186 108.087 118.146 108.087 116.626C108.087 115.096 109.057 114.036 110.477 114.036C111.867 114.036 112.777 114.996 112.777 116.446V116.796L108.997 116.806C109.067 117.836 109.607 118.406 110.537 118.406C111.267 118.406 111.747 118.106 111.907 117.546H112.787C112.547 118.596 111.727 119.186 110.517 119.186ZM110.477 114.826C109.657 114.826 109.137 115.316 109.017 116.176H111.837C111.837 115.366 111.307 114.826 110.477 114.826ZM122.302 119.546L121.522 118.666C120.982 118.996 120.342 119.186 119.632 119.186C117.592 119.186 116.172 117.646 116.172 115.446C116.172 113.256 117.602 111.706 119.642 111.706C121.692 111.706 123.122 113.246 123.122 115.446C123.122 116.526 122.772 117.446 122.182 118.106L122.942 118.966L122.302 119.546ZM122.092 115.446C122.092 113.766 121.112 112.656 119.642 112.656C118.172 112.656 117.202 113.766 117.202 115.446C117.202 117.126 118.172 118.246 119.642 118.246C120.102 118.246 120.512 118.136 120.862 117.926L119.912 116.856L120.552 116.276L121.512 117.356C121.882 116.876 122.092 116.216 122.092 115.446ZM127.535 114.176H128.465V119.066H127.625L127.525 118.326C127.245 118.836 126.595 119.186 125.875 119.186C124.735 119.186 124.095 118.416 124.095 117.216V114.176H125.035V116.906C125.035 117.956 125.485 118.356 126.205 118.356C127.065 118.356 127.535 117.806 127.535 116.756V114.176ZM129.351 116.616C129.351 115.106 130.431 114.046 131.901 114.046C133.361 114.046 134.441 115.106 134.441 116.616C134.441 118.126 133.361 119.186 131.901 119.186C130.431 119.186 129.351 118.126 129.351 116.616ZM130.301 116.616C130.301 117.636 130.951 118.346 131.901 118.346C132.841 118.346 133.501 117.636 133.501 116.616C133.501 115.596 132.841 114.886 131.901 114.886C130.951 114.886 130.301 115.596 130.301 116.616ZM136.753 119.066H135.813V114.966H134.853V114.176H135.813V112.646H136.753V114.176H137.713V114.966H136.753V119.066ZM140.558 119.186C139.118 119.186 138.128 118.146 138.128 116.626C138.128 115.096 139.098 114.036 140.518 114.036C141.908 114.036 142.818 114.996 142.818 116.446V116.796L139.038 116.806C139.108 117.836 139.648 118.406 140.578 118.406C141.308 118.406 141.788 118.106 141.948 117.546H142.828C142.588 118.596 141.768 119.186 140.558 119.186ZM140.518 114.826C139.698 114.826 139.178 115.316 139.058 116.176H141.878C141.878 115.366 141.348 114.826 140.518 114.826Z" fill="black"/>
<path d="M58.7494 65.3865L61.5088 61.1228C61.7795 60.7045 62.4286 60.8962 62.4286 61.3945V64.2451H63.8308C64.2271 64.2451 64.4659 64.6841 64.2506 65.0168L61.4912 69.2805C61.2205 69.6987 60.5714 69.507 60.5714 69.0088V66.1582H59.1692C58.7729 66.1582 58.5341 65.7192 58.7494 65.3865Z" fill="#006FFF"/>
<path d="M83.4252 96.6666V95.9916H87.4227V96.6666H85.7952V101.414H85.0602V96.6666H83.4252ZM87.1634 99.5766C87.1634 98.4441 87.9734 97.6491 89.0759 97.6491C90.1709 97.6491 90.9809 98.4441 90.9809 99.5766C90.9809 100.709 90.1709 101.504 89.0759 101.504C87.9734 101.504 87.1634 100.709 87.1634 99.5766ZM87.8759 99.5766C87.8759 100.342 88.3634 100.874 89.0759 100.874C89.7809 100.874 90.2759 100.342 90.2759 99.5766C90.2759 98.8116 89.7809 98.2791 89.0759 98.2791C88.3634 98.2791 87.8759 98.8116 87.8759 99.5766ZM92.4213 101.414H91.7163V97.7466H92.3463L92.4138 98.2266C92.6013 97.8816 92.9913 97.6416 93.5088 97.6416C94.0788 97.6416 94.4838 97.9266 94.6713 98.3841C94.8438 97.9266 95.2863 97.6416 95.8563 97.6416C96.6963 97.6416 97.2063 98.1666 97.2063 99.0141V101.414H96.5163V99.1866C96.5163 98.6091 96.1938 98.2791 95.6988 98.2791C95.1663 98.2791 94.8138 98.6541 94.8138 99.2391V101.414H94.1163V99.1791C94.1163 98.6016 93.8013 98.2866 93.3063 98.2866C92.7738 98.2866 92.4213 98.6541 92.4213 99.2391V101.414ZM97.8985 99.5766C97.8985 98.4441 98.7085 97.6491 99.811 97.6491C100.906 97.6491 101.716 98.4441 101.716 99.5766C101.716 100.709 100.906 101.504 99.811 101.504C98.7085 101.504 97.8985 100.709 97.8985 99.5766ZM98.611 99.5766C98.611 100.342 99.0985 100.874 99.811 100.874C100.516 100.874 101.011 100.342 101.011 99.5766C101.011 98.8116 100.516 98.2791 99.811 98.2791C99.0985 98.2791 98.611 98.8116 98.611 99.5766ZM104.551 97.7166V98.3616H104.236C103.569 98.3616 103.156 98.7666 103.156 99.4716V101.414H102.451V97.7541H103.111L103.156 98.3091C103.306 97.9266 103.674 97.6716 104.176 97.6716C104.304 97.6716 104.409 97.6866 104.551 97.7166ZM107.268 97.7166V98.3616H106.953C106.285 98.3616 105.873 98.7666 105.873 99.4716V101.414H105.168V97.7541H105.828L105.873 98.3091C106.023 97.9266 106.39 97.6716 106.893 97.6716C107.02 97.6716 107.125 97.6866 107.268 97.7166ZM107.512 99.5766C107.512 98.4441 108.322 97.6491 109.425 97.6491C110.52 97.6491 111.33 98.4441 111.33 99.5766C111.33 100.709 110.52 101.504 109.425 101.504C108.322 101.504 107.512 100.709 107.512 99.5766ZM108.225 99.5766C108.225 100.342 108.712 100.874 109.425 100.874C110.13 100.874 110.625 100.342 110.625 99.5766C110.625 98.8116 110.13 98.2791 109.425 98.2791C108.712 98.2791 108.225 98.8116 108.225 99.5766ZM112.684 101.414L111.484 97.7466H112.212L112.819 99.6516C112.902 99.9216 112.977 100.199 113.044 100.522C113.104 100.199 113.202 99.8916 113.284 99.6516L113.899 97.7466H114.619L115.227 99.6516C115.287 99.8316 115.407 100.259 115.467 100.522C115.527 100.229 115.594 99.9741 115.699 99.6516L116.314 97.7466H117.049L115.797 101.414H115.129L114.492 99.4491C114.372 99.0816 114.297 98.7966 114.259 98.5941C114.222 98.7741 114.154 99.0141 114.019 99.4566L113.382 101.414H112.684ZM120.687 101.504C119.899 101.504 119.434 101.062 119.434 100.394C119.434 99.7191 119.937 99.2991 120.799 99.2316L121.954 99.1416V99.0366C121.954 98.4216 121.587 98.2041 121.092 98.2041C120.499 98.2041 120.162 98.4666 120.162 98.9091H119.547C119.547 98.1441 120.177 97.6416 121.122 97.6416C122.029 97.6416 122.644 98.1216 122.644 99.1116V101.414H122.044L121.969 100.822C121.782 101.242 121.279 101.504 120.687 101.504ZM120.889 100.957C121.557 100.957 121.962 100.522 121.962 99.8316V99.6366L121.024 99.7116C120.402 99.7716 120.147 100.012 120.147 100.372C120.147 100.762 120.432 100.957 120.889 100.957ZM124.552 101.414H123.847V98.3391H123.127V97.7466H123.847V96.5991H124.552V97.7466H125.272V98.3391H124.552V101.414ZM128.758 96.6516H127.618V95.9916H129.463V101.414H128.758V96.6516ZM134.786 99.4791H133.413V101.414H132.678V95.9916H134.786C135.851 95.9916 136.533 96.6891 136.533 97.7316C136.533 98.7441 135.843 99.4791 134.786 99.4791ZM134.658 96.6516H133.413V98.8191H134.628C135.356 98.8191 135.761 98.3916 135.761 97.7241C135.761 97.0416 135.348 96.6516 134.658 96.6516ZM138.041 101.414H137.321V95.9916H138.041L139.908 100.552L141.776 95.9916H142.511V101.414H141.791V99.2691C141.791 98.2566 141.798 97.8891 141.836 97.5066L140.253 101.414H139.563L137.988 97.5216C138.026 97.7841 138.041 98.3391 138.041 99.0966V101.414Z" fill="#006FFF"/>
<path opacity="0.6" d="M70.912 67.5098H70.096L72.208 61.7258H73.08L75.2 67.5098H74.376L73.856 66.0698H71.424L70.912 67.5098ZM72.544 62.9738L71.664 65.3898H73.624L72.736 62.9738C72.696 62.8618 72.656 62.7258 72.64 62.6378C72.624 62.7178 72.584 62.8538 72.544 62.9738ZM76.7049 61.7258V67.5098H75.9209V61.7258H76.7049ZM79.5852 62.4458V61.7258H83.8492V62.4458H82.1132V67.5098H81.3292V62.4458H79.5852ZM84.9726 67.6058C84.1326 67.6058 83.6366 67.1338 83.6366 66.4218C83.6366 65.7018 84.1726 65.2538 85.0926 65.1818L86.3246 65.0858V64.9738C86.3246 64.3178 85.9326 64.0858 85.4046 64.0858C84.7726 64.0858 84.4126 64.3658 84.4126 64.8378H83.7566C83.7566 64.0218 84.4286 63.4858 85.4366 63.4858C86.4046 63.4858 87.0606 63.9978 87.0606 65.0538V67.5098H86.4206L86.3406 66.8778C86.1406 67.3258 85.6046 67.6058 84.9726 67.6058ZM85.1886 67.0218C85.9006 67.0218 86.3326 66.5578 86.3326 65.8218V65.6138L85.3326 65.6938C84.6686 65.7578 84.3966 66.0138 84.3966 66.3978C84.3966 66.8138 84.7006 67.0218 85.1886 67.0218ZM87.734 66.3738H88.454C88.454 66.7738 88.758 67.0138 89.254 67.0138C89.782 67.0138 90.086 66.7978 90.086 66.4378C90.086 66.1738 89.958 66.0138 89.55 65.9098L88.862 65.7498C88.166 65.5818 87.838 65.2378 87.838 64.6618C87.838 63.9418 88.446 63.4858 89.31 63.4858C90.166 63.4858 90.726 63.9658 90.742 64.7098H90.022C90.006 64.3178 89.742 64.0698 89.286 64.0698C88.814 64.0698 88.55 64.2778 88.55 64.6378C88.55 64.9018 88.742 65.0778 89.126 65.1738L89.814 65.3418C90.478 65.5018 90.806 65.8058 90.806 66.3898C90.806 67.1338 90.166 67.6058 89.238 67.6058C88.318 67.6058 87.734 67.1178 87.734 66.3738ZM92.3599 67.5098H91.6079V61.6218H92.3599V65.4378L94.0959 63.5978H95.0399L93.5439 65.1578L95.0319 67.5098H94.1679L93.0239 65.7018L92.3599 66.3978V67.5098ZM95.3099 66.3738H96.0299C96.0299 66.7738 96.3339 67.0138 96.8299 67.0138C97.3579 67.0138 97.6619 66.7978 97.6619 66.4378C97.6619 66.1738 97.5339 66.0138 97.1259 65.9098L96.4379 65.7498C95.7419 65.5818 95.4139 65.2378 95.4139 64.6618C95.4139 63.9418 96.0219 63.4858 96.8859 63.4858C97.7419 63.4858 98.3019 63.9658 98.3179 64.7098H97.5979C97.5819 64.3178 97.3179 64.0698 96.8619 64.0698C96.3899 64.0698 96.1259 64.2778 96.1259 64.6378C96.1259 64.9018 96.3179 65.0778 96.7019 65.1738L97.3899 65.3418C98.0539 65.5018 98.3819 65.8058 98.3819 66.3898C98.3819 67.1338 97.7419 67.6058 96.8139 67.6058C95.8939 67.6058 95.3099 67.1178 95.3099 66.3738Z" fill="#006FFF"/>
<path d="M85.0452 130.235L83.4327 124.813H84.1977L85.1877 128.128C85.2627 128.413 85.3377 128.698 85.4127 129.11C85.5027 128.675 85.5852 128.413 85.6677 128.128L86.6952 124.813H87.4902L88.5102 128.128C88.6002 128.42 88.6752 128.705 88.7577 129.11C88.8477 128.653 88.9227 128.375 88.9977 128.135L89.9952 124.813H90.7452L89.1102 130.235H88.4052L87.0927 125.945L85.7652 130.235H85.0452ZM92.4282 130.325C91.3482 130.325 90.6057 129.545 90.6057 128.405C90.6057 127.258 91.3332 126.463 92.3982 126.463C93.4407 126.463 94.1232 127.183 94.1232 128.27V128.533L91.2882 128.54C91.3407 129.313 91.7457 129.74 92.4432 129.74C92.9907 129.74 93.3507 129.515 93.4707 129.095H94.1307C93.9507 129.883 93.3357 130.325 92.4282 130.325ZM92.3982 127.055C91.7832 127.055 91.3932 127.423 91.3032 128.068H93.4182C93.4182 127.46 93.0207 127.055 92.3982 127.055ZM96.3357 130.325C95.2707 130.325 94.6257 129.53 94.6257 128.413C94.6257 127.288 95.2782 126.463 96.3657 126.463C96.9282 126.463 97.4007 126.71 97.6482 127.16V124.715H98.3457V130.235H97.7157L97.6557 129.568C97.4157 130.07 96.9207 130.325 96.3357 130.325ZM96.4782 129.688C97.1982 129.688 97.6407 129.155 97.6407 128.39C97.6407 127.64 97.1982 127.1 96.4782 127.1C95.7582 127.1 95.3382 127.64 95.3382 128.39C95.3382 129.148 95.7582 129.688 96.4782 129.688ZM100.023 130.235H99.3177V126.568H99.9552L100.03 127.13C100.263 126.71 100.728 126.463 101.245 126.463C102.213 126.463 102.655 127.055 102.655 127.993V130.235H101.95V128.15C101.95 127.408 101.605 127.108 101.065 127.108C100.405 127.108 100.023 127.58 100.023 128.293V130.235ZM105.169 130.325C104.089 130.325 103.347 129.545 103.347 128.405C103.347 127.258 104.074 126.463 105.139 126.463C106.182 126.463 106.864 127.183 106.864 128.27V128.533L104.029 128.54C104.082 129.313 104.487 129.74 105.184 129.74C105.732 129.74 106.092 129.515 106.212 129.095H106.872C106.692 129.883 106.077 130.325 105.169 130.325ZM105.139 127.055C104.524 127.055 104.134 127.423 104.044 128.068H106.159C106.159 127.46 105.762 127.055 105.139 127.055ZM107.307 129.17H107.982C107.982 129.545 108.267 129.77 108.732 129.77C109.227 129.77 109.512 129.568 109.512 129.23C109.512 128.983 109.392 128.833 109.009 128.735L108.364 128.585C107.712 128.428 107.404 128.105 107.404 127.565C107.404 126.89 107.974 126.463 108.784 126.463C109.587 126.463 110.112 126.913 110.127 127.61H109.452C109.437 127.243 109.189 127.01 108.762 127.01C108.319 127.01 108.072 127.205 108.072 127.543C108.072 127.79 108.252 127.955 108.612 128.045L109.257 128.203C109.879 128.353 110.187 128.638 110.187 129.185C110.187 129.883 109.587 130.325 108.717 130.325C107.854 130.325 107.307 129.868 107.307 129.17ZM112.393 130.325C111.328 130.325 110.683 129.53 110.683 128.413C110.683 127.288 111.336 126.463 112.423 126.463C112.986 126.463 113.458 126.71 113.706 127.16V124.715H114.403V130.235H113.773L113.713 129.568C113.473 130.07 112.978 130.325 112.393 130.325ZM112.536 129.688C113.256 129.688 113.698 129.155 113.698 128.39C113.698 127.64 113.256 127.1 112.536 127.1C111.816 127.1 111.396 127.64 111.396 128.39C111.396 129.148 111.816 129.688 112.536 129.688ZM116.448 130.325C115.661 130.325 115.196 129.883 115.196 129.215C115.196 128.54 115.698 128.12 116.561 128.053L117.716 127.963V127.858C117.716 127.243 117.348 127.025 116.853 127.025C116.261 127.025 115.923 127.288 115.923 127.73H115.308C115.308 126.965 115.938 126.463 116.883 126.463C117.791 126.463 118.406 126.943 118.406 127.933V130.235H117.806L117.731 129.643C117.543 130.063 117.041 130.325 116.448 130.325ZM116.651 129.778C117.318 129.778 117.723 129.343 117.723 128.653V128.458L116.786 128.533C116.163 128.593 115.908 128.833 115.908 129.193C115.908 129.583 116.193 129.778 116.651 129.778ZM118.896 131.878V131.3H119.369C119.706 131.3 119.976 131.248 120.149 130.783L120.276 130.43L118.799 126.568H119.541L120.606 129.523L121.694 126.568H122.421L120.689 131.06C120.441 131.69 120.074 131.953 119.511 131.953C119.279 131.953 119.084 131.923 118.896 131.878ZM126.018 130.325C125.23 130.325 124.765 129.883 124.765 129.215C124.765 128.54 125.268 128.12 126.13 128.053L127.285 127.963V127.858C127.285 127.243 126.918 127.025 126.423 127.025C125.83 127.025 125.493 127.288 125.493 127.73H124.878C124.878 126.965 125.508 126.463 126.453 126.463C127.36 126.463 127.975 126.943 127.975 127.933V130.235H127.375L127.3 129.643C127.113 130.063 126.61 130.325 126.018 130.325ZM126.22 129.778C126.888 129.778 127.293 129.343 127.293 128.653V128.458L126.355 128.533C125.733 128.593 125.478 128.833 125.478 129.193C125.478 129.583 125.763 129.778 126.22 129.778ZM129.883 130.235H129.178V127.16H128.458V126.568H129.178V125.42H129.883V126.568H130.603V127.16H129.883V130.235ZM134.606 127.43H134.066V126.943L135.604 125.465H133.166V124.813H136.534V125.405L135.049 126.823C135.971 126.935 136.669 127.558 136.669 128.533C136.669 129.628 135.844 130.325 134.741 130.325C133.676 130.325 132.911 129.673 132.911 128.548H133.639C133.639 129.253 134.074 129.665 134.756 129.665C135.461 129.665 135.919 129.215 135.919 128.518C135.919 127.865 135.469 127.43 134.606 127.43ZM141.647 128.3H140.275V130.235H139.54V124.813H141.647C142.712 124.813 143.395 125.51 143.395 126.553C143.395 127.565 142.705 128.3 141.647 128.3ZM141.52 125.473H140.275V127.64H141.49C142.217 127.64 142.622 127.213 142.622 126.545C142.622 125.863 142.21 125.473 141.52 125.473ZM144.902 130.235H144.182V124.813H144.902L146.77 129.373L148.637 124.813H149.372V130.235H148.652V128.09C148.652 127.078 148.66 126.71 148.697 126.328L147.115 130.235H146.425L144.85 126.343C144.887 126.605 144.902 127.16 144.902 127.918V130.235Z" fill="#006FFF"/>
<circle cx="74.8202" cy="86.5096" r="4.32019" stroke="#006FFF"/>
<circle cx="74.8202" cy="115.331" r="4.32019" stroke="#006FFF"/>
<g opacity="0.2">
<circle cx="282.499" cy="200.008" r="54.3004" fill="url(#paint1_linear_3005_2385)"/>
</g>
<circle cx="282.499" cy="200.008" r="45.0001" fill="url(#paint2_linear_3005_2385)"/>
<path d="M269 190.976C269 186.305 272.787 182.519 277.457 182.519H295.326C295.326 187.189 291.54 190.976 286.869 190.976H269Z" fill="#F5F5F5"/>
<path d="M269.014 194.301C269.014 198.972 272.8 202.758 277.471 202.758H295.34C295.34 198.087 291.553 194.301 286.883 194.301H269.014Z" fill="#F5F5F5"/>
<path d="M269 214.518C269 209.847 272.787 206.061 277.457 206.061H295.326C295.326 210.731 291.54 214.518 286.869 214.518H269Z" fill="#F5F5F5"/>
<rect x="242.5" y="261.019" width="79" height="17" rx="8.5" fill="white"/>
<rect x="242.5" y="261.019" width="79" height="17" rx="8.5" stroke="#D0F6D0"/>
<path d="M252.567 274.58V268.073H253.584L253.656 268.748C253.926 268.235 254.511 267.938 255.186 267.938C256.437 267.938 257.265 268.847 257.265 270.242C257.265 271.628 256.509 272.636 255.186 272.636C254.52 272.636 253.944 272.375 253.665 271.925V274.58H252.567ZM253.674 270.296C253.674 271.097 254.169 271.646 254.925 271.646C255.699 271.646 256.158 271.088 256.158 270.296C256.158 269.504 255.699 268.937 254.925 268.937C254.169 268.937 253.674 269.495 253.674 270.296ZM257.824 270.287C257.824 268.901 258.823 267.947 260.2 267.947C261.577 267.947 262.576 268.901 262.576 270.287C262.576 271.673 261.577 272.627 260.2 272.627C258.823 272.627 257.824 271.673 257.824 270.287ZM258.922 270.287C258.922 271.097 259.444 271.646 260.2 271.646C260.956 271.646 261.478 271.097 261.478 270.287C261.478 269.477 260.956 268.928 260.2 268.928C259.444 268.928 258.922 269.477 258.922 270.287ZM264.154 272.519L262.714 268.073H263.857L264.442 269.981C264.541 270.332 264.631 270.719 264.712 271.133C264.793 270.701 264.874 270.422 265.018 269.981L265.63 268.073H266.746L267.34 269.981C267.394 270.161 267.574 270.827 267.628 271.124C267.7 270.791 267.844 270.26 267.925 269.981L268.519 268.073H269.68L268.141 272.519H267.115L266.503 270.593C266.323 270.008 266.224 269.585 266.188 269.36C266.143 269.567 266.062 269.882 265.837 270.611L265.225 272.519H264.154ZM272.06 272.636C270.737 272.636 269.81 271.673 269.81 270.296C269.81 268.901 270.719 267.938 272.024 267.938C273.356 267.938 274.202 268.829 274.202 270.215V270.548L270.854 270.557C270.935 271.34 271.349 271.736 272.078 271.736C272.681 271.736 273.077 271.502 273.203 271.079H274.22C274.031 272.051 273.221 272.636 272.06 272.636ZM272.033 268.838C271.385 268.838 270.989 269.189 270.881 269.855H273.113C273.113 269.243 272.69 268.838 272.033 268.838ZM277.817 268.055V269.072H277.412C276.62 269.072 276.125 269.495 276.125 270.359V272.519H275.027V268.082H276.062L276.125 268.73C276.314 268.289 276.737 267.992 277.331 267.992C277.484 267.992 277.637 268.01 277.817 268.055ZM280.346 272.636C279.023 272.636 278.096 271.673 278.096 270.296C278.096 268.901 279.005 267.938 280.31 267.938C281.642 267.938 282.488 268.829 282.488 270.215V270.548L279.14 270.557C279.221 271.34 279.635 271.736 280.364 271.736C280.967 271.736 281.363 271.502 281.489 271.079H282.506C282.317 272.051 281.507 272.636 280.346 272.636ZM280.319 268.838C279.671 268.838 279.275 269.189 279.167 269.855H281.399C281.399 269.243 280.976 268.838 280.319 268.838ZM285.139 272.636C283.852 272.636 283.051 271.691 283.051 270.314C283.051 268.928 283.861 267.938 285.202 267.938C285.823 267.938 286.372 268.199 286.651 268.64V265.823H287.74V272.519H286.732L286.66 271.826C286.39 272.339 285.814 272.636 285.139 272.636ZM285.382 271.628C286.147 271.628 286.642 271.079 286.642 270.278C286.642 269.477 286.147 268.919 285.382 268.919C284.617 268.919 284.149 269.486 284.149 270.278C284.149 271.07 284.617 271.628 285.382 271.628ZM292.219 272.519H291.202V265.823H292.3V268.721C292.588 268.226 293.182 267.929 293.857 267.929C295.126 267.929 295.9 268.919 295.9 270.323C295.9 271.691 295.063 272.636 293.785 272.636C293.119 272.636 292.552 272.339 292.291 271.826L292.219 272.519ZM292.309 270.278C292.309 271.079 292.804 271.628 293.56 271.628C294.334 271.628 294.793 271.07 294.793 270.278C294.793 269.486 294.334 268.919 293.56 268.919C292.804 268.919 292.309 269.477 292.309 270.278ZM296.167 274.58V273.662H296.824C297.256 273.662 297.526 273.563 297.715 273.041L297.841 272.708L296.05 268.073H297.211L298.354 271.313L299.56 268.073H300.694L298.516 273.509C298.183 274.337 297.715 274.679 296.986 274.679C296.68 274.679 296.41 274.643 296.167 274.58ZM304.364 272.519H303.167L305.543 265.94H306.722L309.098 272.519H307.883L307.352 270.998H304.895L304.364 272.519ZM305.984 267.902L305.237 270.026H307.019L306.263 267.902C306.209 267.731 306.146 267.533 306.128 267.398C306.101 267.524 306.047 267.722 305.984 267.902ZM311.021 265.94V272.519H309.869V265.94H311.021Z" fill="#168C14"/>
<circle cx="155.5" cy="322.01" r="12.5" fill="#D9D9D9"/>
<path d="M155.571 321.646C156.982 321.646 158.336 322.203 159.334 323.194C160.015 323.871 160.493 324.713 160.727 325.625C160.864 326.156 160.932 326.422 160.732 326.678C160.532 326.933 160.209 326.933 159.562 326.933L151.58 326.933C150.933 326.933 150.61 326.933 150.41 326.678C150.21 326.422 150.278 326.156 150.415 325.625C150.649 324.713 151.127 323.871 151.808 323.194C152.806 322.203 154.16 321.647 155.571 321.646ZM155.571 315.772C156.869 315.772 157.921 316.824 157.921 318.122C157.921 319.42 156.869 320.472 155.571 320.472C154.273 320.472 153.222 319.42 153.221 318.122C153.221 316.824 154.273 315.772 155.571 315.772Z" fill="white"/>
<circle cx="395.5" cy="64.0098" r="12.5" fill="#D9D9D9"/>
<path d="M395.571 63.6465C396.982 63.6465 398.336 64.2029 399.334 65.1943C400.016 65.8711 400.493 66.7131 400.727 67.625C400.864 68.1563 400.933 68.4223 400.733 68.6777C400.533 68.933 400.209 68.9326 399.563 68.9326L391.58 68.9326C390.933 68.9326 390.609 68.9329 390.41 68.6777C390.21 68.4223 390.278 68.1562 390.414 67.625C390.649 66.7131 391.127 65.8711 391.808 65.1943C392.806 64.2031 394.159 63.6466 395.571 63.6465ZM395.571 57.7725C396.868 57.7725 397.92 58.8245 397.92 60.1221C397.92 61.4196 396.868 62.4717 395.571 62.4717C394.273 62.4715 393.221 61.4195 393.221 60.1221C393.221 58.8246 394.273 57.7726 395.571 57.7725Z" fill="white"/>
<circle cx="499.5" cy="123.01" r="12.5" fill="#F0F0F0"/>
<path d="M499.571 122.646C500.982 122.646 502.336 123.203 503.334 124.194C504.016 124.871 504.493 125.713 504.728 126.625C504.864 127.156 504.932 127.422 504.733 127.678C504.533 127.933 504.209 127.933 503.563 127.933L495.579 127.933C494.933 127.933 494.609 127.933 494.41 127.678C494.21 127.422 494.278 127.156 494.414 126.625C494.649 125.713 495.127 124.871 495.808 124.194C496.806 123.203 498.159 122.647 499.571 122.646ZM499.571 116.772C500.868 116.772 501.92 117.824 501.92 119.122C501.92 120.42 500.868 121.472 499.571 121.472C498.273 121.472 497.221 120.419 497.221 119.122C497.221 117.825 498.273 116.773 499.571 116.772Z" fill="white"/>
<circle cx="52.5" cy="224.01" r="12.5" fill="#F0F0F0"/>
<path d="M52.5707 223.646C53.9822 223.646 55.3364 224.203 56.3344 225.194C57.0157 225.871 57.4925 226.713 57.727 227.625C57.8636 228.156 57.9326 228.422 57.7328 228.678C57.5331 228.933 57.2088 228.933 56.5619 228.933L48.5795 228.933C47.933 228.933 47.6093 228.933 47.4096 228.678C47.2099 228.422 47.2779 228.156 47.4145 227.625C47.6489 226.713 48.1267 225.871 48.808 225.194C49.806 224.203 51.1595 223.647 52.5707 223.646ZM52.5707 217.772C53.8684 217.772 54.9203 218.824 54.9203 220.122C54.9202 221.42 53.8683 222.472 52.5707 222.472C51.2733 222.472 50.2212 221.42 50.2211 220.122C50.2211 218.825 51.2732 217.773 52.5707 217.772Z" fill="white"/>
</g>
<path d="M564 0H563.5V400H564H564.5V0H564Z" fill="#E5E7EB"/>
<defs>
<filter id="filter0_f_3005_2385" x="347" y="273.51" width="179" height="93" filterUnits="userSpaceOnUse" color-interpolation-filters="sRGB">
<feFlood flood-opacity="0" result="BackgroundImageFix"/>
<feBlend mode="normal" in="SourceGraphic" in2="BackgroundImageFix" result="shape"/>
<feGaussianBlur stdDeviation="7" result="effect1_foregroundBlur_3005_2385"/>
</filter>
<filter id="filter1_f_3005_2385" x="44" y="75.5098" width="179" height="93" filterUnits="userSpaceOnUse" color-interpolation-filters="sRGB">
<feFlood flood-opacity="0" result="BackgroundImageFix"/>
<feBlend mode="normal" in="SourceGraphic" in2="BackgroundImageFix" result="shape"/>
<feGaussianBlur stdDeviation="7" result="effect1_foregroundBlur_3005_2385"/>
</filter>
<linearGradient id="paint0_linear_3005_2385" x1="282.513" y1="303.994" x2="282.513" y2="328.456" gradientUnits="userSpaceOnUse">
<stop stop-color="#6C63AB"/>
<stop offset="1" stop-color="#006FFF"/>
</linearGradient>
<linearGradient id="paint1_linear_3005_2385" x1="282.499" y1="145.708" x2="282.499" y2="254.308" gradientUnits="userSpaceOnUse">
<stop stop-color="#6C63AB"/>
<stop offset="1" stop-color="#006FFF"/>
</linearGradient>
<linearGradient id="paint2_linear_3005_2385" x1="282.499" y1="155.008" x2="282.499" y2="245.008" gradientUnits="userSpaceOnUse">
<stop stop-color="#6C63AB"/>
<stop offset="1" stop-color="#006FFF"/>
</linearGradient>
<clipPath id="clip0_3005_2385">
<path d="M0 0H564V400H0V0Z" fill="white"/>
</clipPath>
</defs>
</svg>
