<svg width="567" height="400" viewBox="0 0 567 400" fill="none" xmlns="http://www.w3.org/2000/svg">
<g clip-path="url(#clip0_3005_2465)">
<mask id="path-1-inside-1_3005_2465" fill="white">
<path d="M0 0H566.5V400H0V0Z"/>
</mask>
<path d="M0 0H566.5V400H0V0Z" fill="white"/>
<path opacity="0.1" d="M284 34V380" stroke="#006FFF"/>
<rect x="400.728" y="48.5459" width="48" height="17" rx="8.5" fill="white"/>
<rect x="400.728" y="48.5459" width="48" height="17" rx="8.5" stroke="#D0F6D0"/>
<path d="M411.776 60.0459L410.336 55.5999H411.479L412.064 57.5079C412.163 57.8589 412.253 58.2459 412.334 58.6599C412.415 58.2279 412.496 57.9489 412.64 57.5079L413.252 55.5999H414.368L414.962 57.5079C415.016 57.6879 415.196 58.3539 415.25 58.6509C415.322 58.3179 415.466 57.7869 415.547 57.5079L416.141 55.5999H417.302L415.763 60.0459H414.737L414.125 58.1199C413.945 57.5349 413.846 57.1119 413.81 56.8869C413.765 57.0939 413.684 57.4089 413.459 58.1379L412.847 60.0459H411.776ZM418.461 54.7089C418.083 54.7089 417.786 54.4119 417.786 54.0429C417.786 53.6739 418.083 53.3859 418.461 53.3859C418.821 53.3859 419.118 53.6739 419.118 54.0429C419.118 54.4119 418.821 54.7089 418.461 54.7089ZM417.912 60.0459V55.5999H419.01V60.0459H417.912ZM421.603 60.0459H420.505V56.5179H419.65V55.5999H420.505V54.2139H421.603V55.5999H422.467V56.5179H421.603V60.0459ZM424.193 60.0459H423.095V53.3499H424.202V56.1759C424.481 55.7439 425.003 55.4649 425.642 55.4649C426.74 55.4649 427.316 56.1579 427.316 57.3099V60.0459H426.218V57.5709C426.218 56.8239 425.849 56.4639 425.291 56.4639C424.598 56.4639 424.193 56.9499 424.193 57.6159V60.0459ZM431.442 60.0459H430.245L432.621 53.4669H433.8L436.176 60.0459H434.961L434.43 58.5249H431.973L431.442 60.0459ZM433.062 55.4289L432.315 57.5529H434.097L433.341 55.4289C433.287 55.2579 433.224 55.0599 433.206 54.9249C433.179 55.0509 433.125 55.2489 433.062 55.4289ZM438.099 53.4669V60.0459H436.947V53.4669H438.099Z" fill="#168C14"/>
<rect x="119.728" y="48.5459" width="46" height="17" rx="8.5" fill="#F3F8FF"/>
<rect x="119.728" y="48.5459" width="46" height="17" rx="8.5" stroke="#C4BEBE"/>
<path d="M130.812 60.0459H129.795V53.3499H130.893V56.2479C131.181 55.7529 131.775 55.4559 132.45 55.4559C133.719 55.4559 134.493 56.4459 134.493 57.8499C134.493 59.2179 133.656 60.1629 132.378 60.1629C131.712 60.1629 131.145 59.8659 130.884 59.3529L130.812 60.0459ZM130.902 57.8049C130.902 58.6059 131.397 59.1549 132.153 59.1549C132.927 59.1549 133.386 58.5969 133.386 57.8049C133.386 57.0129 132.927 56.4459 132.153 56.4459C131.397 56.4459 130.902 57.0039 130.902 57.8049ZM137.302 60.1629C135.979 60.1629 135.052 59.1999 135.052 57.8229C135.052 56.4279 135.961 55.4649 137.266 55.4649C138.598 55.4649 139.444 56.3559 139.444 57.7419V58.0749L136.096 58.0839C136.177 58.8669 136.591 59.2629 137.32 59.2629C137.923 59.2629 138.319 59.0289 138.445 58.6059H139.462C139.273 59.5779 138.463 60.1629 137.302 60.1629ZM137.275 56.3649C136.627 56.3649 136.231 56.7159 136.123 57.3819H138.355C138.355 56.7699 137.932 56.3649 137.275 56.3649ZM139.828 55.5999H140.467V55.0599C140.467 53.8539 141.106 53.3499 142.069 53.3499C142.24 53.3499 142.447 53.3589 142.636 53.3949V54.3309H142.249C141.691 54.3309 141.556 54.6189 141.556 55.0599V55.5999H142.618V56.5179H141.556V60.0459H140.467V56.5179H139.828V55.5999ZM142.872 57.8139C142.872 56.4279 143.871 55.4739 145.248 55.4739C146.625 55.4739 147.624 56.4279 147.624 57.8139C147.624 59.1999 146.625 60.1539 145.248 60.1539C143.871 60.1539 142.872 59.1999 142.872 57.8139ZM143.97 57.8139C143.97 58.6239 144.492 59.1729 145.248 59.1729C146.004 59.1729 146.526 58.6239 146.526 57.8139C146.526 57.0039 146.004 56.4549 145.248 56.4549C144.492 56.4549 143.97 57.0039 143.97 57.8139ZM151.23 55.5819V56.5989H150.825C150.033 56.5989 149.538 57.0219 149.538 57.8859V60.0459H148.44V55.6089H149.475L149.538 56.2569C149.727 55.8159 150.15 55.5189 150.744 55.5189C150.897 55.5189 151.05 55.5369 151.23 55.5819ZM153.759 60.1629C152.436 60.1629 151.509 59.1999 151.509 57.8229C151.509 56.4279 152.418 55.4649 153.723 55.4649C155.055 55.4649 155.901 56.3559 155.901 57.7419V58.0749L152.553 58.0839C152.634 58.8669 153.048 59.2629 153.777 59.2629C154.38 59.2629 154.776 59.0289 154.902 58.6059H155.919C155.73 59.5779 154.92 60.1629 153.759 60.1629ZM153.732 56.3649C153.084 56.3649 152.688 56.7159 152.58 57.3819H154.812C154.812 56.7699 154.389 56.3649 153.732 56.3649Z" fill="#AFAFAF"/>
<circle cx="85.7275" cy="115.01" r="17.5" fill="#D9D9D9"/>
<path d="M85.8994 114.501C87.8771 114.501 89.7744 115.281 91.1729 116.669C92.1275 117.616 92.7965 118.795 93.125 120.071C93.3164 120.815 93.4117 121.187 93.1318 121.545C92.8519 121.902 92.3984 121.902 91.4922 121.902L80.3066 121.902C79.4004 121.902 78.9469 121.902 78.667 121.545C78.3871 121.187 78.4834 120.815 78.6748 120.071C79.0033 118.795 79.6723 117.616 80.627 116.669C82.0253 115.281 83.9218 114.501 85.8994 114.501ZM85.8994 106.277C87.7177 106.277 89.1924 107.751 89.1924 109.567C89.1922 111.384 87.7176 112.856 85.8994 112.856C84.0813 112.856 82.6076 111.384 82.6074 109.567C82.6074 107.751 84.0812 106.277 85.8994 106.277Z" fill="white"/>
<circle cx="142.728" cy="115.01" r="17.5" fill="#D9D9D9"/>
<path d="M142.95 114.501C144.928 114.501 146.825 115.281 148.224 116.669C149.178 117.616 149.847 118.795 150.176 120.071C150.367 120.815 150.463 121.187 150.183 121.545C149.903 121.902 149.449 121.902 148.543 121.902L137.357 121.902C136.451 121.902 135.998 121.902 135.718 121.545C135.438 121.187 135.534 120.815 135.726 120.071C136.054 118.795 136.723 117.616 137.678 116.669C139.076 115.281 140.973 114.501 142.95 114.501ZM142.95 106.277C144.769 106.277 146.242 107.751 146.242 109.567C146.242 111.384 144.768 112.856 142.95 112.856C141.132 112.856 139.658 111.384 139.658 109.567C139.658 107.751 141.132 106.277 142.95 106.277Z" fill="white"/>
<circle cx="199.728" cy="115.01" r="17.5" fill="#D9D9D9"/>
<path d="M200.001 114.501C201.979 114.501 203.876 115.281 205.274 116.669C206.229 117.616 206.898 118.795 207.226 120.071C207.417 120.815 207.514 121.187 207.234 121.545C206.954 121.903 206.5 121.902 205.594 121.902L194.409 121.902C193.502 121.902 193.049 121.902 192.769 121.545C192.489 121.187 192.584 120.815 192.776 120.071C193.104 118.795 193.773 117.616 194.728 116.669C196.126 115.281 198.024 114.501 200.001 114.501ZM200.001 106.277C201.819 106.278 203.293 107.751 203.293 109.567C203.293 111.384 201.819 112.856 200.001 112.856C198.183 112.856 196.709 111.384 196.708 109.567C196.708 107.751 198.183 106.277 200.001 106.277Z" fill="white"/>
<g opacity="0.8">
<circle cx="85.7275" cy="172.01" r="17.5" fill="#D9D9D9"/>
<path d="M85.8994 171.501C87.8771 171.501 89.7744 172.281 91.1729 173.669C92.1275 174.616 92.7965 175.795 93.125 177.071C93.3164 177.815 93.4117 178.187 93.1318 178.545C92.8519 178.902 92.3984 178.902 91.4922 178.902L80.3066 178.902C79.4004 178.902 78.9469 178.902 78.667 178.545C78.3871 178.187 78.4834 177.815 78.6748 177.071C79.0033 175.795 79.6723 174.616 80.627 173.669C82.0253 172.281 83.9218 171.501 85.8994 171.501ZM85.8994 163.277C87.7177 163.277 89.1924 164.751 89.1924 166.567C89.1922 168.384 87.7176 169.856 85.8994 169.856C84.0813 169.856 82.6076 168.384 82.6074 166.567C82.6074 164.751 84.0812 163.277 85.8994 163.277Z" fill="white"/>
</g>
<g opacity="0.6">
<circle cx="85.7275" cy="229.01" r="17.5" fill="#D9D9D9"/>
<path d="M85.8994 228.501C87.8771 228.501 89.7744 229.281 91.1729 230.669C92.1275 231.616 92.7965 232.795 93.125 234.071C93.3164 234.815 93.4117 235.187 93.1318 235.545C92.8519 235.902 92.3984 235.902 91.4922 235.902L80.3066 235.902C79.4004 235.902 78.9469 235.902 78.667 235.545C78.3871 235.187 78.4834 234.815 78.6748 234.071C79.0033 232.795 79.6723 231.616 80.627 230.669C82.0253 229.281 83.9218 228.501 85.8994 228.501ZM85.8994 220.277C87.7177 220.277 89.1924 221.751 89.1924 223.567C89.1922 225.384 87.7176 226.856 85.8994 226.856C84.0813 226.856 82.6076 225.384 82.6074 223.567C82.6074 221.751 84.0812 220.277 85.8994 220.277Z" fill="white"/>
</g>
<g opacity="0.4">
<circle cx="85.7275" cy="286.01" r="17.5" fill="#D9D9D9"/>
<path d="M85.8994 285.501C87.8771 285.501 89.7744 286.281 91.1729 287.669C92.1275 288.616 92.7965 289.795 93.125 291.071C93.3164 291.815 93.4117 292.187 93.1318 292.545C92.8519 292.902 92.3984 292.902 91.4922 292.902L80.3066 292.902C79.4004 292.902 78.9469 292.902 78.667 292.545C78.3871 292.187 78.4834 291.815 78.6748 291.071C79.0033 289.795 79.6723 288.616 80.627 287.669C82.0253 286.281 83.9218 285.501 85.8994 285.501ZM85.8994 277.277C87.7177 277.277 89.1924 278.751 89.1924 280.567C89.1922 282.384 87.7176 283.856 85.8994 283.856C84.0813 283.856 82.6076 282.384 82.6074 280.567C82.6074 278.751 84.0812 277.277 85.8994 277.277Z" fill="white"/>
</g>
<g opacity="0.2">
<circle cx="85.7275" cy="343.01" r="17.5" fill="#D9D9D9"/>
<path d="M85.8994 342.501C87.8771 342.501 89.7744 343.281 91.1729 344.669C92.1275 345.616 92.7965 346.795 93.125 348.071C93.3164 348.815 93.4117 349.187 93.1318 349.545C92.8519 349.902 92.3984 349.902 91.4922 349.902L80.3066 349.902C79.4004 349.902 78.9469 349.902 78.667 349.545C78.3871 349.187 78.4834 348.815 78.6748 348.071C79.0033 346.795 79.6723 345.616 80.627 344.669C82.0253 343.281 83.9218 342.501 85.8994 342.501ZM85.8994 334.277C87.7177 334.277 89.1924 335.751 89.1924 337.567C89.1922 339.384 87.7176 340.856 85.8994 340.856C84.0813 340.856 82.6076 339.384 82.6074 337.567C82.6074 335.751 84.0812 334.277 85.8994 334.277Z" fill="white"/>
</g>
<g opacity="0.1">
<circle cx="85.7275" cy="400.01" r="17.5" fill="#D9D9D9"/>
<path d="M85.8994 399.501C87.8771 399.501 89.7744 400.281 91.1729 401.669C92.1275 402.616 92.7965 403.795 93.125 405.071C93.3164 405.815 93.4117 406.187 93.1318 406.545C92.8519 406.902 92.3984 406.902 91.4922 406.902L80.3066 406.902C79.4004 406.902 78.9469 406.902 78.667 406.545C78.3871 406.187 78.4834 405.815 78.6748 405.071C79.0033 403.795 79.6723 402.616 80.627 401.669C82.0253 400.281 83.9218 399.501 85.8994 399.501ZM85.8994 391.277C87.7177 391.277 89.1924 392.751 89.1924 394.567C89.1922 396.384 87.7176 397.856 85.8994 397.856C84.0813 397.856 82.6076 396.384 82.6074 394.567C82.6074 392.751 84.0812 391.277 85.8994 391.277Z" fill="white"/>
</g>
<g opacity="0.8">
<circle cx="142.728" cy="172.01" r="17.5" fill="#D9D9D9"/>
<path d="M142.95 171.501C144.928 171.501 146.825 172.281 148.224 173.669C149.178 174.616 149.847 175.795 150.176 177.071C150.367 177.815 150.463 178.187 150.183 178.545C149.903 178.902 149.449 178.902 148.543 178.902L137.357 178.902C136.451 178.902 135.998 178.902 135.718 178.545C135.438 178.187 135.534 177.815 135.726 177.071C136.054 175.795 136.723 174.616 137.678 173.669C139.076 172.281 140.973 171.501 142.95 171.501ZM142.95 163.277C144.769 163.277 146.242 164.751 146.242 166.567C146.242 168.384 144.768 169.856 142.95 169.856C141.132 169.856 139.658 168.384 139.658 166.567C139.658 164.751 141.132 163.277 142.95 163.277Z" fill="white"/>
</g>
<g opacity="0.6">
<circle cx="142.728" cy="229.01" r="17.5" fill="#D9D9D9"/>
<path d="M142.95 228.501C144.928 228.501 146.825 229.281 148.224 230.669C149.178 231.616 149.847 232.795 150.176 234.071C150.367 234.815 150.463 235.187 150.183 235.545C149.903 235.902 149.449 235.902 148.543 235.902L137.357 235.902C136.451 235.902 135.998 235.902 135.718 235.545C135.438 235.187 135.534 234.815 135.726 234.071C136.054 232.795 136.723 231.616 137.678 230.669C139.076 229.281 140.973 228.501 142.95 228.501ZM142.95 220.277C144.769 220.277 146.242 221.751 146.242 223.567C146.242 225.384 144.768 226.856 142.95 226.856C141.132 226.856 139.658 225.384 139.658 223.567C139.658 221.751 141.132 220.277 142.95 220.277Z" fill="white"/>
</g>
<g opacity="0.8">
<circle cx="199.728" cy="172.01" r="17.5" fill="#D9D9D9"/>
<path d="M200.001 171.501C201.979 171.501 203.876 172.281 205.274 173.669C206.229 174.616 206.898 175.795 207.226 177.071C207.417 177.815 207.514 178.187 207.234 178.545C206.954 178.903 206.5 178.902 205.594 178.902L194.409 178.902C193.502 178.902 193.049 178.902 192.769 178.545C192.489 178.187 192.584 177.815 192.776 177.071C193.104 175.795 193.773 174.616 194.728 173.669C196.126 172.281 198.024 171.501 200.001 171.501ZM200.001 163.277C201.819 163.278 203.293 164.751 203.293 166.567C203.293 168.384 201.819 169.856 200.001 169.856C198.183 169.856 196.709 168.384 196.708 166.567C196.708 164.751 198.183 163.277 200.001 163.277Z" fill="white"/>
</g>
<path d="M322.228 264.51L322.228 346.51C322.228 349.823 324.914 352.51 328.228 352.51H475.728C479.041 352.51 481.728 349.823 481.728 346.51V286.458C481.728 283.144 479.041 280.458 475.728 280.458H430.799C427.486 280.458 424.799 277.772 424.799 274.458V228.685C424.799 225.372 427.486 222.685 430.799 222.685H475.728C479.041 222.685 481.728 219.999 481.728 216.685V211.162" stroke="#006FFF" stroke-opacity="0.3"/>
<g opacity="0.4">
<circle cx="199.728" cy="286.01" r="17.5" fill="#D9D9D9"/>
<path d="M200.001 285.501C201.979 285.501 203.876 286.281 205.274 287.669C206.229 288.616 206.898 289.795 207.226 291.071C207.417 291.815 207.514 292.187 207.234 292.545C206.954 292.903 206.5 292.902 205.594 292.902L194.409 292.902C193.502 292.902 193.049 292.902 192.769 292.545C192.489 292.187 192.584 291.815 192.776 291.071C193.104 289.795 193.773 288.616 194.728 287.669C196.126 286.281 198.024 285.501 200.001 285.501ZM200.001 277.277C201.819 277.278 203.293 278.751 203.293 280.567C203.293 282.384 201.819 283.856 200.001 283.856C198.183 283.856 196.709 282.384 196.708 280.567C196.708 278.751 198.183 277.277 200.001 277.277Z" fill="white"/>
</g>
<g opacity="0.4">
<circle cx="142.728" cy="286.01" r="17.5" fill="#D9D9D9"/>
<path d="M142.95 285.501C144.928 285.501 146.825 286.281 148.224 287.669C149.178 288.616 149.847 289.795 150.176 291.071C150.367 291.815 150.463 292.187 150.183 292.545C149.903 292.902 149.449 292.902 148.543 292.902L137.357 292.902C136.451 292.902 135.998 292.902 135.718 292.545C135.438 292.187 135.534 291.815 135.726 291.071C136.054 289.795 136.723 288.616 137.678 287.669C139.076 286.281 140.973 285.501 142.95 285.501ZM142.95 277.277C144.769 277.277 146.242 278.751 146.242 280.567C146.242 282.384 144.768 283.856 142.95 283.856C141.132 283.856 139.658 282.384 139.658 280.567C139.658 278.751 141.132 277.277 142.95 277.277Z" fill="white"/>
</g>
<g opacity="0.2">
<circle cx="199.728" cy="343.01" r="17.5" fill="#D9D9D9"/>
<path d="M200.001 342.501C201.979 342.501 203.876 343.281 205.274 344.669C206.229 345.616 206.898 346.795 207.226 348.071C207.417 348.815 207.514 349.187 207.234 349.545C206.954 349.903 206.5 349.902 205.594 349.902L194.409 349.902C193.502 349.902 193.049 349.902 192.769 349.545C192.489 349.187 192.584 348.815 192.776 348.071C193.104 346.795 193.773 345.616 194.728 344.669C196.126 343.281 198.024 342.501 200.001 342.501ZM200.001 334.277C201.819 334.278 203.293 335.751 203.293 337.567C203.293 339.384 201.819 340.856 200.001 340.856C198.183 340.856 196.709 339.384 196.708 337.567C196.708 335.751 198.183 334.277 200.001 334.277Z" fill="white"/>
</g>
<g opacity="0.2">
<circle cx="142.728" cy="343.01" r="17.5" fill="#D9D9D9"/>
<path d="M142.95 342.501C144.928 342.501 146.825 343.281 148.224 344.669C149.178 345.616 149.847 346.795 150.176 348.071C150.367 348.815 150.463 349.187 150.183 349.545C149.903 349.902 149.449 349.902 148.543 349.902L137.357 349.902C136.451 349.902 135.998 349.902 135.718 349.545C135.438 349.187 135.534 348.815 135.726 348.071C136.054 346.795 136.723 345.616 137.678 344.669C139.076 343.281 140.973 342.501 142.95 342.501ZM142.95 334.277C144.769 334.277 146.242 335.751 146.242 337.567C146.242 339.384 144.768 340.856 142.95 340.856C141.132 340.856 139.658 339.384 139.658 337.567C139.658 335.751 141.132 334.277 142.95 334.277Z" fill="white"/>
</g>
<g opacity="0.6">
<circle cx="199.728" cy="229.01" r="17.5" fill="#D9D9D9"/>
<path d="M200.001 228.501C201.979 228.501 203.876 229.281 205.274 230.669C206.229 231.616 206.898 232.795 207.226 234.071C207.417 234.815 207.514 235.187 207.234 235.545C206.954 235.903 206.5 235.902 205.594 235.902L194.409 235.902C193.502 235.902 193.049 235.902 192.769 235.545C192.489 235.187 192.584 234.815 192.776 234.071C193.104 232.795 193.773 231.616 194.728 230.669C196.126 229.281 198.024 228.501 200.001 228.501ZM200.001 220.277C201.819 220.278 203.293 221.751 203.293 223.567C203.293 225.384 201.819 226.856 200.001 226.856C198.183 226.856 196.709 225.384 196.708 223.567C196.708 221.751 198.183 220.277 200.001 220.277Z" fill="white"/>
</g>
<g opacity="0.1">
<circle cx="199.728" cy="400.01" r="17.5" fill="#D9D9D9"/>
<path d="M200.001 399.501C201.979 399.501 203.876 400.281 205.274 401.669C206.229 402.616 206.898 403.795 207.226 405.071C207.417 405.815 207.514 406.187 207.234 406.545C206.954 406.903 206.5 406.902 205.594 406.902L194.409 406.902C193.502 406.902 193.049 406.902 192.769 406.545C192.489 406.187 192.584 405.815 192.776 405.071C193.104 403.795 193.773 402.616 194.728 401.669C196.126 400.281 198.024 399.501 200.001 399.501ZM200.001 391.277C201.819 391.278 203.293 392.751 203.293 394.567C203.293 396.384 201.819 397.856 200.001 397.856C198.183 397.856 196.709 396.384 196.708 394.567C196.708 392.751 198.183 391.277 200.001 391.277Z" fill="white"/>
</g>
<g opacity="0.1">
<circle cx="142.728" cy="400.01" r="17.5" fill="#D9D9D9"/>
<path d="M142.95 399.501C144.928 399.501 146.825 400.281 148.224 401.669C149.178 402.616 149.847 403.795 150.176 405.071C150.367 405.815 150.463 406.187 150.183 406.545C149.903 406.902 149.449 406.902 148.543 406.902L137.357 406.902C136.451 406.902 135.998 406.902 135.718 406.545C135.438 406.187 135.534 405.815 135.726 405.071C136.054 403.795 136.723 402.616 137.678 401.669C139.076 400.281 140.973 399.501 142.95 399.501ZM142.95 391.277C144.769 391.277 146.242 392.751 146.242 394.567C146.242 396.384 144.768 397.856 142.95 397.856C141.132 397.856 139.658 396.384 139.658 394.567C139.658 392.751 141.132 391.277 142.95 391.277Z" fill="white"/>
</g>
<circle cx="367.728" cy="138.01" r="17.5" fill="#D9D9D9"/>
<path d="M368.15 137.501C370.128 137.501 372.025 138.281 373.424 139.669C374.378 140.616 375.048 141.795 375.376 143.071C375.567 143.815 375.663 144.187 375.383 144.545C375.103 144.902 374.65 144.902 373.743 144.902L362.558 144.902C361.651 144.902 361.198 144.902 360.918 144.545C360.638 144.187 360.734 143.815 360.926 143.071C361.254 141.795 361.923 140.616 362.878 139.669C364.276 138.281 366.173 137.501 368.15 137.501ZM368.15 129.277C369.969 129.277 371.442 130.751 371.442 132.567C371.442 134.384 369.969 135.856 368.15 135.856C366.332 135.856 364.859 134.384 364.858 132.567C364.858 130.751 366.332 129.277 368.15 129.277Z" fill="white"/>
<circle cx="424.728" cy="138.01" r="17.5" fill="#F3F8FF"/>
<circle cx="424.728" cy="138.01" r="18" stroke="#006FFF" stroke-opacity="0.3"/>
<path d="M425.202 137.501C427.179 137.501 429.076 138.281 430.474 139.669C431.429 140.616 432.098 141.795 432.426 143.071C432.618 143.815 432.714 144.187 432.434 144.545C432.154 144.903 431.701 144.902 430.794 144.902L419.609 144.902C418.703 144.902 418.249 144.902 417.969 144.545C417.689 144.187 417.785 143.815 417.976 143.071C418.304 141.795 418.974 140.616 419.928 139.669C421.327 138.281 423.224 137.501 425.202 137.501ZM425.202 129.277C427.02 129.278 428.494 130.751 428.494 132.567C428.493 134.384 427.02 135.856 425.202 135.856C423.383 135.856 421.909 134.384 421.909 132.567C421.909 130.751 423.383 129.277 425.202 129.277Z" fill="white"/>
<circle cx="481.728" cy="138.01" r="17.5" fill="#F3F8FF"/>
<circle cx="481.728" cy="138.01" r="18" stroke="#006FFF" stroke-opacity="0.3"/>
<path d="M482.252 137.501C484.229 137.501 486.127 138.281 487.525 139.669C488.48 140.616 489.149 141.795 489.477 143.071C489.669 143.815 489.764 144.187 489.484 144.545C489.204 144.902 488.751 144.902 487.844 144.902L476.659 144.902C475.753 144.902 475.299 144.903 475.019 144.545C474.739 144.187 474.836 143.815 475.027 143.071C475.355 141.795 476.024 140.616 476.979 139.669C478.377 138.281 480.274 137.501 482.252 137.501ZM482.252 129.277C484.07 129.277 485.545 130.751 485.545 132.567C485.544 134.384 484.07 135.856 482.252 135.856C480.434 135.856 478.96 134.384 478.96 132.567C478.96 130.751 480.433 129.278 482.252 129.277Z" fill="white"/>
<circle cx="367.728" cy="195.01" r="17.5" fill="#D9D9D9"/>
<path d="M368.15 194.501C370.128 194.501 372.025 195.281 373.424 196.669C374.378 197.616 375.048 198.795 375.376 200.071C375.567 200.815 375.663 201.187 375.383 201.545C375.103 201.902 374.65 201.902 373.743 201.902L362.558 201.902C361.651 201.902 361.198 201.902 360.918 201.545C360.638 201.187 360.734 200.815 360.926 200.071C361.254 198.795 361.923 197.616 362.878 196.669C364.276 195.281 366.173 194.501 368.15 194.501ZM368.15 186.277C369.969 186.277 371.442 187.751 371.442 189.567C371.442 191.384 369.969 192.856 368.15 192.856C366.332 192.856 364.859 191.384 364.858 189.567C364.858 187.751 366.332 186.277 368.15 186.277Z" fill="white"/>
<circle cx="367.728" cy="252.01" r="17.5" fill="#D9D9D9"/>
<path d="M368.15 251.501C370.128 251.501 372.025 252.281 373.424 253.669C374.378 254.616 375.048 255.795 375.376 257.071C375.567 257.815 375.663 258.187 375.383 258.545C375.103 258.902 374.65 258.902 373.743 258.902L362.558 258.902C361.651 258.902 361.198 258.902 360.918 258.545C360.638 258.187 360.734 257.815 360.926 257.071C361.254 255.795 361.923 254.616 362.878 253.669C364.276 252.281 366.173 251.501 368.15 251.501ZM368.15 243.277C369.969 243.277 371.442 244.751 371.442 246.567C371.442 248.384 369.969 249.856 368.15 249.856C366.332 249.856 364.859 248.384 364.858 246.567C364.858 244.751 366.332 243.277 368.15 243.277Z" fill="white"/>
<circle cx="367.728" cy="309.01" r="17.5" fill="#F3F8FF"/>
<circle cx="367.728" cy="309.01" r="18" stroke="#006FFF" stroke-opacity="0.3"/>
<path d="M368.15 308.501C370.128 308.501 372.025 309.281 373.424 310.669C374.378 311.616 375.048 312.795 375.376 314.071C375.567 314.815 375.663 315.187 375.383 315.545C375.103 315.902 374.65 315.902 373.743 315.902L362.558 315.902C361.651 315.902 361.198 315.902 360.918 315.545C360.638 315.187 360.734 314.815 360.926 314.071C361.254 312.795 361.923 311.616 362.878 310.669C364.276 309.281 366.173 308.501 368.15 308.501ZM368.15 300.277C369.969 300.277 371.442 301.751 371.442 303.567C371.442 305.384 369.969 306.856 368.15 306.856C366.332 306.856 364.859 305.384 364.858 303.567C364.858 301.751 366.332 300.277 368.15 300.277Z" fill="white"/>
<circle cx="424.728" cy="195.01" r="17.5" fill="#F3F8FF"/>
<circle cx="424.728" cy="195.01" r="18" stroke="#006FFF" stroke-opacity="0.3"/>
<path d="M425.202 194.501C427.179 194.501 429.076 195.281 430.474 196.669C431.429 197.616 432.098 198.795 432.426 200.071C432.618 200.815 432.714 201.187 432.434 201.545C432.154 201.903 431.701 201.902 430.794 201.902L419.609 201.902C418.703 201.902 418.249 201.902 417.969 201.545C417.689 201.187 417.785 200.815 417.976 200.071C418.304 198.795 418.974 197.616 419.928 196.669C421.327 195.281 423.224 194.501 425.202 194.501ZM425.202 186.277C427.02 186.278 428.494 187.751 428.494 189.567C428.493 191.384 427.02 192.856 425.202 192.856C423.383 192.856 421.909 191.384 421.909 189.567C421.909 187.751 423.383 186.277 425.202 186.277Z" fill="white"/>
<circle cx="424.728" cy="252.01" r="17.5" fill="#F3F8FF"/>
<circle cx="424.728" cy="252.01" r="18" stroke="#006FFF" stroke-opacity="0.3"/>
<path d="M425.202 251.501C427.179 251.501 429.076 252.281 430.474 253.669C431.429 254.616 432.098 255.795 432.426 257.071C432.618 257.815 432.714 258.187 432.434 258.545C432.154 258.903 431.701 258.902 430.794 258.902L419.609 258.902C418.703 258.902 418.249 258.902 417.969 258.545C417.689 258.187 417.785 257.815 417.976 257.071C418.304 255.795 418.974 254.616 419.928 253.669C421.327 252.281 423.224 251.501 425.202 251.501ZM425.202 243.277C427.02 243.278 428.494 244.751 428.494 246.567C428.493 248.384 427.02 249.856 425.202 249.856C423.383 249.856 421.909 248.384 421.909 246.567C421.909 244.751 423.383 243.277 425.202 243.277Z" fill="url(#paint0_linear_3005_2465)"/>
<circle cx="481.728" cy="195.01" r="17.5" fill="#F3F8FF"/>
<circle cx="481.728" cy="195.01" r="18" stroke="#006FFF" stroke-opacity="0.3"/>
<path d="M482.252 194.501C484.229 194.501 486.127 195.281 487.525 196.669C488.48 197.616 489.149 198.795 489.477 200.071C489.669 200.815 489.764 201.187 489.484 201.545C489.204 201.902 488.751 201.902 487.844 201.902L476.659 201.902C475.753 201.902 475.299 201.903 475.019 201.545C474.739 201.187 474.836 200.815 475.027 200.071C475.355 198.795 476.024 197.616 476.979 196.669C478.377 195.281 480.274 194.501 482.252 194.501ZM482.252 186.277C484.07 186.277 485.545 187.751 485.545 189.567C485.544 191.384 484.07 192.856 482.252 192.856C480.434 192.856 478.96 191.384 478.96 189.567C478.96 187.751 480.433 186.278 482.252 186.277Z" fill="url(#paint1_linear_3005_2465)"/>
<circle cx="481.728" cy="252.01" r="17.5" fill="#F3F8FF"/>
<circle cx="481.728" cy="252.01" r="18" stroke="#006FFF" stroke-opacity="0.3"/>
<path d="M482.252 251.501C484.229 251.501 486.127 252.281 487.525 253.669C488.48 254.616 489.149 255.795 489.477 257.071C489.669 257.815 489.764 258.187 489.484 258.545C489.204 258.902 488.751 258.902 487.844 258.902L476.659 258.902C475.753 258.902 475.299 258.903 475.019 258.545C474.739 258.187 474.836 257.815 475.027 257.071C475.355 255.795 476.024 254.616 476.979 253.669C478.377 252.281 480.274 251.501 482.252 251.501ZM482.252 243.277C484.07 243.277 485.545 244.751 485.545 246.567C485.544 248.384 484.07 249.856 482.252 249.856C480.434 249.856 478.96 248.384 478.96 246.567C478.96 244.751 480.433 243.278 482.252 243.277Z" fill="white"/>
<circle cx="481.728" cy="309.01" r="17.5" fill="#F3F8FF"/>
<circle cx="481.728" cy="309.01" r="18" stroke="#006FFF" stroke-opacity="0.3"/>
<path d="M482.252 308.501C484.229 308.501 486.127 309.281 487.525 310.669C488.48 311.616 489.149 312.795 489.477 314.071C489.669 314.815 489.764 315.187 489.484 315.545C489.204 315.902 488.751 315.902 487.844 315.902L476.659 315.902C475.753 315.902 475.299 315.903 475.019 315.545C474.739 315.187 474.836 314.815 475.027 314.071C475.355 312.795 476.024 311.616 476.979 310.669C478.377 309.281 480.274 308.501 482.252 308.501ZM482.252 300.277C484.07 300.277 485.545 301.751 485.545 303.567C485.544 305.384 484.07 306.856 482.252 306.856C480.434 306.856 478.96 305.384 478.96 303.567C478.96 301.751 480.433 300.278 482.252 300.277Z" fill="url(#paint2_linear_3005_2465)"/>
<circle cx="424.728" cy="309.01" r="17.5" fill="#F3F8FF"/>
<circle cx="424.728" cy="309.01" r="18" stroke="#006FFF" stroke-opacity="0.3"/>
<path d="M425.202 308.501C427.179 308.501 429.076 309.281 430.474 310.669C431.429 311.616 432.098 312.795 432.426 314.071C432.618 314.815 432.714 315.187 432.434 315.545C432.154 315.903 431.701 315.902 430.794 315.902L419.609 315.902C418.703 315.902 418.249 315.902 417.969 315.545C417.689 315.187 417.785 314.815 417.976 314.071C418.304 312.795 418.974 311.616 419.928 310.669C421.327 309.281 423.224 308.501 425.202 308.501ZM425.202 300.277C427.02 300.278 428.494 301.751 428.494 303.567C428.493 305.384 427.02 306.856 425.202 306.856C423.383 306.856 421.909 305.384 421.909 303.567C421.909 301.751 423.383 300.277 425.202 300.277Z" fill="white"/>
<g filter="url(#filter0_f_3005_2465)">
<path d="M264.228 248.01C264.228 234.479 275.197 223.51 288.728 223.51H354.728C368.259 223.51 379.228 234.479 379.228 248.01V248.01C379.228 261.541 368.259 272.51 354.728 272.51H288.728C275.197 272.51 264.228 261.541 264.228 248.01V248.01Z" fill="#00B3FF"/>
</g>
<path d="M259.228 97.5098C259.228 90.8823 264.6 85.5098 271.228 85.5098H373.228C379.855 85.5098 385.228 90.8823 385.228 97.5098V257.51C385.228 264.137 379.855 269.51 373.228 269.51H271.228C264.6 269.51 259.228 264.137 259.228 257.51V97.5098Z" fill="#F3F8FF"/>
<path d="M373.228 85.0098C380.131 85.0098 385.728 90.6062 385.728 97.5098V257.51C385.728 264.413 380.131 270.01 373.228 270.01H271.228C264.324 270.01 258.728 264.413 258.728 257.51V97.5098C258.728 90.6062 264.324 85.0098 271.228 85.0098H373.228Z" stroke="#006FFF" stroke-opacity="0.3"/>
<path opacity="0.6" d="M292.734 189.51H291.816L294.192 183.003H295.173L297.558 189.51H296.631L296.046 187.89H293.31L292.734 189.51ZM294.57 184.407L293.58 187.125H295.785L294.786 184.407C294.741 184.281 294.696 184.128 294.678 184.029C294.66 184.119 294.615 184.272 294.57 184.407ZM299.251 183.003V189.51H298.369V183.003H299.251ZM304.004 183.003V188.691H306.866V189.51H303.122V183.003H304.004ZM308.04 184.065C307.734 184.065 307.482 183.813 307.482 183.507C307.482 183.192 307.734 182.949 308.04 182.949C308.346 182.949 308.598 183.192 308.598 183.507C308.598 183.813 308.346 184.065 308.04 184.065ZM307.626 189.51V185.109H308.472V189.51H307.626ZM310.879 189.51L309.106 185.109H310.006L310.969 187.566C311.122 187.98 311.248 188.349 311.32 188.619C311.392 188.331 311.536 187.953 311.689 187.566L312.67 185.109H313.552L311.716 189.51H310.879ZM315.868 189.618C314.572 189.618 313.681 188.682 313.681 187.314C313.681 185.937 314.554 184.983 315.832 184.983C317.083 184.983 317.902 185.847 317.902 187.152V187.467L314.5 187.476C314.563 188.403 315.049 188.916 315.886 188.916C316.543 188.916 316.975 188.646 317.119 188.142H317.911C317.695 189.087 316.957 189.618 315.868 189.618ZM315.832 185.694C315.094 185.694 314.626 186.135 314.518 186.909H317.056C317.056 186.18 316.579 185.694 315.832 185.694ZM320.714 183.813V183.003H325.511V183.813H323.558V189.51H322.676V183.813H320.714ZM328.183 185.073V185.847H327.805C327.004 185.847 326.509 186.333 326.509 187.179V189.51H325.663V185.118H326.455L326.509 185.784C326.689 185.325 327.13 185.019 327.733 185.019C327.886 185.019 328.012 185.037 328.183 185.073ZM330.034 189.618C329.089 189.618 328.531 189.087 328.531 188.286C328.531 187.476 329.134 186.972 330.169 186.891L331.555 186.783V186.657C331.555 185.919 331.114 185.658 330.52 185.658C329.809 185.658 329.404 185.973 329.404 186.504H328.666C328.666 185.586 329.422 184.983 330.556 184.983C331.645 184.983 332.383 185.559 332.383 186.747V189.51H331.663L331.573 188.799C331.348 189.303 330.745 189.618 330.034 189.618ZM330.277 188.961C331.078 188.961 331.564 188.439 331.564 187.611V187.377L330.439 187.467C329.692 187.539 329.386 187.827 329.386 188.259C329.386 188.727 329.728 188.961 330.277 188.961ZM334.347 189.51H333.501V185.109H334.266L334.356 185.784C334.635 185.28 335.193 184.983 335.814 184.983C336.975 184.983 337.506 185.694 337.506 186.819V189.51H336.66V187.008C336.66 186.117 336.246 185.757 335.598 185.757C334.806 185.757 334.347 186.324 334.347 187.179V189.51ZM338.211 188.232H339.021C339.021 188.682 339.363 188.952 339.921 188.952C340.515 188.952 340.857 188.709 340.857 188.304C340.857 188.007 340.713 187.827 340.254 187.71L339.48 187.53C338.697 187.341 338.328 186.954 338.328 186.306C338.328 185.496 339.012 184.983 339.984 184.983C340.947 184.983 341.577 185.523 341.595 186.36H340.785C340.767 185.919 340.47 185.64 339.957 185.64C339.426 185.64 339.129 185.874 339.129 186.279C339.129 186.576 339.345 186.774 339.777 186.882L340.551 187.071C341.298 187.251 341.667 187.593 341.667 188.25C341.667 189.087 340.947 189.618 339.903 189.618C338.868 189.618 338.211 189.069 338.211 188.232ZM342.083 185.109H342.731V184.407C342.731 183.327 343.325 182.886 344.126 182.886C344.288 182.886 344.477 182.895 344.648 182.922V183.651H344.27C343.721 183.651 343.577 183.93 343.577 184.407V185.109H344.621V185.82H343.577V189.51H342.731V185.82H342.083V185.109ZM347.12 189.618C345.824 189.618 344.933 188.682 344.933 187.314C344.933 185.937 345.806 184.983 347.084 184.983C348.335 184.983 349.154 185.847 349.154 187.152V187.467L345.752 187.476C345.815 188.403 346.301 188.916 347.138 188.916C347.795 188.916 348.227 188.646 348.371 188.142H349.163C348.947 189.087 348.209 189.618 347.12 189.618ZM347.084 185.694C346.346 185.694 345.878 186.135 345.77 186.909H348.308C348.308 186.18 347.831 185.694 347.084 185.694ZM352.565 185.073V185.847H352.187C351.386 185.847 350.891 186.333 350.891 187.179V189.51H350.045V185.118H350.837L350.891 185.784C351.071 185.325 351.512 185.019 352.115 185.019C352.268 185.019 352.394 185.037 352.565 185.073Z" fill="#006FFF"/>
<circle cx="358.228" cy="97.5098" r="2" fill="#58DD56"/>
<path d="M362.593 95.0873V99.8273H364.978V100.51H361.858V95.0873H362.593ZM366.466 95.0873V100.51H365.731V95.0873H366.466ZM369.193 100.51L367.131 95.0873H367.918L369.238 98.5523C369.358 98.8598 369.463 99.1673 369.576 99.5723C369.703 99.1448 369.831 98.7848 369.921 98.5448L371.233 95.0873H371.998L369.958 100.51H369.193ZM375.965 100.51H372.658V95.0873H375.965V95.7623H373.393V97.4573H375.71V98.1098H373.393V99.8273H375.965V100.51Z" fill="#58DD56"/>
<circle cx="301.686" cy="239.968" r="13.4583" fill="#FF7A59"/>
<rect x="298.18" y="235.683" width="11.3333" height="1.41667" rx="0.708333" transform="rotate(45 298.18 235.683)" fill="white"/>
<rect x="306.194" y="236.685" width="11.3333" height="1.41667" rx="0.708333" transform="rotate(135 306.194 236.685)" fill="white"/>
<circle cx="342.769" cy="239.968" r="13.4583" fill="#58DD56"/>
<path d="M337.932 235.174L338.537 234.569C338.926 234.181 339.567 234.221 339.905 234.655L341.181 236.296C341.464 236.66 341.432 237.178 341.106 237.504L340.947 237.663C340.59 238.02 340.59 238.598 340.947 238.955L343.782 241.79C344.139 242.147 344.718 242.147 345.075 241.79L345.234 241.631C345.56 241.305 346.078 241.273 346.441 241.556L348.083 242.833C348.517 243.17 348.557 243.812 348.168 244.201L347.563 244.806C346.878 245.491 345.938 245.849 345.034 245.499C343.683 244.977 341.792 243.928 340.301 242.437C338.81 240.945 337.76 239.054 337.239 237.704C336.889 236.8 337.246 235.86 337.932 235.174Z" fill="white"/>
<path opacity="0.2" d="M279.52 201.088C277.872 201.088 276.776 199.904 276.776 198.112C276.776 196.328 277.904 195.12 279.56 195.12C280.864 195.12 281.864 195.896 282.08 197.08H281.24C281.024 196.328 280.376 195.872 279.536 195.872C278.368 195.872 277.6 196.752 277.6 198.104C277.6 199.456 278.368 200.336 279.536 200.336C280.384 200.336 281.056 199.88 281.272 199.168H282.104C281.856 200.32 280.824 201.088 279.52 201.088ZM283.955 201.096C283.115 201.096 282.619 200.624 282.619 199.912C282.619 199.192 283.155 198.744 284.075 198.672L285.307 198.576V198.464C285.307 197.808 284.915 197.576 284.387 197.576C283.755 197.576 283.395 197.856 283.395 198.328H282.739C282.739 197.512 283.411 196.976 284.419 196.976C285.387 196.976 286.043 197.488 286.043 198.544V201H285.403L285.323 200.368C285.123 200.816 284.587 201.096 283.955 201.096ZM284.171 200.512C284.883 200.512 285.315 200.048 285.315 199.312V199.104L284.315 199.184C283.651 199.248 283.379 199.504 283.379 199.888C283.379 200.304 283.683 200.512 284.171 200.512ZM287.804 201H287.052V195.112H287.804V201ZM289.631 201H288.879V195.112H289.631V201ZM291.058 196.16C290.786 196.16 290.562 195.936 290.562 195.664C290.562 195.384 290.786 195.168 291.058 195.168C291.33 195.168 291.554 195.384 291.554 195.664C291.554 195.936 291.33 196.16 291.058 196.16ZM290.69 201V197.088H291.442V201H290.69ZM293.238 201H292.486V197.088H293.166L293.246 197.688C293.494 197.24 293.99 196.976 294.542 196.976C295.574 196.976 296.046 197.608 296.046 198.608V201H295.294V198.776C295.294 197.984 294.926 197.664 294.35 197.664C293.646 197.664 293.238 198.168 293.238 198.928V201ZM296.791 198.944C296.791 197.84 297.503 196.976 298.639 196.976C299.271 196.976 299.759 197.264 300.007 197.752L300.063 197.088H300.735V200.84C300.735 202.072 299.975 202.856 298.775 202.856C297.711 202.856 296.983 202.256 296.839 201.264H297.591C297.687 201.84 298.119 202.176 298.775 202.176C299.511 202.176 299.991 201.696 299.991 200.952V200.168C299.735 200.624 299.223 200.896 298.607 200.896C297.495 200.896 296.791 200.04 296.791 198.944ZM297.543 198.928C297.543 199.664 297.999 200.24 298.735 200.24C299.495 200.24 299.959 199.696 299.959 198.928C299.959 198.176 299.511 197.632 298.743 197.632C297.991 197.632 297.543 198.208 297.543 198.928ZM304.28 201H303.464L305.576 195.216H306.448L308.568 201H307.744L307.224 199.56H304.792L304.28 201ZM305.912 196.464L305.032 198.88H306.992L306.104 196.464C306.064 196.352 306.024 196.216 306.008 196.128C305.992 196.208 305.952 196.344 305.912 196.464ZM308.843 198.944C308.843 197.84 309.555 196.976 310.691 196.976C311.323 196.976 311.811 197.264 312.059 197.752L312.115 197.088H312.787V200.84C312.787 202.072 312.027 202.856 310.827 202.856C309.763 202.856 309.035 202.256 308.891 201.264H309.643C309.739 201.84 310.171 202.176 310.827 202.176C311.563 202.176 312.043 201.696 312.043 200.952V200.168C311.787 200.624 311.275 200.896 310.659 200.896C309.547 200.896 308.843 200.04 308.843 198.944ZM309.595 198.928C309.595 199.664 310.051 200.24 310.787 200.24C311.547 200.24 312.011 199.696 312.011 198.928C312.011 198.176 311.563 197.632 310.795 197.632C310.043 197.632 309.595 198.208 309.595 198.928ZM315.512 201.096C314.36 201.096 313.568 200.264 313.568 199.048C313.568 197.824 314.344 196.976 315.48 196.976C316.592 196.976 317.32 197.744 317.32 198.904V199.184L314.296 199.192C314.352 200.016 314.784 200.472 315.528 200.472C316.112 200.472 316.496 200.232 316.624 199.784H317.328C317.136 200.624 316.48 201.096 315.512 201.096ZM315.48 197.608C314.824 197.608 314.408 198 314.312 198.688H316.568C316.568 198.04 316.144 197.608 315.48 197.608ZM318.864 201H318.112V197.088H318.792L318.872 197.688C319.12 197.24 319.616 196.976 320.168 196.976C321.2 196.976 321.672 197.608 321.672 198.608V201H320.92V198.776C320.92 197.984 320.552 197.664 319.976 197.664C319.272 197.664 318.864 198.168 318.864 198.928V201ZM323.77 201H323.018V197.72H322.25V197.088H323.018V195.864H323.77V197.088H324.538V197.72H323.77V201ZM326.92 199.392V199.104H327.68V199.392C327.68 199.96 327.992 200.368 328.632 200.368C329.288 200.368 329.576 199.968 329.576 199.368V195.216H330.36V199.4C330.36 200.44 329.664 201.096 328.632 201.096C327.528 201.096 326.92 200.392 326.92 199.392ZM331.234 199.04C331.234 197.832 332.098 196.984 333.274 196.984C334.442 196.984 335.306 197.832 335.306 199.04C335.306 200.248 334.442 201.096 333.274 201.096C332.098 201.096 331.234 200.248 331.234 199.04ZM331.994 199.04C331.994 199.856 332.514 200.424 333.274 200.424C334.026 200.424 334.554 199.856 334.554 199.04C334.554 198.224 334.026 197.656 333.274 197.656C332.514 197.656 331.994 198.224 331.994 199.04ZM336.843 200.992H336.091V195.112H336.843V197.688C337.091 197.264 337.563 196.976 338.171 196.976C339.171 196.976 339.651 197.608 339.651 198.608V201H338.899V198.776C338.899 197.984 338.523 197.664 337.963 197.664C337.235 197.664 336.843 198.192 336.843 198.864V200.992ZM341.396 201H340.644V197.088H341.324L341.404 197.688C341.652 197.24 342.148 196.976 342.7 196.976C343.732 196.976 344.204 197.608 344.204 198.608V201H343.452V198.776C343.452 197.984 343.084 197.664 342.508 197.664C341.804 197.664 341.396 198.168 341.396 198.928V201ZM346.953 199.392V199.104H347.713V199.392C347.713 199.96 348.025 200.368 348.665 200.368C349.321 200.368 349.609 199.968 349.609 199.368V195.216H350.393V199.4C350.393 200.44 349.697 201.096 348.665 201.096C347.561 201.096 346.953 200.392 346.953 199.392ZM351.268 199.04C351.268 197.832 352.132 196.984 353.308 196.984C354.476 196.984 355.34 197.832 355.34 199.04C355.34 200.248 354.476 201.096 353.308 201.096C352.132 201.096 351.268 200.248 351.268 199.04ZM352.028 199.04C352.028 199.856 352.548 200.424 353.308 200.424C354.06 200.424 354.588 199.856 354.588 199.04C354.588 198.224 354.06 197.656 353.308 197.656C352.548 197.656 352.028 198.224 352.028 199.04ZM356.876 201H356.124V197.088H356.804L356.884 197.688C357.132 197.24 357.628 196.976 358.18 196.976C359.212 196.976 359.684 197.608 359.684 198.608V201H358.932V198.776C358.932 197.984 358.564 197.664 357.988 197.664C357.284 197.664 356.876 198.168 356.876 198.928V201ZM362.366 201.096C361.214 201.096 360.422 200.264 360.422 199.048C360.422 197.824 361.198 196.976 362.334 196.976C363.446 196.976 364.174 197.744 364.174 198.904V199.184L361.15 199.192C361.206 200.016 361.638 200.472 362.382 200.472C362.966 200.472 363.35 200.232 363.478 199.784H364.182C363.99 200.624 363.334 201.096 362.366 201.096ZM362.334 197.608C361.678 197.608 361.262 198 361.166 198.688H363.422C363.422 198.04 362.998 197.608 362.334 197.608ZM364.646 199.864H365.366C365.366 200.264 365.67 200.504 366.166 200.504C366.694 200.504 366.998 200.288 366.998 199.928C366.998 199.664 366.87 199.504 366.462 199.4L365.774 199.24C365.078 199.072 364.75 198.728 364.75 198.152C364.75 197.432 365.358 196.976 366.222 196.976C367.078 196.976 367.638 197.456 367.654 198.2H366.934C366.918 197.808 366.654 197.56 366.198 197.56C365.726 197.56 365.462 197.768 365.462 198.128C365.462 198.392 365.654 198.568 366.038 198.664L366.726 198.832C367.39 198.992 367.718 199.296 367.718 199.88C367.718 200.624 367.078 201.096 366.15 201.096C365.23 201.096 364.646 200.608 364.646 199.864Z" fill="black"/>
<g opacity="0.2">
<circle cx="322.292" cy="142.576" r="26.0642" fill="url(#paint3_linear_3005_2465)"/>
</g>
<circle cx="322.292" cy="142.577" r="21.6" fill="url(#paint4_linear_3005_2465)"/>
<path d="M316.09 138.24C316.09 135.998 317.909 134.181 320.153 134.181H328.738C328.738 136.423 326.918 138.24 324.674 138.24H316.09Z" fill="#F5F5F5"/>
<path d="M316.096 139.836C316.096 142.078 317.916 143.895 320.16 143.895H328.744C328.744 141.653 326.925 139.836 324.681 139.836H316.096Z" fill="#F5F5F5"/>
<path d="M316.09 149.54C316.09 147.298 317.909 145.48 320.153 145.48H328.738C328.738 147.722 326.918 149.54 324.674 149.54H316.09Z" fill="#F5F5F5"/>
<circle cx="496.228" cy="294.51" r="8" fill="#EFEFEF" stroke="white" stroke-width="2"/>
<path d="M495.276 291.437C495.576 290.516 496.879 290.516 497.179 291.437L497.35 291.965C497.484 292.377 497.868 292.656 498.301 292.656H498.856C499.825 292.656 500.228 293.895 499.444 294.465L498.995 294.791C498.644 295.046 498.498 295.497 498.632 295.909L498.803 296.437C499.103 297.358 498.048 298.124 497.264 297.555L496.815 297.229C496.465 296.974 495.99 296.974 495.64 297.229L495.191 297.555C494.407 298.124 493.353 297.358 493.652 296.437L493.823 295.909C493.957 295.497 493.811 295.046 493.46 294.791L493.011 294.465C492.227 293.895 492.63 292.656 493.599 292.656H494.154C494.587 292.656 494.971 292.377 495.105 291.965L495.276 291.437Z" fill="#58DD56"/>
</g>
<path d="M566.5 0H565.5V400H566.5H567.5V0H566.5ZM0 400H1V0H0H-1V400H0Z" fill="#E5E7EB" mask="url(#path-1-inside-1_3005_2465)"/>
<defs>
<filter id="filter0_f_3005_2465" x="250.228" y="209.51" width="143" height="77" filterUnits="userSpaceOnUse" color-interpolation-filters="sRGB">
<feFlood flood-opacity="0" result="BackgroundImageFix"/>
<feBlend mode="normal" in="SourceGraphic" in2="BackgroundImageFix" result="shape"/>
<feGaussianBlur stdDeviation="7" result="effect1_foregroundBlur_3005_2465"/>
</filter>
<linearGradient id="paint0_linear_3005_2465" x1="425.201" y1="243.277" x2="425.201" y2="258.902" gradientUnits="userSpaceOnUse">
<stop stop-color="#6C63AB"/>
<stop offset="1" stop-color="#006FFF"/>
</linearGradient>
<linearGradient id="paint1_linear_3005_2465" x1="482.252" y1="186.277" x2="482.252" y2="201.902" gradientUnits="userSpaceOnUse">
<stop stop-color="#6C63AB"/>
<stop offset="1" stop-color="#006FFF"/>
</linearGradient>
<linearGradient id="paint2_linear_3005_2465" x1="482.252" y1="300.277" x2="482.252" y2="315.902" gradientUnits="userSpaceOnUse">
<stop stop-color="#6C63AB"/>
<stop offset="1" stop-color="#006FFF"/>
</linearGradient>
<linearGradient id="paint3_linear_3005_2465" x1="322.292" y1="116.512" x2="322.292" y2="168.64" gradientUnits="userSpaceOnUse">
<stop stop-color="#6C63AB"/>
<stop offset="1" stop-color="#006FFF"/>
</linearGradient>
<linearGradient id="paint4_linear_3005_2465" x1="322.292" y1="120.977" x2="322.292" y2="164.177" gradientUnits="userSpaceOnUse">
<stop stop-color="#6C63AB"/>
<stop offset="1" stop-color="#006FFF"/>
</linearGradient>
<clipPath id="clip0_3005_2465">
<path d="M0 0H566.5V400H0V0Z" fill="white"/>
</clipPath>
</defs>
</svg>
