<svg width="564" height="400" viewBox="0 0 564 400" fill="none" xmlns="http://www.w3.org/2000/svg">
<g clip-path="url(#clip0_3005_2655)">
<path opacity="0.1" d="M378 52H74C68.4771 52 64 56.4772 64 62V116C64 121.523 59.5228 126 54 126H-13C-18.5228 126 -23 130.477 -23 136V270.5C-23 276.023 -18.5228 280.5 -13 280.5H122.5C128.023 280.5 132.5 284.977 132.5 290.5V329C132.5 334.523 136.977 339 142.5 339H351C356.523 339 361 334.523 361 329V251.5C361 245.977 365.477 241.5 371 241.5H594C599.523 241.5 604 237.023 604 231.5V192C604 186.477 599.523 182 594 182H460C454.477 182 450 177.523 450 172V62C450 56.4772 445.523 52 440 52H421" stroke="#006FFF"/>
<path d="M244 75C244 68.3726 249.373 63 256 63H481C487.627 63 493 68.3726 493 75V406H244V75Z" fill="white"/>
<path d="M481 62.5C487.904 62.5 493.5 68.0964 493.5 75V406.5H243.5V75C243.5 68.0964 249.096 62.5 256 62.5H481Z" stroke="#006FFF" stroke-opacity="0.3"/>
<mask id="mask0_3005_2655" style="mask-type:alpha" maskUnits="userSpaceOnUse" x="244" y="63" width="282" height="40">
<path d="M244 75C244 68.3726 249.373 63 256 63H514C520.627 63 526 68.3726 526 75V102.798H244V75Z" fill="#D9D9D9"/>
</mask>
<g mask="url(#mask0_3005_2655)">
<path d="M244 75C244 68.3726 249.373 63 256 63H481C487.627 63 493 68.3726 493 75V102H244V75Z" fill="#E9F3FF"/>
<path d="M481 62.5C487.904 62.5 493.5 68.0964 493.5 75V102.5H243.5V75C243.5 68.0964 249.096 62.5 256 62.5H481Z" stroke="#006FFF" stroke-opacity="0.3"/>
<mask id="mask1_3005_2655" style="mask-type:alpha" maskUnits="userSpaceOnUse" x="244" y="63" width="249" height="39">
<path d="M244 75C244 68.3726 249.373 63 256 63H481C487.627 63 493 68.3726 493 75V102H244V75Z" fill="#D9D9D9"/>
</mask>
<g mask="url(#mask1_3005_2655)">
<g filter="url(#filter0_f_3005_2655)">
<ellipse cx="258.183" cy="36.7917" rx="65.9112" ry="76.6833" fill="#006FFF"/>
</g>
<g filter="url(#filter1_f_3005_2655)">
<ellipse cx="410.03" cy="-8.83039" rx="65.9112" ry="76.6833" fill="#006FFF"/>
</g>
<g filter="url(#filter2_f_3005_2655)">
<ellipse cx="337.027" cy="64.4562" rx="24.6124" ry="28.6349" fill="#6C63AB"/>
</g>
<g filter="url(#filter3_f_3005_2655)">
<ellipse cx="510.565" cy="116.872" rx="28.784" ry="33.4883" fill="#6C63AB"/>
</g>
</g>
<path d="M259.44 87H258.11L260.75 79.69H262.06L264.7 87H263.35L262.76 85.31H260.03L259.44 87ZM261.24 81.87L260.41 84.23H262.39L261.55 81.87C261.49 81.68 261.42 81.46 261.4 81.31C261.37 81.45 261.31 81.67 261.24 81.87ZM266.837 79.69V87H265.557V79.69H266.837ZM274.122 87.12C271.992 87.12 270.612 85.64 270.612 83.35C270.612 81.08 272.042 79.57 274.182 79.57C275.912 79.57 277.202 80.58 277.452 82.15H276.102C275.852 81.3 275.122 80.8 274.152 80.8C272.802 80.8 271.952 81.78 271.952 83.34C271.952 84.89 272.812 85.89 274.152 85.89C275.142 85.89 275.902 85.37 276.142 84.56H277.472C277.192 86.1 275.852 87.12 274.122 87.12ZM279.753 87.13C278.703 87.13 278.063 86.52 278.063 85.59C278.063 84.68 278.723 84.11 279.893 84.02L281.373 83.91V83.8C281.373 83.13 280.973 82.86 280.353 82.86C279.633 82.86 279.233 83.16 279.233 83.68H278.193C278.193 82.61 279.073 81.91 280.413 81.91C281.743 81.91 282.563 82.63 282.563 84V87H281.493L281.403 86.27C281.193 86.78 280.523 87.13 279.753 87.13ZM280.153 86.21C280.903 86.21 281.383 85.76 281.383 85V84.74L280.353 84.82C279.593 84.89 279.303 85.14 279.303 85.54C279.303 85.99 279.603 86.21 280.153 86.21ZM284.931 87H283.721V79.56H284.931V87ZM287.381 87H286.171V79.56H287.381V87ZM292.696 79.69V85.82H295.756V87H291.416V79.69H292.696ZM297.167 81.07C296.747 81.07 296.417 80.74 296.417 80.33C296.417 79.92 296.747 79.6 297.167 79.6C297.567 79.6 297.897 79.92 297.897 80.33C297.897 80.74 297.567 81.07 297.167 81.07ZM296.557 87V82.06H297.777V87H296.557ZM298.597 85.5H299.757C299.767 85.93 300.087 86.2 300.647 86.2C301.217 86.2 301.527 85.97 301.527 85.61C301.527 85.36 301.397 85.18 300.957 85.08L300.067 84.87C299.177 84.67 298.747 84.25 298.747 83.46C298.747 82.49 299.567 81.91 300.707 81.91C301.817 81.91 302.567 82.55 302.577 83.51H301.417C301.407 83.09 301.127 82.82 300.657 82.82C300.177 82.82 299.897 83.04 299.897 83.41C299.897 83.69 300.117 83.87 300.537 83.97L301.427 84.18C302.257 84.37 302.677 84.75 302.677 85.51C302.677 86.51 301.827 87.13 300.607 87.13C299.377 87.13 298.597 86.47 298.597 85.5ZM305.226 87H304.006V83.08H303.056V82.06H304.006V80.52H305.226V82.06H306.186V83.08H305.226V87ZM306.505 85.5H307.665C307.675 85.93 307.995 86.2 308.555 86.2C309.125 86.2 309.435 85.97 309.435 85.61C309.435 85.36 309.305 85.18 308.865 85.08L307.975 84.87C307.085 84.67 306.655 84.25 306.655 83.46C306.655 82.49 307.475 81.91 308.615 81.91C309.725 81.91 310.475 82.55 310.485 83.51H309.325C309.315 83.09 309.035 82.82 308.565 82.82C308.085 82.82 307.805 83.04 307.805 83.41C307.805 83.69 308.025 83.87 308.445 83.97L309.335 84.18C310.165 84.37 310.585 84.75 310.585 85.51C310.585 86.51 309.735 87.13 308.515 87.13C307.285 87.13 306.505 86.47 306.505 85.5Z" fill="white"/>
</g>
<rect x="244" y="276" width="249" height="1" fill="#EFEFEF"/>
<circle cx="266" cy="248" r="12" fill="#D9D9D9"/>
<path d="M262.447 247.692C262.447 246.848 263.159 246.25 264.16 246.25C265.162 246.25 265.792 246.804 265.792 247.686H264.778C264.778 247.359 264.532 247.157 264.148 247.157C263.732 247.157 263.467 247.346 263.467 247.655C263.467 247.938 263.612 248.077 263.94 248.146L264.639 248.291C265.471 248.461 265.868 248.858 265.868 249.595C265.868 250.496 265.162 251.082 264.091 251.082C263.051 251.082 262.377 250.521 262.377 249.646H263.392C263.392 249.986 263.644 250.175 264.097 250.175C264.557 250.175 264.847 249.992 264.847 249.696C264.847 249.438 264.727 249.305 264.419 249.242L263.707 249.097C262.875 248.927 262.447 248.455 262.447 247.692ZM266.27 249.664V249.337H267.253V249.664C267.253 249.91 267.392 250.137 267.782 250.137C268.16 250.137 268.305 249.942 268.305 249.627V246.338H269.326V249.69C269.326 250.49 268.733 251.082 267.795 251.082C266.768 251.082 266.27 250.471 266.27 249.664Z" fill="white"/>
<path d="M288.462 246.692C288.462 245.328 289.562 244.404 291.201 244.404C292.719 244.404 293.698 245.251 293.786 246.626H292.697C292.642 245.834 292.081 245.372 291.19 245.372C290.189 245.372 289.54 245.878 289.54 246.659C289.54 247.297 289.903 247.682 290.651 247.858L291.96 248.166C293.258 248.463 293.918 249.167 293.918 250.289C293.918 251.719 292.807 252.632 291.113 252.632C289.496 252.632 288.418 251.785 288.352 250.421H289.452C289.474 251.18 290.112 251.664 291.113 251.664C292.169 251.664 292.84 251.169 292.84 250.377C292.84 249.75 292.499 249.354 291.74 249.178L290.431 248.881C289.133 248.584 288.462 247.836 288.462 246.692ZM296.604 252.632C295.449 252.632 294.767 251.983 294.767 251.004C294.767 250.014 295.504 249.398 296.769 249.299L298.463 249.167V249.013C298.463 248.111 297.924 247.792 297.198 247.792C296.329 247.792 295.834 248.177 295.834 248.826H294.932C294.932 247.704 295.856 246.967 297.242 246.967C298.573 246.967 299.475 247.671 299.475 249.123V252.5H298.595L298.485 251.631C298.21 252.247 297.473 252.632 296.604 252.632ZM296.901 251.829C297.88 251.829 298.474 251.191 298.474 250.179V249.893L297.099 250.003C296.186 250.091 295.812 250.443 295.812 250.971C295.812 251.543 296.23 251.829 296.901 251.829ZM303.921 247.077V248.023H303.459C302.48 248.023 301.875 248.617 301.875 249.651V252.5H300.841V247.132H301.809L301.875 247.946C302.095 247.385 302.634 247.011 303.371 247.011C303.558 247.011 303.712 247.033 303.921 247.077ZM306.183 252.632C305.028 252.632 304.346 251.983 304.346 251.004C304.346 250.014 305.083 249.398 306.348 249.299L308.042 249.167V249.013C308.042 248.111 307.503 247.792 306.777 247.792C305.908 247.792 305.413 248.177 305.413 248.826H304.511C304.511 247.704 305.435 246.967 306.821 246.967C308.152 246.967 309.054 247.671 309.054 249.123V252.5H308.174L308.064 251.631C307.789 252.247 307.052 252.632 306.183 252.632ZM306.48 251.829C307.459 251.829 308.053 251.191 308.053 250.179V249.893L306.678 250.003C305.765 250.091 305.391 250.443 305.391 250.971C305.391 251.543 305.809 251.829 306.48 251.829ZM311.454 252.489H310.42V244.404H311.454V247.946C311.795 247.363 312.444 246.967 313.28 246.967C314.655 246.967 315.315 247.836 315.315 249.211V252.5H314.281V249.442C314.281 248.353 313.764 247.913 312.994 247.913C311.993 247.913 311.454 248.639 311.454 249.563V252.489ZM319.095 250.289V249.893H320.14V250.289C320.14 251.07 320.569 251.631 321.449 251.631C322.351 251.631 322.747 251.081 322.747 250.256V244.547H323.825V250.3C323.825 251.73 322.868 252.632 321.449 252.632C319.931 252.632 319.095 251.664 319.095 250.289ZM325.027 249.805C325.027 248.144 326.215 246.978 327.832 246.978C329.438 246.978 330.626 248.144 330.626 249.805C330.626 251.466 329.438 252.632 327.832 252.632C326.215 252.632 325.027 251.466 325.027 249.805ZM326.072 249.805C326.072 250.927 326.787 251.708 327.832 251.708C328.866 251.708 329.592 250.927 329.592 249.805C329.592 248.683 328.866 247.902 327.832 247.902C326.787 247.902 326.072 248.683 326.072 249.805ZM332.738 252.489H331.704V244.404H332.738V247.946C333.079 247.363 333.728 246.967 334.564 246.967C335.939 246.967 336.599 247.836 336.599 249.211V252.5H335.565V249.442C335.565 248.353 335.048 247.913 334.278 247.913C333.277 247.913 332.738 248.639 332.738 249.563V252.489ZM339 252.5H337.966V247.121H338.901L339.011 247.946C339.352 247.33 340.034 246.967 340.793 246.967C342.212 246.967 342.861 247.836 342.861 249.211V252.5H341.827V249.442C341.827 248.353 341.321 247.913 340.529 247.913C339.561 247.913 339 248.606 339 249.651V252.5ZM343.722 250.938H344.712C344.712 251.488 345.13 251.818 345.812 251.818C346.538 251.818 346.956 251.521 346.956 251.026C346.956 250.663 346.78 250.443 346.219 250.3L345.273 250.08C344.316 249.849 343.865 249.376 343.865 248.584C343.865 247.594 344.701 246.967 345.889 246.967C347.066 246.967 347.836 247.627 347.858 248.65H346.868C346.846 248.111 346.483 247.77 345.856 247.77C345.207 247.77 344.844 248.056 344.844 248.551C344.844 248.914 345.108 249.156 345.636 249.288L346.582 249.519C347.495 249.739 347.946 250.157 347.946 250.96C347.946 251.983 347.066 252.632 345.79 252.632C344.525 252.632 343.722 251.961 343.722 250.938ZM348.675 249.805C348.675 248.144 349.863 246.978 351.48 246.978C353.086 246.978 354.274 248.144 354.274 249.805C354.274 251.466 353.086 252.632 351.48 252.632C349.863 252.632 348.675 251.466 348.675 249.805ZM349.72 249.805C349.72 250.927 350.435 251.708 351.48 251.708C352.514 251.708 353.24 250.927 353.24 249.805C353.24 248.683 352.514 247.902 351.48 247.902C350.435 247.902 349.72 248.683 349.72 249.805ZM356.386 252.5H355.352V247.121H356.287L356.397 247.946C356.738 247.33 357.42 246.967 358.179 246.967C359.598 246.967 360.247 247.836 360.247 249.211V252.5H359.213V249.442C359.213 248.353 358.707 247.913 357.915 247.913C356.947 247.913 356.386 248.606 356.386 249.651V252.5Z" fill="#878787"/>
<path d="M403.628 252.608C402.296 252.608 401.432 251.762 401.432 250.466H402.305C402.305 251.303 402.818 251.816 403.646 251.816C404.528 251.816 405.095 251.231 405.095 250.349C405.095 249.512 404.564 248.891 403.655 248.891C403.106 248.891 402.602 249.152 402.305 249.521L401.558 249.332L402.35 245.993H405.608V246.803H402.989L402.557 248.531C402.899 248.27 403.331 248.135 403.817 248.135C405.14 248.135 405.995 249.062 405.995 250.313C405.995 251.663 405.032 252.608 403.628 252.608ZM407.788 246.785H406.42V245.993H408.634V252.5H407.788V246.785ZM414.136 252.491L409.744 252.5V251.825L411.841 250.016C412.894 249.107 413.191 248.666 413.191 247.973C413.191 247.154 412.723 246.668 411.94 246.668C411.139 246.668 410.617 247.253 410.599 248.18H409.717C409.744 246.785 410.626 245.876 411.949 245.876C413.254 245.876 414.091 246.668 414.091 247.919C414.091 248.846 413.632 249.503 412.48 250.502L411.13 251.672H414.136V252.491ZM414.747 250.493V249.737H417.492V250.493H414.747ZM420.63 252.608C419.298 252.608 418.434 251.762 418.434 250.466H419.307C419.307 251.303 419.82 251.816 420.648 251.816C421.53 251.816 422.097 251.231 422.097 250.349C422.097 249.512 421.566 248.891 420.657 248.891C420.108 248.891 419.604 249.152 419.307 249.521L418.56 249.332L419.352 245.993H422.61V246.803H419.991L419.559 248.531C419.901 248.27 420.333 248.135 420.819 248.135C422.142 248.135 422.997 249.062 422.997 250.313C422.997 251.663 422.034 252.608 420.63 252.608ZM425.893 252.608C424.561 252.608 423.697 251.762 423.697 250.466H424.57C424.57 251.303 425.083 251.816 425.911 251.816C426.793 251.816 427.36 251.231 427.36 250.349C427.36 249.512 426.829 248.891 425.92 248.891C425.371 248.891 424.867 249.152 424.57 249.521L423.823 249.332L424.615 245.993H427.873V246.803H425.254L424.822 248.531C425.164 248.27 425.596 248.135 426.082 248.135C427.405 248.135 428.26 249.062 428.26 250.313C428.26 251.663 427.297 252.608 425.893 252.608ZM431.157 252.608C429.825 252.608 428.961 251.762 428.961 250.466H429.834C429.834 251.303 430.347 251.816 431.175 251.816C432.057 251.816 432.624 251.231 432.624 250.349C432.624 249.512 432.093 248.891 431.184 248.891C430.635 248.891 430.131 249.152 429.834 249.521L429.087 249.332L429.879 245.993H433.137V246.803H430.518L430.086 248.531C430.428 248.27 430.86 248.135 431.346 248.135C432.669 248.135 433.524 249.062 433.524 250.313C433.524 251.663 432.561 252.608 431.157 252.608ZM434.359 250.493V249.737H437.104V250.493H434.359ZM438.055 249.251C438.055 247.235 439.099 245.867 440.737 245.867C442.366 245.867 443.41 247.235 443.41 249.251C443.41 251.276 442.411 252.617 440.737 252.617C439.054 252.617 438.055 251.276 438.055 249.251ZM438.928 249.251C438.928 250.853 439.594 251.825 440.737 251.825C441.88 251.825 442.537 250.853 442.537 249.251C442.537 247.631 441.88 246.659 440.737 246.659C439.594 246.659 438.928 247.631 438.928 249.251ZM445.483 246.785H444.115V245.993H446.329V252.5H445.483V246.785ZM451.83 252.491L447.438 252.5V251.825L449.535 250.016C450.588 249.107 450.885 248.666 450.885 247.973C450.885 247.154 450.417 246.668 449.634 246.668C448.833 246.668 448.311 247.253 448.293 248.18H447.411C447.438 246.785 448.32 245.876 449.643 245.876C450.948 245.876 451.785 246.668 451.785 247.919C451.785 248.846 451.326 249.503 450.174 250.502L448.824 251.672H451.83V252.491ZM454.486 249.134H453.838V248.549L455.683 246.776H452.758V245.993H456.799V246.704L455.017 248.405C456.124 248.54 456.961 249.287 456.961 250.457C456.961 251.771 455.971 252.608 454.648 252.608C453.37 252.608 452.452 251.825 452.452 250.475H453.325C453.325 251.321 453.847 251.816 454.666 251.816C455.512 251.816 456.061 251.276 456.061 250.439C456.061 249.656 455.521 249.134 454.486 249.134Z" fill="#AFAFAF"/>
<rect x="244" y="219" width="249" height="1" fill="#EFEFEF"/>
<circle cx="266" cy="191" r="12" fill="#D9D9D9"/>
<path d="M263.766 194H261.939V189.338H263.703C265.07 189.338 266.021 190.296 266.021 191.682C266.021 193.042 265.095 194 263.766 194ZM263.602 190.283H262.96V193.055H263.665C264.472 193.055 264.944 192.545 264.944 191.682C264.944 190.8 264.446 190.283 263.602 190.283ZM267.714 194H266.694V189.338H268.496C269.63 189.338 270.272 189.886 270.272 190.85C270.272 191.455 270.014 191.883 269.497 192.148L270.316 194H269.201L268.502 192.368H267.714V194ZM267.714 190.245V191.474H268.489C268.937 191.474 269.195 191.247 269.195 190.85C269.195 190.459 268.949 190.245 268.496 190.245H267.714Z" fill="white"/>
<path d="M291.553 195.5H288.924V187.547H291.509C293.885 187.547 295.491 189.153 295.491 191.529C295.491 193.894 293.907 195.5 291.553 195.5ZM291.432 188.537H290.002V194.499H291.476C293.247 194.499 294.369 193.355 294.369 191.529C294.369 189.681 293.247 188.537 291.432 188.537ZM298.193 195.632C297.038 195.632 296.356 194.983 296.356 194.004C296.356 193.014 297.093 192.398 298.358 192.299L300.052 192.167V192.013C300.052 191.111 299.513 190.792 298.787 190.792C297.918 190.792 297.423 191.177 297.423 191.826H296.521C296.521 190.704 297.445 189.967 298.831 189.967C300.162 189.967 301.064 190.671 301.064 192.123V195.5H300.184L300.074 194.631C299.799 195.247 299.062 195.632 298.193 195.632ZM298.49 194.829C299.469 194.829 300.063 194.191 300.063 193.179V192.893L298.688 193.003C297.775 193.091 297.401 193.443 297.401 193.971C297.401 194.543 297.819 194.829 298.49 194.829ZM305.51 190.077V191.023H305.048C304.069 191.023 303.464 191.617 303.464 192.651V195.5H302.43V190.132H303.398L303.464 190.946C303.684 190.385 304.223 190.011 304.96 190.011C305.147 190.011 305.301 190.033 305.51 190.077ZM307.47 195.5H306.436V187.404H307.47V195.5ZM311.247 195.632C309.663 195.632 308.574 194.488 308.574 192.816C308.574 191.133 309.641 189.967 311.203 189.967C312.732 189.967 313.733 191.023 313.733 192.618V193.003L309.575 193.014C309.652 194.147 310.246 194.774 311.269 194.774C312.072 194.774 312.6 194.444 312.776 193.828H313.744C313.48 194.983 312.578 195.632 311.247 195.632ZM311.203 190.836C310.301 190.836 309.729 191.375 309.597 192.321H312.699C312.699 191.43 312.116 190.836 311.203 190.836ZM315.856 195.5H314.822V190.121H315.757L315.867 190.946C316.208 190.33 316.89 189.967 317.649 189.967C319.068 189.967 319.717 190.836 319.717 192.211V195.5H318.683V192.442C318.683 191.353 318.177 190.913 317.385 190.913C316.417 190.913 315.856 191.606 315.856 192.651V195.5ZM323.404 195.632C321.82 195.632 320.731 194.488 320.731 192.816C320.731 191.133 321.798 189.967 323.36 189.967C324.889 189.967 325.89 191.023 325.89 192.618V193.003L321.732 193.014C321.809 194.147 322.403 194.774 323.426 194.774C324.229 194.774 324.757 194.444 324.933 193.828H325.901C325.637 194.983 324.735 195.632 323.404 195.632ZM323.36 190.836C322.458 190.836 321.886 191.375 321.754 192.321H324.856C324.856 191.43 324.273 190.836 323.36 190.836ZM331.175 195.5H330.097V187.547H333.1C334.805 187.547 335.817 188.449 335.817 189.934C335.817 191.034 335.267 191.826 334.277 192.145L335.894 195.5H334.695L333.21 192.354H331.175V195.5ZM331.175 188.515V191.397H333.111C334.112 191.397 334.684 190.858 334.684 189.945C334.684 189.021 334.09 188.515 333.1 188.515H331.175ZM336.314 192.805C336.314 191.144 337.502 189.978 339.119 189.978C340.725 189.978 341.913 191.144 341.913 192.805C341.913 194.466 340.725 195.632 339.119 195.632C337.502 195.632 336.314 194.466 336.314 192.805ZM337.359 192.805C337.359 193.927 338.074 194.708 339.119 194.708C340.153 194.708 340.879 193.927 340.879 192.805C340.879 191.683 340.153 190.902 339.119 190.902C338.074 190.902 337.359 191.683 337.359 192.805ZM342.551 193.938H343.541C343.541 194.488 343.959 194.818 344.641 194.818C345.367 194.818 345.785 194.521 345.785 194.026C345.785 193.663 345.609 193.443 345.048 193.3L344.102 193.08C343.145 192.849 342.694 192.376 342.694 191.584C342.694 190.594 343.53 189.967 344.718 189.967C345.895 189.967 346.665 190.627 346.687 191.65H345.697C345.675 191.111 345.312 190.77 344.685 190.77C344.036 190.77 343.673 191.056 343.673 191.551C343.673 191.914 343.937 192.156 344.465 192.288L345.411 192.519C346.324 192.739 346.775 193.157 346.775 193.96C346.775 194.983 345.895 195.632 344.619 195.632C343.354 195.632 342.551 194.961 342.551 193.938ZM347.416 193.938H348.406C348.406 194.488 348.824 194.818 349.506 194.818C350.232 194.818 350.65 194.521 350.65 194.026C350.65 193.663 350.474 193.443 349.913 193.3L348.967 193.08C348.01 192.849 347.559 192.376 347.559 191.584C347.559 190.594 348.395 189.967 349.583 189.967C350.76 189.967 351.53 190.627 351.552 191.65H350.562C350.54 191.111 350.177 190.77 349.55 190.77C348.901 190.77 348.538 191.056 348.538 191.551C348.538 191.914 348.802 192.156 349.33 192.288L350.276 192.519C351.189 192.739 351.64 193.157 351.64 193.96C351.64 194.983 350.76 195.632 349.484 195.632C348.219 195.632 347.416 194.961 347.416 193.938Z" fill="#878787"/>
<path d="M403.628 195.608C402.296 195.608 401.432 194.762 401.432 193.466H402.305C402.305 194.303 402.818 194.816 403.646 194.816C404.528 194.816 405.095 194.231 405.095 193.349C405.095 192.512 404.564 191.891 403.655 191.891C403.106 191.891 402.602 192.152 402.305 192.521L401.558 192.332L402.35 188.993H405.608V189.803H402.989L402.557 191.531C402.899 191.27 403.331 191.135 403.817 191.135C405.14 191.135 405.995 192.062 405.995 193.313C405.995 194.663 405.032 195.608 403.628 195.608ZM408.891 195.608C407.559 195.608 406.695 194.762 406.695 193.466H407.568C407.568 194.303 408.081 194.816 408.909 194.816C409.791 194.816 410.358 194.231 410.358 193.349C410.358 192.512 409.827 191.891 408.918 191.891C408.369 191.891 407.865 192.152 407.568 192.521L406.821 192.332L407.613 188.993H410.871V189.803H408.252L407.82 191.531C408.162 191.27 408.594 191.135 409.08 191.135C410.403 191.135 411.258 192.062 411.258 193.313C411.258 194.663 410.295 195.608 408.891 195.608ZM414.155 195.608C412.823 195.608 411.959 194.762 411.959 193.466H412.832C412.832 194.303 413.345 194.816 414.173 194.816C415.055 194.816 415.622 194.231 415.622 193.349C415.622 192.512 415.091 191.891 414.182 191.891C413.633 191.891 413.129 192.152 412.832 192.521L412.085 192.332L412.877 188.993H416.135V189.803H413.516L413.084 191.531C413.426 191.27 413.858 191.135 414.344 191.135C415.667 191.135 416.522 192.062 416.522 193.313C416.522 194.663 415.559 195.608 414.155 195.608ZM417.357 193.493V192.737H420.102V193.493H417.357ZM421.724 189.785H420.356V188.993H422.57V195.5H421.724V189.785ZM428.071 195.491L423.679 195.5V194.825L425.776 193.016C426.829 192.107 427.126 191.666 427.126 190.973C427.126 190.154 426.658 189.668 425.875 189.668C425.074 189.668 424.552 190.253 424.534 191.18H423.652C423.679 189.785 424.561 188.876 425.884 188.876C427.189 188.876 428.026 189.668 428.026 190.919C428.026 191.846 427.567 192.503 426.415 193.502L425.065 194.672H428.071V195.491ZM433.504 194.186H432.73V195.5H431.884V194.186H428.518V193.403L431.587 188.993H432.73V193.403H433.504V194.186ZM429.472 193.403H431.884V189.929L429.472 193.403ZM434.447 193.493V192.737H437.192V193.493H434.447ZM442.994 194.186H442.22V195.5H441.374V194.186H438.008V193.403L441.077 188.993H442.22V193.403H442.994V194.186ZM438.962 193.403H441.374V189.929L438.962 193.403ZM443.134 188.993H447.679V189.803L445.213 195.5H444.295L446.788 189.803H443.134V188.993ZM448.019 193.691C448.019 192.908 448.478 192.278 449.198 192.017C448.586 191.756 448.253 191.243 448.253 190.586C448.253 189.569 449.126 188.876 450.422 188.876C451.7 188.876 452.564 189.569 452.564 190.595C452.564 191.261 452.222 191.774 451.61 192.017C452.339 192.251 452.807 192.899 452.807 193.7C452.807 194.843 451.853 195.608 450.413 195.608C448.964 195.608 448.019 194.843 448.019 193.691ZM449.063 190.64C449.063 191.279 449.594 191.693 450.404 191.693C451.223 191.693 451.736 191.288 451.736 190.658C451.736 190.037 451.223 189.641 450.404 189.641C449.594 189.641 449.063 190.037 449.063 190.64ZM448.883 193.628C448.883 194.357 449.486 194.825 450.413 194.825C451.331 194.825 451.934 194.357 451.934 193.628C451.934 192.908 451.34 192.449 450.404 192.449C449.477 192.449 448.883 192.908 448.883 193.628ZM457.397 193.439L455.876 195.5H454.85L456.479 193.34C456.254 193.43 456.02 193.475 455.795 193.475C454.445 193.475 453.536 192.503 453.536 191.207C453.536 189.857 454.562 188.876 455.903 188.876C457.253 188.876 458.297 189.893 458.297 191.216C458.297 191.981 458.063 192.53 457.397 193.439ZM457.397 191.207C457.397 190.316 456.785 189.668 455.903 189.668C455.039 189.668 454.427 190.316 454.427 191.207C454.427 192.098 455.039 192.728 455.903 192.728C456.785 192.728 457.397 192.098 457.397 191.207Z" fill="#AFAFAF"/>
<rect x="244" y="162" width="249" height="1" fill="#EFEFEF"/>
<circle cx="266" cy="134" r="12" fill="#D9D9D9"/>
<path d="M263.976 137.076C262.578 137.076 261.702 136.15 261.702 134.675C261.702 133.22 262.628 132.262 264.021 132.262C265.186 132.262 266.024 132.93 266.169 133.976H265.092C264.953 133.51 264.556 133.245 263.995 133.245C263.239 133.245 262.779 133.781 262.779 134.669C262.779 135.545 263.246 136.093 263.995 136.093C264.569 136.093 264.991 135.809 265.117 135.349H266.175C266.011 136.389 265.142 137.076 263.976 137.076ZM266.82 137V132.338H268.76C269.699 132.338 270.266 132.829 270.266 133.629C270.266 134.127 270.039 134.493 269.617 134.675C270.077 134.826 270.323 135.186 270.323 135.715C270.323 136.54 269.768 137 268.76 137H266.82ZM268.653 133.233H267.841V134.247H268.653C269.019 134.247 269.22 134.064 269.22 133.73C269.22 133.403 269.025 133.233 268.653 133.233ZM268.704 135.104H267.841V136.105H268.704C269.082 136.105 269.277 135.935 269.277 135.589C269.277 135.274 269.075 135.104 268.704 135.104Z" fill="white"/>
<path d="M292.224 138.621C289.958 138.621 288.451 136.993 288.451 134.529C288.451 132.076 290.002 130.415 292.279 130.415C294.072 130.415 295.447 131.482 295.744 133.11H294.589C294.292 132.076 293.401 131.449 292.246 131.449C290.64 131.449 289.584 132.659 289.584 134.518C289.584 136.377 290.64 137.587 292.246 137.587C293.412 137.587 294.336 136.96 294.633 135.981H295.777C295.436 137.565 294.017 138.621 292.224 138.621ZM296.505 135.805C296.505 134.144 297.693 132.978 299.31 132.978C300.916 132.978 302.104 134.144 302.104 135.805C302.104 137.466 300.916 138.632 299.31 138.632C297.693 138.632 296.505 137.466 296.505 135.805ZM297.55 135.805C297.55 136.927 298.265 137.708 299.31 137.708C300.344 137.708 301.07 136.927 301.07 135.805C301.07 134.683 300.344 133.902 299.31 133.902C298.265 133.902 297.55 134.683 297.55 135.805ZM306.772 133.121H307.795V138.5H306.871L306.761 137.686C306.453 138.247 305.738 138.632 304.946 138.632C303.692 138.632 302.988 137.785 302.988 136.465V133.121H304.022V136.124C304.022 137.279 304.517 137.719 305.309 137.719C306.255 137.719 306.772 137.114 306.772 135.959V133.121ZM312.309 133.077V134.023H311.847C310.868 134.023 310.263 134.617 310.263 135.651V138.5H309.229V133.132H310.197L310.263 133.946C310.483 133.385 311.022 133.011 311.759 133.011C311.946 133.011 312.1 133.033 312.309 133.077ZM314.945 138.5H313.911V133.99H312.855V133.121H313.911V131.438H314.945V133.121H316.001V133.99H314.945V138.5ZM317.897 138.5H316.863V133.121H317.798L317.908 133.946C318.249 133.33 318.931 132.967 319.69 132.967C321.109 132.967 321.758 133.836 321.758 135.211V138.5H320.724V135.442C320.724 134.353 320.218 133.913 319.426 133.913C318.458 133.913 317.897 134.606 317.897 135.651V138.5ZM325.445 138.632C323.861 138.632 322.772 137.488 322.772 135.816C322.772 134.133 323.839 132.967 325.401 132.967C326.93 132.967 327.931 134.023 327.931 135.618V136.003L323.773 136.014C323.85 137.147 324.444 137.774 325.467 137.774C326.27 137.774 326.798 137.444 326.974 136.828H327.942C327.678 137.983 326.776 138.632 325.445 138.632ZM325.401 133.836C324.499 133.836 323.927 134.375 323.795 135.321H326.897C326.897 134.43 326.314 133.836 325.401 133.836ZM328.353 140.909V140.062H329.046C329.541 140.062 329.937 139.985 330.19 139.303L330.377 138.786L328.21 133.121H329.299L330.861 137.455L332.456 133.121H333.523L330.982 139.71C330.619 140.634 330.08 141.019 329.255 141.019C328.914 141.019 328.628 140.975 328.353 140.909ZM337.4 138.5V130.547H340.436C341.987 130.547 342.933 131.339 342.933 132.648C342.933 133.561 342.537 134.177 341.745 134.507C342.625 134.793 343.076 135.431 343.076 136.377C343.076 137.697 342.119 138.5 340.546 138.5H337.4ZM340.37 131.504H338.478V134.056H340.436C341.327 134.056 341.833 133.572 341.833 132.747C341.833 131.955 341.305 131.504 340.37 131.504ZM340.524 134.991H338.478V137.543H340.524C341.448 137.543 341.965 137.07 341.965 136.245C341.965 135.453 341.437 134.991 340.524 134.991ZM347.264 133.077V134.023H346.802C345.823 134.023 345.218 134.617 345.218 135.651V138.5H344.184V133.132H345.152L345.218 133.946C345.438 133.385 345.977 133.011 346.714 133.011C346.901 133.011 347.055 133.033 347.264 133.077ZM349.526 138.632C348.371 138.632 347.689 137.983 347.689 137.004C347.689 136.014 348.426 135.398 349.691 135.299L351.385 135.167V135.013C351.385 134.111 350.846 133.792 350.12 133.792C349.251 133.792 348.756 134.177 348.756 134.826H347.854C347.854 133.704 348.778 132.967 350.164 132.967C351.495 132.967 352.397 133.671 352.397 135.123V138.5H351.517L351.407 137.631C351.132 138.247 350.395 138.632 349.526 138.632ZM349.823 137.829C350.802 137.829 351.396 137.191 351.396 136.179V135.893L350.021 136.003C349.108 136.091 348.734 136.443 348.734 136.971C348.734 137.543 349.152 137.829 349.823 137.829ZM355.919 138.632C354.357 138.632 353.411 137.466 353.411 135.827C353.411 134.177 354.368 132.967 355.963 132.967C356.788 132.967 357.481 133.33 357.844 133.99V130.404H358.867V138.5H357.943L357.855 137.521C357.503 138.258 356.777 138.632 355.919 138.632ZM356.128 137.697C357.184 137.697 357.833 136.916 357.833 135.794C357.833 134.694 357.184 133.902 356.128 133.902C355.072 133.902 354.456 134.694 354.456 135.794C354.456 136.905 355.072 137.697 356.128 137.697Z" fill="#878787"/>
<path d="M403.628 138.608C402.296 138.608 401.432 137.762 401.432 136.466H402.305C402.305 137.303 402.818 137.816 403.646 137.816C404.528 137.816 405.095 137.231 405.095 136.349C405.095 135.512 404.564 134.891 403.655 134.891C403.106 134.891 402.602 135.152 402.305 135.521L401.558 135.332L402.35 131.993H405.608V132.803H402.989L402.557 134.531C402.899 134.27 403.331 134.135 403.817 134.135C405.14 134.135 405.995 135.062 405.995 136.313C405.995 137.663 405.032 138.608 403.628 138.608ZM406.686 136.691C406.686 135.908 407.145 135.278 407.865 135.017C407.253 134.756 406.92 134.243 406.92 133.586C406.92 132.569 407.793 131.876 409.089 131.876C410.367 131.876 411.231 132.569 411.231 133.595C411.231 134.261 410.889 134.774 410.277 135.017C411.006 135.251 411.474 135.899 411.474 136.7C411.474 137.843 410.52 138.608 409.08 138.608C407.631 138.608 406.686 137.843 406.686 136.691ZM407.73 133.64C407.73 134.279 408.261 134.693 409.071 134.693C409.89 134.693 410.403 134.288 410.403 133.658C410.403 133.037 409.89 132.641 409.071 132.641C408.261 132.641 407.73 133.037 407.73 133.64ZM407.55 136.628C407.55 137.357 408.153 137.825 409.08 137.825C409.998 137.825 410.601 137.357 410.601 136.628C410.601 135.908 410.007 135.449 409.071 135.449C408.144 135.449 407.55 135.908 407.55 136.628ZM413.103 134.054L414.624 131.993H415.65L414.021 134.153C414.246 134.063 414.48 134.018 414.705 134.018C416.055 134.018 416.964 134.99 416.964 136.277C416.964 137.636 415.938 138.608 414.597 138.608C413.247 138.608 412.203 137.591 412.203 136.277C412.203 135.503 412.437 134.963 413.103 134.054ZM413.103 136.286C413.103 137.177 413.715 137.816 414.597 137.816C415.461 137.816 416.073 137.177 416.073 136.286C416.073 135.395 415.461 134.765 414.597 134.765C413.715 134.765 413.103 135.395 413.103 136.286ZM417.849 136.493V135.737H420.594V136.493H417.849ZM422.216 132.785H420.848V131.993H423.062V138.5H422.216V132.785ZM428.563 138.491L424.171 138.5V137.825L426.268 136.016C427.321 135.107 427.618 134.666 427.618 133.973C427.618 133.154 427.15 132.668 426.367 132.668C425.566 132.668 425.044 133.253 425.026 134.18H424.144C424.171 132.785 425.053 131.876 426.376 131.876C427.681 131.876 428.518 132.668 428.518 133.919C428.518 134.846 428.059 135.503 426.907 136.502L425.557 137.672H428.563V138.491ZM433.721 138.491L429.329 138.5V137.825L431.426 136.016C432.479 135.107 432.776 134.666 432.776 133.973C432.776 133.154 432.308 132.668 431.525 132.668C430.724 132.668 430.202 133.253 430.184 134.18H429.302C429.329 132.785 430.211 131.876 431.534 131.876C432.839 131.876 433.676 132.668 433.676 133.919C433.676 134.846 433.217 135.503 432.065 136.502L430.715 137.672H433.721V138.491ZM434.333 136.493V135.737H437.078V136.493H434.333ZM442.88 137.186H442.106V138.5H441.26V137.186H437.894V136.403L440.963 131.993H442.106V136.403H442.88V137.186ZM438.848 136.403H441.26V132.929L438.848 136.403ZM448.451 137.186H447.677V138.5H446.831V137.186H443.465V136.403L446.534 131.993H447.677V136.403H448.451V137.186ZM444.419 136.403H446.831V132.929L444.419 136.403ZM448.591 131.993H453.136V132.803L450.67 138.5H449.752L452.245 132.803H448.591V131.993ZM453.661 131.993H458.206V132.803L455.74 138.5H454.822L457.315 132.803H453.661V131.993Z" fill="#AFAFAF"/>
<rect x="244" y="333" width="249" height="1" fill="#EFEFEF"/>
<rect x="244" y="390" width="249" height="1" fill="#EFEFEF"/>
<circle cx="266" cy="305" r="12" fill="#D9D9D9"/>
<path d="M262.674 308H261.685V303.338H262.674L264.06 306.816L265.453 303.338H266.454V308H265.465V307.024C265.465 306.015 265.465 305.795 265.516 305.448L264.527 308H263.594L262.611 305.448C262.668 305.795 262.674 306.186 262.674 306.696V308ZM269.404 308.076C268.005 308.076 267.129 307.15 267.129 305.675C267.129 304.22 268.055 303.262 269.448 303.262C270.613 303.262 271.451 303.93 271.596 304.976H270.519C270.38 304.51 269.983 304.245 269.423 304.245C268.667 304.245 268.207 304.781 268.207 305.669C268.207 306.545 268.673 307.093 269.423 307.093C269.996 307.093 270.418 306.809 270.544 306.349H271.602C271.439 307.389 270.569 308.076 269.404 308.076Z" fill="white"/>
<path d="M289.98 309.5H288.924V301.547H289.98L292.719 308.235L295.458 301.547H296.536V309.5H295.48V306.354C295.48 304.869 295.491 304.33 295.546 303.769L293.225 309.5H292.213L289.903 303.791C289.958 304.176 289.98 304.99 289.98 306.101V309.5ZM298.652 302.845C298.278 302.845 297.97 302.537 297.97 302.163C297.97 301.778 298.278 301.481 298.652 301.481C299.026 301.481 299.334 301.778 299.334 302.163C299.334 302.537 299.026 302.845 298.652 302.845ZM298.146 309.5V304.121H299.18V309.5H298.146ZM301.671 309.5H300.637V301.404H301.671V306.651L304.058 304.121H305.356L303.299 306.266L305.345 309.5H304.157L302.584 307.014L301.671 307.971V309.5ZM308.252 309.632C306.668 309.632 305.579 308.488 305.579 306.816C305.579 305.133 306.646 303.967 308.208 303.967C309.737 303.967 310.738 305.023 310.738 306.618V307.003L306.58 307.014C306.657 308.147 307.251 308.774 308.274 308.774C309.077 308.774 309.605 308.444 309.781 307.828H310.749C310.485 308.983 309.583 309.632 308.252 309.632ZM308.208 304.836C307.306 304.836 306.734 305.375 306.602 306.321H309.704C309.704 305.43 309.121 304.836 308.208 304.836ZM318.245 309.621C315.979 309.621 314.472 307.993 314.472 305.529C314.472 303.076 316.023 301.415 318.3 301.415C320.093 301.415 321.468 302.482 321.765 304.11H320.61C320.313 303.076 319.422 302.449 318.267 302.449C316.661 302.449 315.605 303.659 315.605 305.518C315.605 307.377 316.661 308.587 318.267 308.587C319.433 308.587 320.357 307.96 320.654 306.981H321.798C321.457 308.565 320.038 309.621 318.245 309.621ZM323.858 309.489H322.824V301.404H323.858V304.946C324.199 304.363 324.848 303.967 325.684 303.967C327.059 303.967 327.719 304.836 327.719 306.211V309.5H326.685V306.442C326.685 305.353 326.168 304.913 325.398 304.913C324.397 304.913 323.858 305.639 323.858 306.563V309.489ZM331.406 309.632C329.822 309.632 328.733 308.488 328.733 306.816C328.733 305.133 329.8 303.967 331.362 303.967C332.891 303.967 333.892 305.023 333.892 306.618V307.003L329.734 307.014C329.811 308.147 330.405 308.774 331.428 308.774C332.231 308.774 332.759 308.444 332.935 307.828H333.903C333.639 308.983 332.737 309.632 331.406 309.632ZM331.362 304.836C330.46 304.836 329.888 305.375 329.756 306.321H332.858C332.858 305.43 332.275 304.836 331.362 304.836ZM336.015 309.5H334.981V304.121H335.916L336.026 304.946C336.367 304.33 337.049 303.967 337.808 303.967C339.227 303.967 339.876 304.836 339.876 306.211V309.5H338.842V306.442C338.842 305.353 338.336 304.913 337.544 304.913C336.576 304.913 336.015 305.606 336.015 306.651V309.5Z" fill="#878787"/>
<path d="M403.628 309.608C402.296 309.608 401.432 308.762 401.432 307.466H402.305C402.305 308.303 402.818 308.816 403.646 308.816C404.528 308.816 405.095 308.231 405.095 307.349C405.095 306.512 404.564 305.891 403.655 305.891C403.106 305.891 402.602 306.152 402.305 306.521L401.558 306.332L402.35 302.993H405.608V303.803H402.989L402.557 305.531C402.899 305.27 403.331 305.135 403.817 305.135C405.14 305.135 405.995 306.062 405.995 307.313C405.995 308.663 405.032 309.608 403.628 309.608ZM408.603 306.134H407.955V305.549L409.8 303.776H406.875V302.993H410.916V303.704L409.134 305.405C410.241 305.54 411.078 306.287 411.078 307.457C411.078 308.771 410.088 309.608 408.765 309.608C407.487 309.608 406.569 308.825 406.569 307.475H407.442C407.442 308.321 407.964 308.816 408.783 308.816C409.629 308.816 410.178 308.276 410.178 307.439C410.178 306.656 409.638 306.134 408.603 306.134ZM416.025 309.491L411.633 309.5V308.825L413.73 307.016C414.783 306.107 415.08 305.666 415.08 304.973C415.08 304.154 414.612 303.668 413.829 303.668C413.028 303.668 412.506 304.253 412.488 305.18H411.606C411.633 303.785 412.515 302.876 413.838 302.876C415.143 302.876 415.98 303.668 415.98 304.919C415.98 305.846 415.521 306.503 414.369 307.502L413.019 308.672H416.025V309.491ZM416.636 307.493V306.737H419.381V307.493H416.636ZM422.519 309.608C421.187 309.608 420.323 308.762 420.323 307.466H421.196C421.196 308.303 421.709 308.816 422.537 308.816C423.419 308.816 423.986 308.231 423.986 307.349C423.986 306.512 423.455 305.891 422.546 305.891C421.997 305.891 421.493 306.152 421.196 306.521L420.449 306.332L421.241 302.993H424.499V303.803H421.88L421.448 305.531C421.79 305.27 422.222 305.135 422.708 305.135C424.031 305.135 424.886 306.062 424.886 307.313C424.886 308.663 423.923 309.608 422.519 309.608ZM427.783 309.608C426.451 309.608 425.587 308.762 425.587 307.466H426.46C426.46 308.303 426.973 308.816 427.801 308.816C428.683 308.816 429.25 308.231 429.25 307.349C429.25 306.512 428.719 305.891 427.81 305.891C427.261 305.891 426.757 306.152 426.46 306.521L425.713 306.332L426.505 302.993H429.763V303.803H427.144L426.712 305.531C427.054 305.27 427.486 305.135 427.972 305.135C429.295 305.135 430.15 306.062 430.15 307.313C430.15 308.663 429.187 309.608 427.783 309.608ZM435.092 309.491L430.7 309.5V308.825L432.797 307.016C433.85 306.107 434.147 305.666 434.147 304.973C434.147 304.154 433.679 303.668 432.896 303.668C432.095 303.668 431.573 304.253 431.555 305.18H430.673C430.7 303.785 431.582 302.876 432.905 302.876C434.21 302.876 435.047 303.668 435.047 304.919C435.047 305.846 434.588 306.503 433.436 307.502L432.086 308.672H435.092V309.491ZM437.976 309.608C436.644 309.608 435.78 308.762 435.78 307.466H436.653C436.653 308.303 437.166 308.816 437.994 308.816C438.876 308.816 439.443 308.231 439.443 307.349C439.443 306.512 438.912 305.891 438.003 305.891C437.454 305.891 436.95 306.152 436.653 306.521L435.906 306.332L436.698 302.993H439.956V303.803H437.337L436.905 305.531C437.247 305.27 437.679 305.135 438.165 305.135C439.488 305.135 440.343 306.062 440.343 307.313C440.343 308.663 439.38 309.608 437.976 309.608ZM441.178 307.493V306.737H443.923V307.493H441.178ZM445.545 303.785H444.177V302.993H446.391V309.5H445.545V303.785ZM449.679 309.608C448.347 309.608 447.483 308.762 447.483 307.466H448.356C448.356 308.303 448.869 308.816 449.697 308.816C450.579 308.816 451.146 308.231 451.146 307.349C451.146 306.512 450.615 305.891 449.706 305.891C449.157 305.891 448.653 306.152 448.356 306.521L447.609 306.332L448.401 302.993H451.659V303.803H449.04L448.608 305.531C448.95 305.27 449.382 305.135 449.868 305.135C451.191 305.135 452.046 306.062 452.046 307.313C452.046 308.663 451.083 309.608 449.679 309.608ZM453.583 305.054L455.104 302.993H456.13L454.501 305.153C454.726 305.063 454.96 305.018 455.185 305.018C456.535 305.018 457.444 305.99 457.444 307.277C457.444 308.636 456.418 309.608 455.077 309.608C453.727 309.608 452.683 308.591 452.683 307.277C452.683 306.503 452.917 305.963 453.583 305.054ZM453.583 307.286C453.583 308.177 454.195 308.816 455.077 308.816C455.941 308.816 456.553 308.177 456.553 307.286C456.553 306.395 455.941 305.765 455.077 305.765C454.195 305.765 453.583 306.395 453.583 307.286ZM463.054 308.186H462.28V309.5H461.434V308.186H458.068V307.403L461.137 302.993H462.28V307.403H463.054V308.186ZM459.022 307.403H461.434V303.929L459.022 307.403Z" fill="#AFAFAF"/>
<circle cx="266" cy="362" r="12" fill="#D9D9D9"/>
<path d="M265.671 365H262.71V360.338H265.671V361.283H263.73V362.196H265.45V363.091H263.73V364.055H265.671V365ZM268.295 365H266.468V360.338H268.232C269.599 360.338 270.55 361.296 270.55 362.682C270.55 364.042 269.624 365 268.295 365ZM268.131 361.283H267.488V364.055H268.194C269 364.055 269.473 363.545 269.473 362.682C269.473 361.8 268.975 361.283 268.131 361.283Z" fill="white"/>
<path d="M293.775 366.5H288.924V358.547H293.775V359.537H290.002V362.023H293.401V362.98H290.002V365.499H293.775V366.5ZM296.129 366.5H295.095V361.121H296.019L296.118 361.825C296.393 361.319 296.965 360.967 297.724 360.967C298.56 360.967 299.154 361.385 299.429 362.056C299.682 361.385 300.331 360.967 301.167 360.967C302.399 360.967 303.147 361.737 303.147 362.98V366.5H302.135V363.233C302.135 362.386 301.662 361.902 300.936 361.902C300.155 361.902 299.638 362.452 299.638 363.31V366.5H298.615V363.222C298.615 362.375 298.153 361.913 297.427 361.913C296.646 361.913 296.129 362.452 296.129 363.31V366.5ZM305.02 359.845C304.646 359.845 304.338 359.537 304.338 359.163C304.338 358.778 304.646 358.481 305.02 358.481C305.394 358.481 305.702 358.778 305.702 359.163C305.702 359.537 305.394 359.845 305.02 359.845ZM304.514 366.5V361.121H305.548V366.5H304.514ZM308.04 366.5H307.006V358.404H308.04V366.5ZM308.979 368.909V368.062H309.672C310.167 368.062 310.563 367.985 310.816 367.303L311.003 366.786L308.836 361.121H309.925L311.487 365.455L313.082 361.121H314.149L311.608 367.71C311.245 368.634 310.706 369.019 309.881 369.019C309.54 369.019 309.254 368.975 308.979 368.909ZM320.655 366.5H318.026V358.547H320.611C322.987 358.547 324.593 360.153 324.593 362.529C324.593 364.894 323.009 366.5 320.655 366.5ZM320.534 359.537H319.104V365.499H320.578C322.349 365.499 323.471 364.355 323.471 362.529C323.471 360.681 322.349 359.537 320.534 359.537ZM327.296 366.632C326.141 366.632 325.459 365.983 325.459 365.004C325.459 364.014 326.196 363.398 327.461 363.299L329.155 363.167V363.013C329.155 362.111 328.616 361.792 327.89 361.792C327.021 361.792 326.526 362.177 326.526 362.826H325.624C325.624 361.704 326.548 360.967 327.934 360.967C329.265 360.967 330.167 361.671 330.167 363.123V366.5H329.287L329.177 365.631C328.902 366.247 328.165 366.632 327.296 366.632ZM327.593 365.829C328.572 365.829 329.166 365.191 329.166 364.179V363.893L327.791 364.003C326.878 364.091 326.504 364.443 326.504 364.971C326.504 365.543 326.922 365.829 327.593 365.829ZM332.825 366.5L330.658 361.121H331.758L332.935 364.124C333.122 364.63 333.276 365.081 333.364 365.411C333.452 365.059 333.628 364.597 333.815 364.124L335.014 361.121H336.092L333.848 366.5H332.825ZM337.354 359.845C336.98 359.845 336.672 359.537 336.672 359.163C336.672 358.778 336.98 358.481 337.354 358.481C337.728 358.481 338.036 358.778 338.036 359.163C338.036 359.537 337.728 359.845 337.354 359.845ZM336.848 366.5V361.121H337.882V366.5H336.848ZM338.877 364.938H339.867C339.867 365.488 340.285 365.818 340.967 365.818C341.693 365.818 342.111 365.521 342.111 365.026C342.111 364.663 341.935 364.443 341.374 364.3L340.428 364.08C339.471 363.849 339.02 363.376 339.02 362.584C339.02 361.594 339.856 360.967 341.044 360.967C342.221 360.967 342.991 361.627 343.013 362.65H342.023C342.001 362.111 341.638 361.77 341.011 361.77C340.362 361.77 339.999 362.056 339.999 362.551C339.999 362.914 340.263 363.156 340.791 363.288L341.737 363.519C342.65 363.739 343.101 364.157 343.101 364.96C343.101 365.983 342.221 366.632 340.945 366.632C339.68 366.632 338.877 365.961 338.877 364.938Z" fill="#878787"/>
<path d="M403.628 366.608C402.296 366.608 401.432 365.762 401.432 364.466H402.305C402.305 365.303 402.818 365.816 403.646 365.816C404.528 365.816 405.095 365.231 405.095 364.349C405.095 363.512 404.564 362.891 403.655 362.891C403.106 362.891 402.602 363.152 402.305 363.521L401.558 363.332L402.35 359.993H405.608V360.803H402.989L402.557 362.531C402.899 362.27 403.331 362.135 403.817 362.135C405.14 362.135 405.995 363.062 405.995 364.313C405.995 365.663 405.032 366.608 403.628 366.608ZM406.686 364.691C406.686 363.908 407.145 363.278 407.865 363.017C407.253 362.756 406.92 362.243 406.92 361.586C406.92 360.569 407.793 359.876 409.089 359.876C410.367 359.876 411.231 360.569 411.231 361.595C411.231 362.261 410.889 362.774 410.277 363.017C411.006 363.251 411.474 363.899 411.474 364.7C411.474 365.843 410.52 366.608 409.08 366.608C407.631 366.608 406.686 365.843 406.686 364.691ZM407.73 361.64C407.73 362.279 408.261 362.693 409.071 362.693C409.89 362.693 410.403 362.288 410.403 361.658C410.403 361.037 409.89 360.641 409.071 360.641C408.261 360.641 407.73 361.037 407.73 361.64ZM407.55 364.628C407.55 365.357 408.153 365.825 409.08 365.825C409.998 365.825 410.601 365.357 410.601 364.628C410.601 363.908 410.007 363.449 409.071 363.449C408.144 363.449 407.55 363.908 407.55 364.628ZM413.359 360.785H411.991V359.993H414.205V366.5H413.359V360.785ZM415.468 364.493V363.737H418.213V364.493H415.468ZM424.014 365.186H423.24V366.5H422.394V365.186H419.028V364.403L422.097 359.993H423.24V364.403H424.014V365.186ZM419.982 364.403H422.394V360.929L419.982 364.403ZM424.813 364.691C424.813 363.908 425.272 363.278 425.992 363.017C425.38 362.756 425.047 362.243 425.047 361.586C425.047 360.569 425.92 359.876 427.216 359.876C428.494 359.876 429.358 360.569 429.358 361.595C429.358 362.261 429.016 362.774 428.404 363.017C429.133 363.251 429.601 363.899 429.601 364.7C429.601 365.843 428.647 366.608 427.207 366.608C425.758 366.608 424.813 365.843 424.813 364.691ZM425.857 361.64C425.857 362.279 426.388 362.693 427.198 362.693C428.017 362.693 428.53 362.288 428.53 361.658C428.53 361.037 428.017 360.641 427.198 360.641C426.388 360.641 425.857 361.037 425.857 361.64ZM425.677 364.628C425.677 365.357 426.28 365.825 427.207 365.825C428.125 365.825 428.728 365.357 428.728 364.628C428.728 363.908 428.134 363.449 427.198 363.449C426.271 363.449 425.677 363.908 425.677 364.628ZM434.644 366.491L430.252 366.5V365.825L432.349 364.016C433.402 363.107 433.699 362.666 433.699 361.973C433.699 361.154 433.231 360.668 432.448 360.668C431.647 360.668 431.125 361.253 431.107 362.18H430.225C430.252 360.785 431.134 359.876 432.457 359.876C433.762 359.876 434.599 360.668 434.599 361.919C434.599 362.846 434.14 363.503 432.988 364.502L431.638 365.672H434.644V366.491ZM437.527 366.608C436.195 366.608 435.331 365.762 435.331 364.466H436.204C436.204 365.303 436.717 365.816 437.545 365.816C438.427 365.816 438.994 365.231 438.994 364.349C438.994 363.512 438.463 362.891 437.554 362.891C437.005 362.891 436.501 363.152 436.204 363.521L435.457 363.332L436.249 359.993H439.507V360.803H436.888L436.456 362.531C436.798 362.27 437.23 362.135 437.716 362.135C439.039 362.135 439.894 363.062 439.894 364.313C439.894 365.663 438.931 366.608 437.527 366.608ZM440.73 364.493V363.737H443.475V364.493H440.73ZM448.136 364.439L446.615 366.5H445.589L447.218 364.34C446.993 364.43 446.759 364.475 446.534 364.475C445.184 364.475 444.275 363.503 444.275 362.207C444.275 360.857 445.301 359.876 446.642 359.876C447.992 359.876 449.036 360.893 449.036 362.216C449.036 362.981 448.802 363.53 448.136 364.439ZM448.136 362.207C448.136 361.316 447.524 360.668 446.642 360.668C445.778 360.668 445.166 361.316 445.166 362.207C445.166 363.098 445.778 363.728 446.642 363.728C447.524 363.728 448.136 363.098 448.136 362.207ZM449.697 364.691C449.697 363.908 450.156 363.278 450.876 363.017C450.264 362.756 449.931 362.243 449.931 361.586C449.931 360.569 450.804 359.876 452.1 359.876C453.378 359.876 454.242 360.569 454.242 361.595C454.242 362.261 453.9 362.774 453.288 363.017C454.017 363.251 454.485 363.899 454.485 364.7C454.485 365.843 453.531 366.608 452.091 366.608C450.642 366.608 449.697 365.843 449.697 364.691ZM450.741 361.64C450.741 362.279 451.272 362.693 452.082 362.693C452.901 362.693 453.414 362.288 453.414 361.658C453.414 361.037 452.901 360.641 452.082 360.641C451.272 360.641 450.741 361.037 450.741 361.64ZM450.561 364.628C450.561 365.357 451.164 365.825 452.091 365.825C453.009 365.825 453.612 365.357 453.612 364.628C453.612 363.908 453.018 363.449 452.082 363.449C451.155 363.449 450.561 363.908 450.561 364.628ZM454.83 359.993H459.375V360.803L456.909 366.5H455.991L458.484 360.803H454.83V359.993ZM461.867 366.608C460.535 366.608 459.671 365.762 459.671 364.466H460.544C460.544 365.303 461.057 365.816 461.885 365.816C462.767 365.816 463.334 365.231 463.334 364.349C463.334 363.512 462.803 362.891 461.894 362.891C461.345 362.891 460.841 363.152 460.544 363.521L459.797 363.332L460.589 359.993H463.847V360.803H461.228L460.796 362.531C461.138 362.27 461.57 362.135 462.056 362.135C463.379 362.135 464.234 363.062 464.234 364.313C464.234 365.663 463.271 366.608 461.867 366.608Z" fill="#AFAFAF"/>
<g filter="url(#filter4_f_3005_2655)">
<rect x="103" y="208" width="151" height="65" rx="32.5" fill="#00B3FF"/>
</g>
<path d="M91 106C91 99.3726 96.3726 94 103 94H254C260.627 94 266 99.3726 266 106V258C266 264.627 260.627 270 254 270H103C96.3726 270 91 264.627 91 258V106Z" fill="#F3F8FF"/>
<path d="M254 93.5C260.904 93.5 266.5 99.0964 266.5 106V258C266.5 264.904 260.904 270.5 254 270.5H103C96.0964 270.5 90.5 264.904 90.5 258V106C90.5 99.0964 96.0964 93.5 103 93.5H254Z" stroke="#006FFF" stroke-opacity="0.3"/>
<circle cx="113.936" cy="116.936" r="9.93586" fill="url(#paint0_linear_3005_2655)"/>
<path d="M109.896 114.232C109.896 112.834 111.029 111.701 112.427 111.701H117.775C117.775 113.099 116.642 114.232 115.244 114.232H109.896Z" fill="#F5F5F5"/>
<path d="M109.9 115.228C109.9 116.625 111.033 117.759 112.431 117.759H117.779C117.779 116.361 116.646 115.228 115.248 115.228H109.9Z" fill="#F5F5F5"/>
<path d="M109.896 121.278C109.896 119.88 111.029 118.747 112.427 118.747H117.775C117.775 120.145 116.642 121.278 115.244 121.278H109.896Z" fill="#F5F5F5"/>
<path opacity="0.6" d="M129.912 120H129.096L131.208 114.216H132.08L134.2 120H133.376L132.856 118.56H130.424L129.912 120ZM131.544 115.464L130.664 117.88H132.624L131.736 115.464C131.696 115.352 131.656 115.216 131.64 115.128C131.624 115.208 131.584 115.344 131.544 115.464ZM135.705 114.216V120H134.921V114.216H135.705ZM142.673 120H139.145V114.216H142.673V114.936H139.929V116.744H142.401V117.44H139.929V119.272H142.673V120ZM144.385 120H143.633V116.088H144.313L144.393 116.688C144.641 116.24 145.137 115.976 145.689 115.976C146.721 115.976 147.193 116.608 147.193 117.608V120H146.441V117.776C146.441 116.984 146.073 116.664 145.497 116.664C144.793 116.664 144.385 117.168 144.385 117.928V120ZM150.427 116.056V116.744H150.091C149.379 116.744 148.939 117.176 148.939 117.928V120H148.187V116.096H148.891L148.939 116.688C149.099 116.28 149.491 116.008 150.027 116.008C150.163 116.008 150.275 116.024 150.427 116.056ZM150.687 118.04C150.687 116.832 151.551 115.984 152.727 115.984C153.895 115.984 154.76 116.832 154.76 118.04C154.76 119.248 153.895 120.096 152.727 120.096C151.551 120.096 150.687 119.248 150.687 118.04ZM151.447 118.04C151.447 118.856 151.967 119.424 152.727 119.424C153.48 119.424 154.008 118.856 154.008 118.04C154.008 117.224 153.48 116.656 152.727 116.656C151.967 116.656 151.447 117.224 151.447 118.04ZM156.312 120H155.56V114.112H156.312V120ZM158.139 120H157.387V114.112H158.139V120Z" fill="#006FFF"/>
<path d="M130.14 149H129.16V141.77H130.14L133.84 147.36V141.77H134.82V149H133.84L130.14 143.41V149ZM138.394 149.12C136.954 149.12 135.964 148.08 135.964 146.56C135.964 145.03 136.934 143.97 138.354 143.97C139.744 143.97 140.654 144.93 140.654 146.38V146.73L136.874 146.74C136.944 147.77 137.484 148.34 138.414 148.34C139.144 148.34 139.624 148.04 139.784 147.48H140.664C140.424 148.53 139.604 149.12 138.394 149.12ZM138.354 144.76C137.534 144.76 137.014 145.25 136.894 146.11H139.714C139.714 145.3 139.184 144.76 138.354 144.76ZM142.528 149L140.928 144.11H141.898L142.708 146.65C142.818 147.01 142.918 147.38 143.008 147.81C143.088 147.38 143.218 146.97 143.328 146.65L144.148 144.11H145.108L145.918 146.65C145.998 146.89 146.158 147.46 146.238 147.81C146.318 147.42 146.408 147.08 146.548 146.65L147.368 144.11H148.348L146.678 149H145.788L144.938 146.38C144.778 145.89 144.678 145.51 144.628 145.24C144.578 145.48 144.488 145.8 144.308 146.39L143.458 149H142.528ZM152.908 149H151.928V141.77H154.658C156.208 141.77 157.128 142.59 157.128 143.94C157.128 144.94 156.628 145.66 155.728 145.95L157.198 149H156.108L154.758 146.14H152.908V149ZM152.908 142.65V145.27H154.668C155.578 145.27 156.098 144.78 156.098 143.95C156.098 143.11 155.558 142.65 154.658 142.65H152.908ZM157.579 146.55C157.579 145.04 158.659 143.98 160.129 143.98C161.589 143.98 162.669 145.04 162.669 146.55C162.669 148.06 161.589 149.12 160.129 149.12C158.659 149.12 157.579 148.06 157.579 146.55ZM158.529 146.55C158.529 147.57 159.179 148.28 160.129 148.28C161.069 148.28 161.729 147.57 161.729 146.55C161.729 145.53 161.069 144.82 160.129 144.82C159.179 144.82 158.529 145.53 158.529 146.55ZM163.33 146.55C163.33 145.04 164.41 143.98 165.88 143.98C167.34 143.98 168.42 145.04 168.42 146.55C168.42 148.06 167.34 149.12 165.88 149.12C164.41 149.12 163.33 148.06 163.33 146.55ZM164.28 146.55C164.28 147.57 164.93 148.28 165.88 148.28C166.82 148.28 167.48 147.57 167.48 146.55C167.48 145.53 166.82 144.82 165.88 144.82C164.93 144.82 164.28 145.53 164.28 146.55ZM172.681 149V144.9H170.511V149H169.571V144.9H168.851V144.11H169.571V143.33C169.571 142.13 170.221 141.64 171.071 141.64C171.251 141.64 171.471 141.65 171.651 141.68V142.49H171.231C170.661 142.49 170.511 142.8 170.511 143.33V144.11H173.621V149H172.681ZM173.151 142.91C172.811 142.91 172.551 142.65 172.551 142.31C172.551 141.97 172.811 141.71 173.151 141.71C173.481 141.71 173.741 141.97 173.741 142.31C173.741 142.65 173.481 142.91 173.151 142.91ZM175.837 149H174.897V144.11H175.747L175.847 144.86C176.157 144.3 176.777 143.97 177.467 143.97C178.757 143.97 179.347 144.76 179.347 146.01V149H178.407V146.22C178.407 145.23 177.947 144.83 177.227 144.83C176.347 144.83 175.837 145.46 175.837 146.41V149ZM180.279 146.43C180.279 145.05 181.169 143.97 182.589 143.97C183.379 143.97 183.989 144.33 184.299 144.94L184.369 144.11H185.209V148.8C185.209 150.34 184.259 151.32 182.759 151.32C181.429 151.32 180.519 150.57 180.339 149.33H181.279C181.399 150.05 181.939 150.47 182.759 150.47C183.679 150.47 184.279 149.87 184.279 148.94V147.96C183.959 148.53 183.319 148.87 182.549 148.87C181.159 148.87 180.279 147.8 180.279 146.43ZM181.219 146.41C181.219 147.33 181.789 148.05 182.709 148.05C183.659 148.05 184.239 147.37 184.239 146.41C184.239 145.47 183.679 144.79 182.719 144.79C181.779 144.79 181.219 145.51 181.219 146.41ZM190.32 141.77V149H189.34V141.77H190.32ZM192.726 149H191.786V144.11H192.636L192.736 144.86C193.046 144.3 193.666 143.97 194.356 143.97C195.646 143.97 196.236 144.76 196.236 146.01V149H195.296V146.22C195.296 145.23 194.836 144.83 194.116 144.83C193.236 144.83 192.726 145.46 192.726 146.41V149ZM197.158 146.52C197.158 145.02 198.038 143.97 199.438 143.97C200.208 143.97 200.878 144.32 201.198 144.99L201.278 144.11H202.118V151.19H201.188V148.2C200.858 148.8 200.208 149.13 199.428 149.13C197.988 149.13 197.158 148.01 197.158 146.52ZM198.108 146.56C198.108 147.56 198.668 148.28 199.628 148.28C200.588 148.28 201.178 147.56 201.178 146.56C201.178 145.54 200.588 144.83 199.628 144.83C198.668 144.83 198.108 145.55 198.108 146.56ZM206.794 144.11H207.724V149H206.884L206.784 148.26C206.504 148.77 205.854 149.12 205.134 149.12C203.994 149.12 203.354 148.35 203.354 147.15V144.11H204.294V146.84C204.294 147.89 204.744 148.29 205.464 148.29C206.324 148.29 206.794 147.74 206.794 146.69V144.11ZM209.488 142.95C209.148 142.95 208.868 142.67 208.868 142.33C208.868 141.98 209.148 141.71 209.488 141.71C209.828 141.71 210.108 141.98 210.108 142.33C210.108 142.67 209.828 142.95 209.488 142.95ZM209.028 149V144.11H209.968V149H209.028ZM214.073 144.07V144.93H213.653C212.763 144.93 212.213 145.47 212.213 146.41V149H211.273V144.12H212.153L212.213 144.86C212.413 144.35 212.903 144.01 213.573 144.01C213.743 144.01 213.883 144.03 214.073 144.07ZM214.571 151.19V150.42H215.201C215.651 150.42 216.011 150.35 216.241 149.73L216.411 149.26L214.441 144.11H215.431L216.851 148.05L218.301 144.11H219.271L216.961 150.1C216.631 150.94 216.141 151.29 215.391 151.29C215.081 151.29 214.821 151.25 214.571 151.19Z" fill="black"/>
<circle cx="119.82" cy="145.265" r="4.32019" stroke="#006FFF"/>
<path d="M118.07 145.75L119.57 146.75L121.57 143.25" stroke="#006FFF"/>
<path d="M130.14 169H129.16V161.77H131.89C133.44 161.77 134.36 162.59 134.36 163.94C134.36 164.94 133.86 165.66 132.96 165.95L134.43 169H133.34L131.99 166.14H130.14V169ZM130.14 162.65V165.27H131.9C132.81 165.27 133.33 164.78 133.33 163.95C133.33 163.11 132.79 162.65 131.89 162.65H130.14ZM137.242 169.12C135.802 169.12 134.812 168.08 134.812 166.56C134.812 165.03 135.782 163.97 137.202 163.97C138.592 163.97 139.502 164.93 139.502 166.38V166.73L135.722 166.74C135.792 167.77 136.332 168.34 137.262 168.34C137.992 168.34 138.472 168.04 138.632 167.48H139.512C139.272 168.53 138.452 169.12 137.242 169.12ZM137.202 164.76C136.382 164.76 135.862 165.25 135.742 166.11H138.562C138.562 165.3 138.032 164.76 137.202 164.76ZM141.432 168.99H140.492V161.64H141.432V164.86C141.742 164.33 142.332 163.97 143.092 163.97C144.342 163.97 144.942 164.76 144.942 166.01V169H144.002V166.22C144.002 165.23 143.532 164.83 142.832 164.83C141.922 164.83 141.432 165.49 141.432 166.33V168.99ZM147.613 169.12C146.563 169.12 145.943 168.53 145.943 167.64C145.943 166.74 146.613 166.18 147.763 166.09L149.303 165.97V165.83C149.303 165.01 148.813 164.72 148.153 164.72C147.363 164.72 146.913 165.07 146.913 165.66H146.093C146.093 164.64 146.933 163.97 148.193 163.97C149.403 163.97 150.223 164.61 150.223 165.93V169H149.423L149.323 168.21C149.073 168.77 148.403 169.12 147.613 169.12ZM147.883 168.39C148.773 168.39 149.313 167.81 149.313 166.89V166.63L148.063 166.73C147.233 166.81 146.893 167.13 146.893 167.61C146.893 168.13 147.273 168.39 147.883 168.39ZM151.065 167.58H151.965C151.965 168.08 152.345 168.38 152.965 168.38C153.625 168.38 154.005 168.11 154.005 167.66C154.005 167.33 153.845 167.13 153.335 167L152.475 166.8C151.605 166.59 151.195 166.16 151.195 165.44C151.195 164.54 151.955 163.97 153.035 163.97C154.105 163.97 154.805 164.57 154.825 165.5H153.925C153.905 165.01 153.575 164.7 153.005 164.7C152.415 164.7 152.085 164.96 152.085 165.41C152.085 165.74 152.325 165.96 152.805 166.08L153.665 166.29C154.495 166.49 154.905 166.87 154.905 167.6C154.905 168.53 154.105 169.12 152.945 169.12C151.795 169.12 151.065 168.51 151.065 167.58ZM156.828 168.99H155.888V161.64H156.828V164.86C157.138 164.33 157.728 163.97 158.488 163.97C159.738 163.97 160.338 164.76 160.338 166.01V169H159.398V166.22C159.398 165.23 158.928 164.83 158.228 164.83C157.318 164.83 156.828 165.49 156.828 166.33V168.99ZM165.394 169H164.414V161.77H167.144C168.694 161.77 169.614 162.59 169.614 163.94C169.614 164.94 169.114 165.66 168.214 165.95L169.684 169H168.594L167.244 166.14H165.394V169ZM165.394 162.65V165.27H167.154C168.064 165.27 168.584 164.78 168.584 163.95C168.584 163.11 168.044 162.65 167.144 162.65H165.394ZM170.065 166.55C170.065 165.04 171.145 163.98 172.615 163.98C174.075 163.98 175.155 165.04 175.155 166.55C175.155 168.06 174.075 169.12 172.615 169.12C171.145 169.12 170.065 168.06 170.065 166.55ZM171.015 166.55C171.015 167.57 171.665 168.28 172.615 168.28C173.555 168.28 174.215 167.57 174.215 166.55C174.215 165.53 173.555 164.82 172.615 164.82C171.665 164.82 171.015 165.53 171.015 166.55ZM175.816 166.55C175.816 165.04 176.896 163.98 178.366 163.98C179.826 163.98 180.906 165.04 180.906 166.55C180.906 168.06 179.826 169.12 178.366 169.12C176.896 169.12 175.816 168.06 175.816 166.55ZM176.766 166.55C176.766 167.57 177.416 168.28 178.366 168.28C179.306 168.28 179.966 167.57 179.966 166.55C179.966 165.53 179.306 164.82 178.366 164.82C177.416 164.82 176.766 165.53 176.766 166.55ZM185.167 169V164.9H182.997V169H182.057V164.9H181.337V164.11H182.057V163.33C182.057 162.13 182.707 161.64 183.557 161.64C183.737 161.64 183.957 161.65 184.137 161.68V162.49H183.717C183.147 162.49 182.997 162.8 182.997 163.33V164.11H186.107V169H185.167ZM185.637 162.91C185.297 162.91 185.037 162.65 185.037 162.31C185.037 161.97 185.297 161.71 185.637 161.71C185.967 161.71 186.227 161.97 186.227 162.31C186.227 162.65 185.967 162.91 185.637 162.91ZM188.323 169H187.383V164.11H188.233L188.333 164.86C188.643 164.3 189.263 163.97 189.953 163.97C191.243 163.97 191.833 164.76 191.833 166.01V169H190.893V166.22C190.893 165.23 190.433 164.83 189.713 164.83C188.833 164.83 188.323 165.46 188.323 166.41V169ZM192.765 166.43C192.765 165.05 193.655 163.97 195.075 163.97C195.865 163.97 196.475 164.33 196.785 164.94L196.855 164.11H197.695V168.8C197.695 170.34 196.745 171.32 195.245 171.32C193.915 171.32 193.005 170.57 192.825 169.33H193.765C193.885 170.05 194.425 170.47 195.245 170.47C196.165 170.47 196.765 169.87 196.765 168.94V167.96C196.445 168.53 195.805 168.87 195.035 168.87C193.645 168.87 192.765 167.8 192.765 166.43ZM193.705 166.41C193.705 167.33 194.275 168.05 195.195 168.05C196.145 168.05 196.725 167.37 196.725 166.41C196.725 165.47 196.165 164.79 195.205 164.79C194.265 164.79 193.705 165.51 193.705 166.41ZM202.806 161.77V169H201.826V161.77H202.806ZM205.212 169H204.272V164.11H205.122L205.222 164.86C205.532 164.3 206.152 163.97 206.842 163.97C208.132 163.97 208.722 164.76 208.722 166.01V169H207.782V166.22C207.782 165.23 207.322 164.83 206.602 164.83C205.722 164.83 205.212 165.46 205.212 166.41V169ZM209.644 166.52C209.644 165.02 210.524 163.97 211.924 163.97C212.694 163.97 213.364 164.32 213.684 164.99L213.764 164.11H214.604V171.19H213.674V168.2C213.344 168.8 212.694 169.13 211.914 169.13C210.474 169.13 209.644 168.01 209.644 166.52ZM210.594 166.56C210.594 167.56 211.154 168.28 212.114 168.28C213.074 168.28 213.664 167.56 213.664 166.56C213.664 165.54 213.074 164.83 212.114 164.83C211.154 164.83 210.594 165.55 210.594 166.56ZM219.28 164.11H220.21V169H219.37L219.27 168.26C218.99 168.77 218.34 169.12 217.62 169.12C216.48 169.12 215.84 168.35 215.84 167.15V164.11H216.78V166.84C216.78 167.89 217.23 168.29 217.95 168.29C218.81 168.29 219.28 167.74 219.28 166.69V164.11ZM221.974 162.95C221.634 162.95 221.354 162.67 221.354 162.33C221.354 161.98 221.634 161.71 221.974 161.71C222.314 161.71 222.594 161.98 222.594 162.33C222.594 162.67 222.314 162.95 221.974 162.95ZM221.514 169V164.11H222.454V169H221.514ZM226.559 164.07V164.93H226.139C225.249 164.93 224.699 165.47 224.699 166.41V169H223.759V164.12H224.639L224.699 164.86C224.899 164.35 225.389 164.01 226.059 164.01C226.229 164.01 226.369 164.03 226.559 164.07ZM227.057 171.19V170.42H227.687C228.137 170.42 228.497 170.35 228.727 169.73L228.897 169.26L226.927 164.11H227.917L229.337 168.05L230.787 164.11H231.757L229.447 170.1C229.117 170.94 228.627 171.29 227.877 171.29C227.567 171.29 227.307 171.25 227.057 171.19Z" fill="black"/>
<circle cx="119.82" cy="165.265" r="4.32019" stroke="#006FFF"/>
<path d="M130.14 189H129.16V181.77H130.14L133.84 187.36V181.77H134.82V189H133.84L130.14 183.41V189ZM138.394 189.12C136.954 189.12 135.964 188.08 135.964 186.56C135.964 185.03 136.934 183.97 138.354 183.97C139.744 183.97 140.654 184.93 140.654 186.38V186.73L136.874 186.74C136.944 187.77 137.484 188.34 138.414 188.34C139.144 188.34 139.624 188.04 139.784 187.48H140.664C140.424 188.53 139.604 189.12 138.394 189.12ZM138.354 184.76C137.534 184.76 137.014 185.25 136.894 186.11H139.714C139.714 185.3 139.184 184.76 138.354 184.76ZM142.528 189L140.928 184.11H141.898L142.708 186.65C142.818 187.01 142.918 187.38 143.008 187.81C143.088 187.38 143.218 186.97 143.328 186.65L144.148 184.11H145.108L145.918 186.65C145.998 186.89 146.158 187.46 146.238 187.81C146.318 187.42 146.408 187.08 146.548 186.65L147.368 184.11H148.348L146.678 189H145.788L144.938 186.38C144.778 185.89 144.678 185.51 144.628 185.24C144.578 185.48 144.488 185.8 144.308 186.39L143.458 189H142.528ZM153.388 189L151.238 181.77H152.258L153.578 186.19C153.678 186.57 153.778 186.95 153.878 187.5C153.998 186.92 154.108 186.57 154.218 186.19L155.588 181.77H156.648L158.008 186.19C158.128 186.58 158.228 186.96 158.338 187.5C158.458 186.89 158.558 186.52 158.658 186.2L159.988 181.77H160.988L158.808 189H157.868L156.118 183.28L154.348 189H153.388ZM162.217 182.95C161.877 182.95 161.597 182.67 161.597 182.33C161.597 181.98 161.877 181.71 162.217 181.71C162.557 181.71 162.837 181.98 162.837 182.33C162.837 182.67 162.557 182.95 162.217 182.95ZM161.757 189V184.11H162.697V189H161.757ZM164.942 189H164.002V184.11H164.852L164.952 184.86C165.262 184.3 165.882 183.97 166.572 183.97C167.862 183.97 168.452 184.76 168.452 186.01V189H167.512V186.22C167.512 185.23 167.052 184.83 166.332 184.83C165.452 184.83 164.942 185.46 164.942 186.41V189ZM171.653 189.12C170.233 189.12 169.373 188.06 169.373 186.57C169.373 185.07 170.243 183.97 171.693 183.97C172.443 183.97 173.073 184.3 173.403 184.9V181.64H174.333V189H173.493L173.413 188.11C173.093 188.78 172.433 189.12 171.653 189.12ZM171.843 188.27C172.803 188.27 173.393 187.56 173.393 186.54C173.393 185.54 172.803 184.82 171.843 184.82C170.883 184.82 170.323 185.54 170.323 186.54C170.323 187.55 170.883 188.27 171.843 188.27ZM175.31 186.55C175.31 185.04 176.39 183.98 177.86 183.98C179.32 183.98 180.4 185.04 180.4 186.55C180.4 188.06 179.32 189.12 177.86 189.12C176.39 189.12 175.31 188.06 175.31 186.55ZM176.26 186.55C176.26 187.57 176.91 188.28 177.86 188.28C178.8 188.28 179.46 187.57 179.46 186.55C179.46 185.53 178.8 184.82 177.86 184.82C176.91 184.82 176.26 185.53 176.26 186.55ZM182.206 189L180.606 184.11H181.576L182.386 186.65C182.496 187.01 182.596 187.38 182.686 187.81C182.766 187.38 182.896 186.97 183.006 186.65L183.826 184.11H184.786L185.596 186.65C185.676 186.89 185.836 187.46 185.916 187.81C185.996 187.42 186.086 187.08 186.226 186.65L187.046 184.11H188.026L186.356 189H185.466L184.616 186.38C184.456 185.89 184.356 185.51 184.306 185.24C184.256 185.48 184.166 185.8 183.986 186.39L183.136 189H182.206ZM192.586 181.77V189H191.606V181.77H192.586ZM194.992 189H194.052V184.11H194.902L195.002 184.86C195.312 184.3 195.932 183.97 196.622 183.97C197.912 183.97 198.502 184.76 198.502 186.01V189H197.562V186.22C197.562 185.23 197.102 184.83 196.382 184.83C195.502 184.83 194.992 185.46 194.992 186.41V189ZM199.424 186.52C199.424 185.02 200.304 183.97 201.704 183.97C202.474 183.97 203.144 184.32 203.464 184.99L203.544 184.11H204.384V191.19H203.454V188.2C203.124 188.8 202.474 189.13 201.694 189.13C200.254 189.13 199.424 188.01 199.424 186.52ZM200.374 186.56C200.374 187.56 200.934 188.28 201.894 188.28C202.854 188.28 203.444 187.56 203.444 186.56C203.444 185.54 202.854 184.83 201.894 184.83C200.934 184.83 200.374 185.55 200.374 186.56ZM209.06 184.11H209.99V189H209.15L209.05 188.26C208.77 188.77 208.12 189.12 207.4 189.12C206.26 189.12 205.62 188.35 205.62 187.15V184.11H206.56V186.84C206.56 187.89 207.01 188.29 207.73 188.29C208.59 188.29 209.06 187.74 209.06 186.69V184.11ZM211.754 182.95C211.414 182.95 211.134 182.67 211.134 182.33C211.134 181.98 211.414 181.71 211.754 181.71C212.094 181.71 212.374 181.98 212.374 182.33C212.374 182.67 212.094 182.95 211.754 182.95ZM211.294 189V184.11H212.234V189H211.294ZM216.338 184.07V184.93H215.918C215.028 184.93 214.478 185.47 214.478 186.41V189H213.538V184.12H214.418L214.478 184.86C214.678 184.35 215.168 184.01 215.838 184.01C216.008 184.01 216.148 184.03 216.338 184.07ZM216.836 191.19V190.42H217.466C217.916 190.42 218.276 190.35 218.506 189.73L218.676 189.26L216.706 184.11H217.696L219.116 188.05L220.566 184.11H221.536L219.226 190.1C218.896 190.94 218.406 191.29 217.656 191.29C217.346 191.29 217.086 191.25 216.836 191.19Z" fill="black"/>
<circle cx="119.82" cy="185.265" r="4.32019" stroke="#006FFF"/>
<path d="M130.14 209H129.16V201.77H131.89C133.44 201.77 134.36 202.59 134.36 203.94C134.36 204.94 133.86 205.66 132.96 205.95L134.43 209H133.34L131.99 206.14H130.14V209ZM130.14 202.65V205.27H131.9C132.81 205.27 133.33 204.78 133.33 203.95C133.33 203.11 132.79 202.65 131.89 202.65H130.14ZM137.242 209.12C135.802 209.12 134.812 208.08 134.812 206.56C134.812 205.03 135.782 203.97 137.202 203.97C138.592 203.97 139.502 204.93 139.502 206.38V206.73L135.722 206.74C135.792 207.77 136.332 208.34 137.262 208.34C137.992 208.34 138.472 208.04 138.632 207.48H139.512C139.272 208.53 138.452 209.12 137.242 209.12ZM137.202 204.76C136.382 204.76 135.862 205.25 135.742 206.11H138.562C138.562 205.3 138.032 204.76 137.202 204.76ZM141.432 208.99H140.492V201.64H141.432V204.86C141.742 204.33 142.332 203.97 143.092 203.97C144.342 203.97 144.942 204.76 144.942 206.01V209H144.002V206.22C144.002 205.23 143.532 204.83 142.832 204.83C141.922 204.83 141.432 205.49 141.432 206.33V208.99ZM147.613 209.12C146.563 209.12 145.943 208.53 145.943 207.64C145.943 206.74 146.613 206.18 147.763 206.09L149.303 205.97V205.83C149.303 205.01 148.813 204.72 148.153 204.72C147.363 204.72 146.913 205.07 146.913 205.66H146.093C146.093 204.64 146.933 203.97 148.193 203.97C149.403 203.97 150.223 204.61 150.223 205.93V209H149.423L149.323 208.21C149.073 208.77 148.403 209.12 147.613 209.12ZM147.883 208.39C148.773 208.39 149.313 207.81 149.313 206.89V206.63L148.063 206.73C147.233 206.81 146.893 207.13 146.893 207.61C146.893 208.13 147.273 208.39 147.883 208.39ZM151.065 207.58H151.965C151.965 208.08 152.345 208.38 152.965 208.38C153.625 208.38 154.005 208.11 154.005 207.66C154.005 207.33 153.845 207.13 153.335 207L152.475 206.8C151.605 206.59 151.195 206.16 151.195 205.44C151.195 204.54 151.955 203.97 153.035 203.97C154.105 203.97 154.805 204.57 154.825 205.5H153.925C153.905 205.01 153.575 204.7 153.005 204.7C152.415 204.7 152.085 204.96 152.085 205.41C152.085 205.74 152.325 205.96 152.805 206.08L153.665 206.29C154.495 206.49 154.905 206.87 154.905 207.6C154.905 208.53 154.105 209.12 152.945 209.12C151.795 209.12 151.065 208.51 151.065 207.58ZM156.828 208.99H155.888V201.64H156.828V204.86C157.138 204.33 157.728 203.97 158.488 203.97C159.738 203.97 160.338 204.76 160.338 206.01V209H159.398V206.22C159.398 205.23 158.928 204.83 158.228 204.83C157.318 204.83 156.828 205.49 156.828 206.33V208.99ZM165.874 209L163.724 201.77H164.744L166.064 206.19C166.164 206.57 166.264 206.95 166.364 207.5C166.484 206.92 166.594 206.57 166.704 206.19L168.074 201.77H169.134L170.494 206.19C170.614 206.58 170.714 206.96 170.824 207.5C170.944 206.89 171.044 206.52 171.144 206.2L172.474 201.77H173.474L171.294 209H170.354L168.604 203.28L166.834 209H165.874ZM174.703 202.95C174.363 202.95 174.083 202.67 174.083 202.33C174.083 201.98 174.363 201.71 174.703 201.71C175.043 201.71 175.323 201.98 175.323 202.33C175.323 202.67 175.043 202.95 174.703 202.95ZM174.243 209V204.11H175.183V209H174.243ZM177.428 209H176.488V204.11H177.338L177.438 204.86C177.748 204.3 178.368 203.97 179.058 203.97C180.348 203.97 180.938 204.76 180.938 206.01V209H179.998V206.22C179.998 205.23 179.538 204.83 178.818 204.83C177.938 204.83 177.428 205.46 177.428 206.41V209ZM184.139 209.12C182.719 209.12 181.859 208.06 181.859 206.57C181.859 205.07 182.729 203.97 184.179 203.97C184.929 203.97 185.559 204.3 185.889 204.9V201.64H186.819V209H185.979L185.899 208.11C185.579 208.78 184.919 209.12 184.139 209.12ZM184.329 208.27C185.289 208.27 185.879 207.56 185.879 206.54C185.879 205.54 185.289 204.82 184.329 204.82C183.369 204.82 182.809 205.54 182.809 206.54C182.809 207.55 183.369 208.27 184.329 208.27ZM187.796 206.55C187.796 205.04 188.876 203.98 190.346 203.98C191.806 203.98 192.886 205.04 192.886 206.55C192.886 208.06 191.806 209.12 190.346 209.12C188.876 209.12 187.796 208.06 187.796 206.55ZM188.746 206.55C188.746 207.57 189.396 208.28 190.346 208.28C191.286 208.28 191.946 207.57 191.946 206.55C191.946 205.53 191.286 204.82 190.346 204.82C189.396 204.82 188.746 205.53 188.746 206.55ZM194.692 209L193.092 204.11H194.062L194.872 206.65C194.982 207.01 195.082 207.38 195.172 207.81C195.252 207.38 195.382 206.97 195.492 206.65L196.312 204.11H197.272L198.082 206.65C198.162 206.89 198.322 207.46 198.402 207.81C198.482 207.42 198.572 207.08 198.712 206.65L199.532 204.11H200.512L198.842 209H197.952L197.102 206.38C196.942 205.89 196.842 205.51 196.792 205.24C196.742 205.48 196.652 205.8 196.472 206.39L195.622 209H194.692ZM205.072 201.77V209H204.092V201.77H205.072ZM207.478 209H206.538V204.11H207.388L207.488 204.86C207.798 204.3 208.418 203.97 209.108 203.97C210.398 203.97 210.988 204.76 210.988 206.01V209H210.048V206.22C210.048 205.23 209.588 204.83 208.868 204.83C207.988 204.83 207.478 205.46 207.478 206.41V209ZM211.91 206.52C211.91 205.02 212.79 203.97 214.19 203.97C214.96 203.97 215.63 204.32 215.95 204.99L216.03 204.11H216.87V211.19H215.94V208.2C215.61 208.8 214.96 209.13 214.18 209.13C212.74 209.13 211.91 208.01 211.91 206.52ZM212.86 206.56C212.86 207.56 213.42 208.28 214.38 208.28C215.34 208.28 215.93 207.56 215.93 206.56C215.93 205.54 215.34 204.83 214.38 204.83C213.42 204.83 212.86 205.55 212.86 206.56ZM221.546 204.11H222.476V209H221.636L221.536 208.26C221.256 208.77 220.606 209.12 219.886 209.12C218.746 209.12 218.106 208.35 218.106 207.15V204.11H219.046V206.84C219.046 207.89 219.496 208.29 220.216 208.29C221.076 208.29 221.546 207.74 221.546 206.69V204.11ZM224.24 202.95C223.9 202.95 223.62 202.67 223.62 202.33C223.62 201.98 223.9 201.71 224.24 201.71C224.58 201.71 224.86 201.98 224.86 202.33C224.86 202.67 224.58 202.95 224.24 202.95ZM223.78 209V204.11H224.72V209H223.78ZM228.824 204.07V204.93H228.404C227.514 204.93 226.964 205.47 226.964 206.41V209H226.024V204.12H226.904L226.964 204.86C227.164 204.35 227.654 204.01 228.324 204.01C228.494 204.01 228.634 204.03 228.824 204.07ZM229.322 211.19V210.42H229.952C230.402 210.42 230.762 210.35 230.992 209.73L231.162 209.26L229.192 204.11H230.182L231.602 208.05L233.052 204.11H234.022L231.712 210.1C231.382 210.94 230.892 211.29 230.142 211.29C229.832 211.29 229.572 211.25 229.322 211.19Z" fill="black"/>
<circle cx="119.82" cy="205.265" r="4.32019" stroke="#006FFF"/>
<path d="M130.14 229H129.16V221.77H130.14L133.84 227.36V221.77H134.82V229H133.84L130.14 223.41V229ZM138.394 229.12C136.954 229.12 135.964 228.08 135.964 226.56C135.964 225.03 136.934 223.97 138.354 223.97C139.744 223.97 140.654 224.93 140.654 226.38V226.73L136.874 226.74C136.944 227.77 137.484 228.34 138.414 228.34C139.144 228.34 139.624 228.04 139.784 227.48H140.664C140.424 228.53 139.604 229.12 138.394 229.12ZM138.354 224.76C137.534 224.76 137.014 225.25 136.894 226.11H139.714C139.714 225.3 139.184 224.76 138.354 224.76ZM142.528 229L140.928 224.11H141.898L142.708 226.65C142.818 227.01 142.918 227.38 143.008 227.81C143.088 227.38 143.218 226.97 143.328 226.65L144.148 224.11H145.108L145.918 226.65C145.998 226.89 146.158 227.46 146.238 227.81C146.318 227.42 146.408 227.08 146.548 226.65L147.368 224.11H148.348L146.678 229H145.788L144.938 226.38C144.778 225.89 144.678 225.51 144.628 225.24C144.578 225.48 144.488 225.8 144.308 226.39L143.458 229H142.528ZM151.508 223.72C151.508 222.48 152.508 221.64 153.998 221.64C155.378 221.64 156.268 222.41 156.348 223.66H155.358C155.308 222.94 154.798 222.52 153.988 222.52C153.078 222.52 152.488 222.98 152.488 223.69C152.488 224.27 152.818 224.62 153.498 224.78L154.688 225.06C155.868 225.33 156.468 225.97 156.468 226.99C156.468 228.29 155.458 229.12 153.918 229.12C152.448 229.12 151.468 228.35 151.408 227.11H152.408C152.428 227.8 153.008 228.24 153.918 228.24C154.878 228.24 155.488 227.79 155.488 227.07C155.488 226.5 155.178 226.14 154.488 225.98L153.298 225.71C152.118 225.44 151.508 224.76 151.508 223.72ZM158.439 229H157.499V221.64H158.439V229ZM160.223 222.95C159.883 222.95 159.603 222.67 159.603 222.33C159.603 221.98 159.883 221.71 160.223 221.71C160.563 221.71 160.843 221.98 160.843 222.33C160.843 222.67 160.563 222.95 160.223 222.95ZM159.763 229V224.11H160.703V229H159.763ZM163.968 229.12C162.548 229.12 161.688 228.06 161.688 226.57C161.688 225.07 162.558 223.97 164.008 223.97C164.758 223.97 165.388 224.3 165.718 224.9V221.64H166.648V229H165.808L165.728 228.11C165.408 228.78 164.748 229.12 163.968 229.12ZM164.158 228.27C165.118 228.27 165.708 227.56 165.708 226.54C165.708 225.54 165.118 224.82 164.158 224.82C163.198 224.82 162.638 225.54 162.638 226.54C162.638 227.55 163.198 228.27 164.158 228.27ZM168.404 222.95C168.064 222.95 167.784 222.67 167.784 222.33C167.784 221.98 168.064 221.71 168.404 221.71C168.744 221.71 169.024 221.98 169.024 222.33C169.024 222.67 168.744 222.95 168.404 222.95ZM167.944 229V224.11H168.884V229H167.944ZM171.129 229H170.189V224.11H171.039L171.139 224.86C171.449 224.3 172.069 223.97 172.759 223.97C174.049 223.97 174.639 224.76 174.639 226.01V229H173.699V226.22C173.699 225.23 173.239 224.83 172.519 224.83C171.639 224.83 171.129 225.46 171.129 226.41V229ZM175.571 226.43C175.571 225.05 176.461 223.97 177.881 223.97C178.671 223.97 179.281 224.33 179.591 224.94L179.661 224.11H180.501V228.8C180.501 230.34 179.551 231.32 178.051 231.32C176.721 231.32 175.811 230.57 175.631 229.33H176.571C176.691 230.05 177.231 230.47 178.051 230.47C178.971 230.47 179.571 229.87 179.571 228.94V227.96C179.251 228.53 178.611 228.87 177.841 228.87C176.451 228.87 175.571 227.8 175.571 226.43ZM176.511 226.41C176.511 227.33 177.081 228.05 178.001 228.05C178.951 228.05 179.531 227.37 179.531 226.41C179.531 225.47 178.971 224.79 178.011 224.79C177.071 224.79 176.511 225.51 176.511 226.41ZM185.612 221.77V229H184.632V221.77H185.612ZM188.018 229H187.078V224.11H187.928L188.028 224.86C188.338 224.3 188.958 223.97 189.648 223.97C190.938 223.97 191.528 224.76 191.528 226.01V229H190.588V226.22C190.588 225.23 190.128 224.83 189.408 224.83C188.528 224.83 188.018 225.46 188.018 226.41V229ZM192.45 226.52C192.45 225.02 193.33 223.97 194.73 223.97C195.5 223.97 196.17 224.32 196.49 224.99L196.57 224.11H197.41V231.19H196.48V228.2C196.15 228.8 195.5 229.13 194.72 229.13C193.28 229.13 192.45 228.01 192.45 226.52ZM193.4 226.56C193.4 227.56 193.96 228.28 194.92 228.28C195.88 228.28 196.47 227.56 196.47 226.56C196.47 225.54 195.88 224.83 194.92 224.83C193.96 224.83 193.4 225.55 193.4 226.56ZM202.086 224.11H203.016V229H202.176L202.076 228.26C201.796 228.77 201.146 229.12 200.426 229.12C199.286 229.12 198.646 228.35 198.646 227.15V224.11H199.586V226.84C199.586 227.89 200.036 228.29 200.756 228.29C201.616 228.29 202.086 227.74 202.086 226.69V224.11ZM204.779 222.95C204.439 222.95 204.159 222.67 204.159 222.33C204.159 221.98 204.439 221.71 204.779 221.71C205.119 221.71 205.399 221.98 205.399 222.33C205.399 222.67 205.119 222.95 204.779 222.95ZM204.319 229V224.11H205.259V229H204.319ZM209.364 224.07V224.93H208.944C208.054 224.93 207.504 225.47 207.504 226.41V229H206.564V224.12H207.444L207.504 224.86C207.704 224.35 208.194 224.01 208.864 224.01C209.034 224.01 209.174 224.03 209.364 224.07ZM209.862 231.19V230.42H210.492C210.942 230.42 211.302 230.35 211.532 229.73L211.702 229.26L209.732 224.11H210.722L212.142 228.05L213.592 224.11H214.562L212.252 230.1C211.922 230.94 211.432 231.29 210.682 231.29C210.372 231.29 210.112 231.25 209.862 231.19Z" fill="black"/>
<circle cx="119.82" cy="225.265" r="4.32019" stroke="#006FFF"/>
<path d="M130.14 249H129.16V241.77H131.89C133.44 241.77 134.36 242.59 134.36 243.94C134.36 244.94 133.86 245.66 132.96 245.95L134.43 249H133.34L131.99 246.14H130.14V249ZM130.14 242.65V245.27H131.9C132.81 245.27 133.33 244.78 133.33 243.95C133.33 243.11 132.79 242.65 131.89 242.65H130.14ZM137.242 249.12C135.802 249.12 134.812 248.08 134.812 246.56C134.812 245.03 135.782 243.97 137.202 243.97C138.592 243.97 139.502 244.93 139.502 246.38V246.73L135.722 246.74C135.792 247.77 136.332 248.34 137.262 248.34C137.992 248.34 138.472 248.04 138.632 247.48H139.512C139.272 248.53 138.452 249.12 137.242 249.12ZM137.202 244.76C136.382 244.76 135.862 245.25 135.742 246.11H138.562C138.562 245.3 138.032 244.76 137.202 244.76ZM141.432 248.99H140.492V241.64H141.432V244.86C141.742 244.33 142.332 243.97 143.092 243.97C144.342 243.97 144.942 244.76 144.942 246.01V249H144.002V246.22C144.002 245.23 143.532 244.83 142.832 244.83C141.922 244.83 141.432 245.49 141.432 246.33V248.99ZM147.613 249.12C146.563 249.12 145.943 248.53 145.943 247.64C145.943 246.74 146.613 246.18 147.763 246.09L149.303 245.97V245.83C149.303 245.01 148.813 244.72 148.153 244.72C147.363 244.72 146.913 245.07 146.913 245.66H146.093C146.093 244.64 146.933 243.97 148.193 243.97C149.403 243.97 150.223 244.61 150.223 245.93V249H149.423L149.323 248.21C149.073 248.77 148.403 249.12 147.613 249.12ZM147.883 248.39C148.773 248.39 149.313 247.81 149.313 246.89V246.63L148.063 246.73C147.233 246.81 146.893 247.13 146.893 247.61C146.893 248.13 147.273 248.39 147.883 248.39ZM151.065 247.58H151.965C151.965 248.08 152.345 248.38 152.965 248.38C153.625 248.38 154.005 248.11 154.005 247.66C154.005 247.33 153.845 247.13 153.335 247L152.475 246.8C151.605 246.59 151.195 246.16 151.195 245.44C151.195 244.54 151.955 243.97 153.035 243.97C154.105 243.97 154.805 244.57 154.825 245.5H153.925C153.905 245.01 153.575 244.7 153.005 244.7C152.415 244.7 152.085 244.96 152.085 245.41C152.085 245.74 152.325 245.96 152.805 246.08L153.665 246.29C154.495 246.49 154.905 246.87 154.905 247.6C154.905 248.53 154.105 249.12 152.945 249.12C151.795 249.12 151.065 248.51 151.065 247.58ZM156.828 248.99H155.888V241.64H156.828V244.86C157.138 244.33 157.728 243.97 158.488 243.97C159.738 243.97 160.338 244.76 160.338 246.01V249H159.398V246.22C159.398 245.23 158.928 244.83 158.228 244.83C157.318 244.83 156.828 245.49 156.828 246.33V248.99ZM163.994 243.72C163.994 242.48 164.994 241.64 166.484 241.64C167.864 241.64 168.754 242.41 168.834 243.66H167.844C167.794 242.94 167.284 242.52 166.474 242.52C165.564 242.52 164.974 242.98 164.974 243.69C164.974 244.27 165.304 244.62 165.984 244.78L167.174 245.06C168.354 245.33 168.954 245.97 168.954 246.99C168.954 248.29 167.944 249.12 166.404 249.12C164.934 249.12 163.954 248.35 163.894 247.11H164.894C164.914 247.8 165.494 248.24 166.404 248.24C167.364 248.24 167.974 247.79 167.974 247.07C167.974 246.5 167.664 246.14 166.974 245.98L165.784 245.71C164.604 245.44 163.994 244.76 163.994 243.72ZM170.926 249H169.986V241.64H170.926V249ZM172.709 242.95C172.369 242.95 172.089 242.67 172.089 242.33C172.089 241.98 172.369 241.71 172.709 241.71C173.049 241.71 173.329 241.98 173.329 242.33C173.329 242.67 173.049 242.95 172.709 242.95ZM172.249 249V244.11H173.189V249H172.249ZM176.454 249.12C175.034 249.12 174.174 248.06 174.174 246.57C174.174 245.07 175.044 243.97 176.494 243.97C177.244 243.97 177.874 244.3 178.204 244.9V241.64H179.134V249H178.294L178.214 248.11C177.894 248.78 177.234 249.12 176.454 249.12ZM176.644 248.27C177.604 248.27 178.194 247.56 178.194 246.54C178.194 245.54 177.604 244.82 176.644 244.82C175.684 244.82 175.124 245.54 175.124 246.54C175.124 247.55 175.684 248.27 176.644 248.27ZM180.89 242.95C180.55 242.95 180.27 242.67 180.27 242.33C180.27 241.98 180.55 241.71 180.89 241.71C181.23 241.71 181.51 241.98 181.51 242.33C181.51 242.67 181.23 242.95 180.89 242.95ZM180.43 249V244.11H181.37V249H180.43ZM183.615 249H182.675V244.11H183.525L183.625 244.86C183.935 244.3 184.555 243.97 185.245 243.97C186.535 243.97 187.125 244.76 187.125 246.01V249H186.185V246.22C186.185 245.23 185.725 244.83 185.005 244.83C184.125 244.83 183.615 245.46 183.615 246.41V249ZM188.057 246.43C188.057 245.05 188.947 243.97 190.367 243.97C191.157 243.97 191.767 244.33 192.077 244.94L192.147 244.11H192.987V248.8C192.987 250.34 192.037 251.32 190.537 251.32C189.207 251.32 188.297 250.57 188.117 249.33H189.057C189.177 250.05 189.717 250.47 190.537 250.47C191.457 250.47 192.057 249.87 192.057 248.94V247.96C191.737 248.53 191.097 248.87 190.327 248.87C188.937 248.87 188.057 247.8 188.057 246.43ZM188.997 246.41C188.997 247.33 189.567 248.05 190.487 248.05C191.437 248.05 192.017 247.37 192.017 246.41C192.017 245.47 191.457 244.79 190.497 244.79C189.557 244.79 188.997 245.51 188.997 246.41ZM198.098 241.77V249H197.118V241.77H198.098ZM200.504 249H199.564V244.11H200.414L200.514 244.86C200.824 244.3 201.444 243.97 202.134 243.97C203.424 243.97 204.014 244.76 204.014 246.01V249H203.074V246.22C203.074 245.23 202.614 244.83 201.894 244.83C201.014 244.83 200.504 245.46 200.504 246.41V249ZM204.936 246.52C204.936 245.02 205.816 243.97 207.216 243.97C207.986 243.97 208.656 244.32 208.976 244.99L209.056 244.11H209.896V251.19H208.966V248.2C208.636 248.8 207.986 249.13 207.206 249.13C205.766 249.13 204.936 248.01 204.936 246.52ZM205.886 246.56C205.886 247.56 206.446 248.28 207.406 248.28C208.366 248.28 208.956 247.56 208.956 246.56C208.956 245.54 208.366 244.83 207.406 244.83C206.446 244.83 205.886 245.55 205.886 246.56ZM214.572 244.11H215.502V249H214.662L214.562 248.26C214.282 248.77 213.632 249.12 212.912 249.12C211.772 249.12 211.132 248.35 211.132 247.15V244.11H212.072V246.84C212.072 247.89 212.522 248.29 213.242 248.29C214.102 248.29 214.572 247.74 214.572 246.69V244.11ZM217.266 242.95C216.926 242.95 216.646 242.67 216.646 242.33C216.646 241.98 216.926 241.71 217.266 241.71C217.606 241.71 217.886 241.98 217.886 242.33C217.886 242.67 217.606 242.95 217.266 242.95ZM216.806 249V244.11H217.746V249H216.806ZM221.85 244.07V244.93H221.43C220.54 244.93 219.99 245.47 219.99 246.41V249H219.05V244.12H219.93L219.99 244.86C220.19 244.35 220.68 244.01 221.35 244.01C221.52 244.01 221.66 244.03 221.85 244.07ZM222.348 251.19V250.42H222.978C223.428 250.42 223.788 250.35 224.018 249.73L224.188 249.26L222.218 244.11H223.208L224.628 248.05L226.078 244.11H227.048L224.738 250.1C224.408 250.94 223.918 251.29 223.168 251.29C222.858 251.29 222.598 251.25 222.348 251.19Z" fill="black"/>
<circle cx="119.82" cy="245.265" r="4.32019" stroke="#006FFF"/>
<rect x="374" y="25" width="54" height="54" rx="13" fill="#F3F8FF"/>
<rect x="373.5" y="24.5" width="55" height="55" rx="13.5" stroke="#006FFF" stroke-opacity="0.3"/>
<rect x="378" y="29" width="46" height="46" rx="10" fill="white"/>
<path d="M411.162 60.3545C410.538 60.7563 409.797 60.9912 409 60.9912H393C392.203 60.9912 391.461 60.7565 390.837 60.3545L399.23 51.418L400.5 52.1514C400.809 52.33 401.191 52.33 401.5 52.1514L402.769 51.418L411.162 60.3545ZM397.451 50.3916L389.476 58.8838C389.172 58.3203 389 57.6759 389 56.9912V48C389 47.2158 389.226 46.4846 389.616 45.8672L397.451 50.3916ZM412.383 45.8672C412.773 46.4847 413 47.2156 413 48V56.9912C413 57.6761 412.827 58.3202 412.523 58.8838L404.548 50.3916L412.383 45.8672ZM409 44C409.664 44 410.289 44.1623 410.84 44.4482L401 50.1299L391.159 44.4482C391.71 44.1621 392.336 44 393 44H409Z" fill="url(#paint1_linear_3005_2655)"/>
<rect x="50.825" y="252.5" width="54" height="54" rx="13" fill="#F3F8FF"/>
<rect x="50.325" y="252" width="55" height="55" rx="13.5" stroke="#006FFF" stroke-opacity="0.3"/>
<rect x="54.825" y="256.5" width="46" height="46" rx="10" fill="white"/>
<path d="M66.5594 274.986L67.6057 273.94C68.278 273.267 69.3873 273.336 69.971 274.087L72.1792 276.926C72.6686 277.555 72.6128 278.45 72.0492 279.014L71.774 279.289C71.1567 279.906 71.1567 280.907 71.774 281.524L76.6771 286.428C77.2944 287.045 78.2951 287.045 78.9124 286.428L79.1876 286.152C79.7513 285.589 80.6464 285.533 81.2756 286.022L84.1147 288.231C84.8652 288.814 84.9343 289.924 84.262 290.596L83.2157 291.642C82.0301 292.828 80.405 293.446 78.841 292.841C76.5061 291.939 73.2354 290.124 70.6563 287.545C68.0772 284.966 66.2625 281.695 65.3602 279.361C64.7557 277.797 65.3738 276.171 66.5594 274.986Z" fill="url(#paint2_linear_3005_2655)"/>
<path d="M85.075 280.476C85.075 276.417 81.7843 273.126 77.725 273.126C77.1451 273.126 76.675 272.656 76.675 272.076C76.675 271.496 77.1451 271.026 77.725 271.026C82.944 271.026 87.175 275.257 87.175 280.476C87.175 281.056 86.7049 281.526 86.125 281.526C85.5451 281.526 85.075 281.056 85.075 280.476Z" fill="url(#paint3_linear_3005_2655)"/>
<path d="M89.275 280.476C89.275 274.097 84.1038 268.926 77.725 268.926C77.1451 268.926 76.675 268.456 76.675 267.876C76.675 267.296 77.1451 266.826 77.725 266.826C85.2636 266.826 91.375 272.937 91.375 280.476C91.375 281.056 90.9049 281.526 90.325 281.526C89.7451 281.526 89.275 281.056 89.275 280.476Z" fill="url(#paint4_linear_3005_2655)"/>
<path d="M80.875 280.477C80.875 278.737 79.4647 277.327 77.725 277.327C77.1451 277.327 76.675 276.856 76.675 276.277C76.675 275.697 77.1451 275.227 77.725 275.227C80.6245 275.227 82.975 277.577 82.975 280.477C82.975 281.056 82.5049 281.527 81.925 281.527C81.3451 281.527 80.875 281.056 80.875 280.477Z" fill="url(#paint5_linear_3005_2655)"/>
<rect x="198.32" y="312" width="54" height="54" rx="13" fill="#F3F8FF"/>
<rect x="197.82" y="311.5" width="55" height="55" rx="13.5" stroke="#006FFF" stroke-opacity="0.3"/>
<rect x="202.32" y="316" width="46" height="46" rx="10" fill="white"/>
<path d="M225 328.401C231.627 328.401 237 333.017 237 338.71C237 344.403 231.627 349.019 225 349.019C222.872 349.019 220.875 348.541 219.142 347.706L215 349.519V344.406C213.738 342.774 213 340.816 213 338.71C213 333.017 218.373 328.401 225 328.401Z" fill="url(#paint6_linear_3005_2655)"/>
<circle cx="220.5" cy="339.01" r="1.5" fill="white"/>
<circle cx="225.5" cy="339.01" r="1.5" fill="white"/>
<circle cx="230.5" cy="339.01" r="1.5" fill="white"/>
<path d="M64.0993 103L65.4377 75.4577C65.4377 74.6478 64.8388 74 64.0993 74C63.3567 74 62.7546 74.6478 62.7546 75.4577L64.0993 103Z" fill="#006FFF"/>
<path d="M153.79 339.003L181.333 340.342C182.143 340.342 182.79 339.743 182.79 339.003C182.79 338.261 182.143 337.659 181.333 337.659L153.79 339.003Z" fill="#006FFF"/>
<path d="M201.482 52.0033L229.024 53.3418C229.834 53.3418 230.482 52.7428 230.482 52.0033C230.482 51.2607 229.834 50.6587 229.024 50.6587L201.482 52.0033Z" fill="#006FFF"/>
</g>
<defs>
<filter id="filter0_f_3005_2655" x="152.272" y="-79.8916" width="211.823" height="233.366" filterUnits="userSpaceOnUse" color-interpolation-filters="sRGB">
<feFlood flood-opacity="0" result="BackgroundImageFix"/>
<feBlend mode="normal" in="SourceGraphic" in2="BackgroundImageFix" result="shape"/>
<feGaussianBlur stdDeviation="20" result="effect1_foregroundBlur_3005_2655"/>
</filter>
<filter id="filter1_f_3005_2655" x="304.118" y="-125.514" width="211.823" height="233.366" filterUnits="userSpaceOnUse" color-interpolation-filters="sRGB">
<feFlood flood-opacity="0" result="BackgroundImageFix"/>
<feBlend mode="normal" in="SourceGraphic" in2="BackgroundImageFix" result="shape"/>
<feGaussianBlur stdDeviation="20" result="effect1_foregroundBlur_3005_2655"/>
</filter>
<filter id="filter2_f_3005_2655" x="252.414" y="-24.1787" width="169.225" height="177.27" filterUnits="userSpaceOnUse" color-interpolation-filters="sRGB">
<feFlood flood-opacity="0" result="BackgroundImageFix"/>
<feBlend mode="normal" in="SourceGraphic" in2="BackgroundImageFix" result="shape"/>
<feGaussianBlur stdDeviation="30" result="effect1_foregroundBlur_3005_2655"/>
</filter>
<filter id="filter3_f_3005_2655" x="441.781" y="43.3838" width="137.568" height="146.977" filterUnits="userSpaceOnUse" color-interpolation-filters="sRGB">
<feFlood flood-opacity="0" result="BackgroundImageFix"/>
<feBlend mode="normal" in="SourceGraphic" in2="BackgroundImageFix" result="shape"/>
<feGaussianBlur stdDeviation="20" result="effect1_foregroundBlur_3005_2655"/>
</filter>
<filter id="filter4_f_3005_2655" x="89" y="194" width="179" height="93" filterUnits="userSpaceOnUse" color-interpolation-filters="sRGB">
<feFlood flood-opacity="0" result="BackgroundImageFix"/>
<feBlend mode="normal" in="SourceGraphic" in2="BackgroundImageFix" result="shape"/>
<feGaussianBlur stdDeviation="7" result="effect1_foregroundBlur_3005_2655"/>
</filter>
<linearGradient id="paint0_linear_3005_2655" x1="113.936" y1="107" x2="113.936" y2="126.872" gradientUnits="userSpaceOnUse">
<stop stop-color="#6C63AB"/>
<stop offset="1" stop-color="#006FFF"/>
</linearGradient>
<linearGradient id="paint1_linear_3005_2655" x1="401" y1="44.4912" x2="401" y2="60.9912" gradientUnits="userSpaceOnUse">
<stop stop-color="#6C63AB"/>
<stop offset="1" stop-color="#006FFF"/>
</linearGradient>
<linearGradient id="paint2_linear_3005_2655" x1="74.925" y1="273.477" x2="74.925" y2="293.077" gradientUnits="userSpaceOnUse">
<stop stop-color="#6C63AB"/>
<stop offset="1" stop-color="#006FFF"/>
</linearGradient>
<linearGradient id="paint3_linear_3005_2655" x1="81.925" y1="271.026" x2="81.925" y2="281.526" gradientUnits="userSpaceOnUse">
<stop stop-color="#6C63AB"/>
<stop offset="1" stop-color="#006FFF"/>
</linearGradient>
<linearGradient id="paint4_linear_3005_2655" x1="84.025" y1="266.826" x2="84.025" y2="281.526" gradientUnits="userSpaceOnUse">
<stop stop-color="#6C63AB"/>
<stop offset="1" stop-color="#006FFF"/>
</linearGradient>
<linearGradient id="paint5_linear_3005_2655" x1="79.825" y1="275.227" x2="79.825" y2="281.527" gradientUnits="userSpaceOnUse">
<stop stop-color="#6C63AB"/>
<stop offset="1" stop-color="#006FFF"/>
</linearGradient>
<linearGradient id="paint6_linear_3005_2655" x1="226.5" y1="329.112" x2="226.5" y2="351.531" gradientUnits="userSpaceOnUse">
<stop stop-color="#6C63AB"/>
<stop offset="1" stop-color="#006FFF"/>
</linearGradient>
<clipPath id="clip0_3005_2655">
<rect width="564" height="400" fill="white"/>
</clipPath>
</defs>
</svg>
