<svg width="150" height="24" viewBox="0 0 150 24" fill="none" xmlns="http://www.w3.org/2000/svg">
<path d="M0.289106 13.8506C2.1107 14.9494 4.59747 15.4988 6.04331 15.4988C7.31568 15.4988 7.9807 15.0362 7.9807 14.1397C7.9807 13.1856 7.19988 12.8675 6.13011 12.5206L5.3493 12.2313C3.26743 11.5951 0.17346 10.612 0.17346 6.50611C0.17346 2.40004 3.20961 0.867395 7.48914 0.867395C9.36856 0.867395 11.2481 1.15665 12.8674 1.64821L12.6072 6.27467C10.8722 5.43619 8.44327 5.03128 7.34451 5.03128C6.10113 5.03128 5.49393 5.52284 5.49393 6.36148C5.49393 7.19996 6.15895 7.60486 7.22887 7.95179L8.41443 8.32771C10.4385 8.93491 13.5903 9.88918 13.5903 13.9084C13.5903 17.6386 10.8722 19.6626 6.24576 19.6626C4.25055 19.6626 1.99506 19.2579 0 18.4771L0.289106 13.8506ZM23.6422 19.1133C22.7458 19.4314 21.4446 19.6626 20.1723 19.6626C16.7313 19.6626 14.7939 18.0145 14.7939 14.8049V9.07953H12.9723V5.58066C14.9675 5.17592 16.0951 3.90354 16.3554 1.87949H19.9987V4.91564H23.6422V9.07953H19.9987V13.6193C19.9987 14.8337 20.5483 15.3543 21.8205 15.3543C22.341 15.3543 23.1217 15.2386 23.6422 15.094V19.1133ZM24.5982 19.3735V4.91564H29.5139V8.0386C30.0923 5.84094 31.7404 4.62654 34.5741 4.62654V10.0626H33.2151C31.6247 10.0626 30.3524 10.6698 29.803 11.7976V19.3735H24.5982ZM35.2658 14.6603V4.91564H40.4706V13.1278C40.4706 14.5156 41.049 15.1808 42.2056 15.1808C43.0442 15.1808 43.796 14.7471 44.2876 14.2555V4.91564H49.4924V19.3735H45.3285L44.8948 17.5808C43.9695 18.7663 42.0321 19.6626 40.0081 19.6626C37.1164 19.6626 35.2658 17.6964 35.2658 14.6603ZM50.3808 12.1157C50.3808 7.17113 53.4748 4.62654 58.1592 4.62654C59.6339 4.62654 61.0798 4.88681 62.1495 5.26272L61.7448 9.88918C61.0508 9.45545 59.8942 9.02171 58.7375 9.02171C56.8869 9.02171 55.7303 10.0916 55.7303 12.2025C55.7303 14.2844 56.8002 15.3253 58.9111 15.3253C59.6917 15.3253 61.311 15.1808 62.2363 14.9205L61.8604 19.1133C61.0508 19.4025 59.4605 19.6626 58.0724 19.6626C53.446 19.6626 50.3808 17.0314 50.3808 12.1157ZM73.5648 19.1133C72.6683 19.4314 71.3671 19.6626 70.0949 19.6626C66.6538 19.6626 64.7166 18.0145 64.7166 14.8049V9.07953H62.8948V5.58066C64.89 5.17592 66.0178 3.90354 66.278 1.87949H69.9214V4.91564H73.5648V9.07953H69.9214V13.6193C69.9214 14.8337 70.4708 15.3543 71.743 15.3543C72.2635 15.3543 73.0442 15.2386 73.5648 15.094V19.1133ZM74.2941 14.6603V4.91564H79.4991V13.1278C79.4991 14.5156 80.0773 15.1808 81.234 15.1808C82.0725 15.1808 82.8243 14.7471 83.3159 14.2555V4.91564H88.5207V19.3735H84.3568L83.9231 17.5808C82.9978 18.7663 81.0604 19.6626 79.0364 19.6626C76.1449 19.6626 74.2941 17.6964 74.2941 14.6603ZM90.0743 19.3735V4.91564H94.9897V8.0386C95.5679 5.84094 97.2161 4.62654 100.049 4.62654V10.0626H98.6912C97.1007 10.0626 95.829 10.6698 95.2796 11.7976V19.3735H90.0743ZM107.894 19.6626C102.66 19.6626 99.7111 16.9446 99.7111 12.1157C99.7111 7.19996 102.775 4.62654 107.287 4.62654C111.711 4.62654 113.966 7.05549 113.966 10.7856C113.966 11.7398 113.822 12.6362 113.618 13.3012H104.713C104.915 14.4578 105.956 15.8458 109.022 15.8458C110.466 15.8458 112.347 15.5856 113.503 15.2386L113.156 18.9108C111.855 19.3157 109.773 19.6626 107.894 19.6626ZM104.655 10.6988H109.513V10.3807C109.513 8.79043 108.789 7.80731 107.258 7.80731C105.639 7.80731 104.684 8.84825 104.655 10.6988ZM114.827 15.3253V0H120.032V14.3712C120.032 15.0362 120.351 15.3543 120.987 15.3543C121.217 15.3543 121.651 15.2965 122.056 15.1808L122.143 19.2289C121.246 19.4892 120.205 19.6626 119.281 19.6626C116.388 19.6626 114.827 18.0433 114.827 15.3253ZM121.61 19.2867C122.565 19.6048 123.779 19.8651 124.849 19.8651C126.787 19.8651 128.145 19.0844 128.839 17.8699H124.299C122.999 13.9374 121.726 7.48922 121.466 4.91564H126.7C126.931 7.46023 127.886 13.0121 128.493 15.1518H128.723C129.33 13.0121 130.285 7.46023 130.517 4.91564H135.49C135.201 8.18308 133.785 14.6893 132.598 17.7832C131.211 21.6868 129.129 24 124.993 24C123.664 24 122.131 23.7687 121.264 23.3928L121.61 19.2867Z" fill="#191615"/>
</svg>
