<svg width="115" height="24" viewBox="0 0 115 24" fill="none" xmlns="http://www.w3.org/2000/svg">
<g clip-path="url(#clip0_713_110)">
<path d="M12.5105 0H23.2771C25.1054 0 26.5855 1.48005 26.5855 3.30834C26.5855 5.13664 25.1054 6.61669 23.2771 6.61669H12.5105C10.6822 6.61669 9.20215 5.13664 9.20215 3.30834C9.20215 1.48005 10.6822 0 12.5105 0Z" fill="url(#paint0_linear_713_110)"/>
<path d="M6.9187 8.6626H20.213C22.0413 8.6626 23.5214 10.1426 23.5214 11.9709C23.5214 13.7992 22.0413 15.2793 20.213 15.2793H6.9187C5.0904 15.2793 3.61035 13.7992 3.61035 11.9709C3.61035 10.1426 5.0904 8.6626 6.9187 8.6626Z" fill="url(#paint1_linear_713_110)"/>
<path d="M3.30834 17.3833H14.075C15.9033 17.3833 17.3833 18.8633 17.3833 20.6916C17.3833 22.5199 15.9033 24 14.075 24H3.30834C1.48005 24 0 22.5199 0 20.6916C0 18.8633 1.48005 17.3833 3.30834 17.3833Z" fill="url(#paint2_linear_713_110)"/>
<path d="M37.4478 17.9924C36.6556 17.9924 35.9475 17.856 35.3293 17.5861C34.7083 17.3162 34.2179 16.9186 33.858 16.3991C33.4981 15.8768 33.3124 15.247 33.3037 14.507H35.5412C35.5528 14.832 35.6341 15.1222 35.7908 15.3834C35.9475 15.6446 36.1622 15.8506 36.4408 16.0016C36.7194 16.1525 37.0474 16.2279 37.4333 16.2279C37.7671 16.2279 38.0573 16.1728 38.301 16.0625C38.5448 15.9522 38.7364 15.7984 38.8728 15.6011C39.0092 15.4037 39.0759 15.1687 39.0759 14.8988C39.0759 14.5853 39.0004 14.3242 38.8495 14.1181C38.6986 13.9092 38.4897 13.7321 38.2227 13.587C37.9557 13.4419 37.6481 13.3084 37.2998 13.1895C36.9516 13.0705 36.583 12.9428 36.1971 12.8064C35.3322 12.5249 34.6735 12.1505 34.2179 11.6804C33.7651 11.2103 33.5388 10.5921 33.5388 9.82017C33.5388 9.16431 33.6984 8.60131 34.0147 8.13118C34.3339 7.66104 34.7722 7.30119 35.3352 7.05161C35.8981 6.80203 36.5395 6.67725 37.2592 6.67725C37.9789 6.67725 38.6493 6.80494 39.2065 7.06032C39.7637 7.3157 40.2077 7.68426 40.5356 8.1631C40.8636 8.64194 41.0348 9.20494 41.0435 9.8521H38.7915C38.7799 9.61122 38.7102 9.38486 38.5796 9.17301C38.4491 8.96116 38.2691 8.78704 38.0399 8.65645C37.8106 8.52586 37.5407 8.46201 37.2273 8.46201C36.9574 8.4504 36.7078 8.49393 36.4844 8.5868C36.2609 8.67966 36.0839 8.81896 35.9533 9.00179C35.8227 9.18462 35.7588 9.41098 35.7588 9.68378C35.7588 9.95657 35.8227 10.1626 35.9533 10.3396C36.0839 10.5167 36.2638 10.6705 36.4931 10.8011C36.7223 10.9317 36.9922 11.0506 37.3056 11.1609C37.6191 11.2712 37.9557 11.3844 38.3214 11.4976C38.864 11.6862 39.3632 11.9068 39.8217 12.1621C40.2803 12.4175 40.6459 12.7483 40.9158 13.1546C41.1857 13.5609 41.3221 14.0978 41.3221 14.7653C41.3221 15.3399 41.1712 15.871 40.8694 16.3614C40.5676 16.8519 40.1322 17.2465 39.5634 17.5483C38.9946 17.8502 38.2894 18.0011 37.4449 18.0011L37.4478 17.9924Z" fill="#1D2438"/>
<path d="M46.1602 17.804C45.6088 17.804 45.1242 17.7169 44.7121 17.5457C44.3 17.3745 43.9808 17.0872 43.7515 16.6838C43.5222 16.2833 43.4062 15.7319 43.4062 15.0354V11.6893H42.0625V9.92199H43.4062L43.6412 7.78027H45.5188V9.92199H47.5996V11.6893H45.5188V15.0673C45.5188 15.4214 45.5972 15.6681 45.7539 15.8016C45.9106 15.938 46.1776 16.0047 46.552 16.0047H47.5851V17.804H46.1631H46.1602Z" fill="#1D2438"/>
<path d="M48.9111 17.804V9.92203H50.7888L50.9919 11.376C51.1805 11.0306 51.4156 10.7404 51.7029 10.4995C51.9902 10.2587 52.3181 10.0729 52.6896 9.93654C53.0582 9.80015 53.4674 9.7334 53.9172 9.7334V11.9709H53.1975C52.884 11.9709 52.5967 12.0086 52.3298 12.0812C52.0628 12.1537 51.8306 12.2727 51.6333 12.4323C51.4359 12.5948 51.285 12.8154 51.1805 13.0969C51.0761 13.3784 51.0238 13.7324 51.0238 14.1619V17.8069H48.9111V17.804Z" fill="#1D2438"/>
<path d="M57.7797 17.9925C57.1442 17.9925 56.5986 17.859 56.1459 17.5949C55.6931 17.3279 55.3449 16.9391 55.1069 16.4225C54.8661 15.9059 54.7471 15.2675 54.7471 14.5072V9.9248H56.8569V14.2866C56.8569 14.9221 56.9904 15.401 57.2544 15.726C57.5185 16.051 57.9306 16.2107 58.482 16.2107C58.8361 16.2107 59.1495 16.1294 59.4194 15.9698C59.6893 15.8102 59.9069 15.5722 60.0694 15.2675C60.232 14.9599 60.3103 14.5826 60.3103 14.1328V9.92771H62.4056V17.8097H60.5599L60.3887 16.527C60.1594 16.9739 59.8199 17.3338 59.3729 17.5978C58.926 17.8619 58.3921 17.9954 57.7768 17.9954L57.7797 17.9925Z" fill="#1D2438"/>
<path d="M67.8206 17.9927C67.0284 17.9927 66.3232 17.8157 65.7079 17.4616C65.0927 17.1076 64.6139 16.6229 64.2685 16.0077C63.9232 15.3925 63.752 14.6902 63.752 13.8979C63.752 13.1056 63.9232 12.3685 64.2685 11.7475C64.6139 11.1264 65.0927 10.636 65.7079 10.279C66.3232 9.91918 67.0284 9.73926 67.8206 9.73926C68.8306 9.73926 69.6809 10.0062 70.3686 10.5373C71.0564 11.0684 71.4946 11.7997 71.6833 12.7255H69.4458C69.3529 12.3598 69.1556 12.0754 68.8596 11.8665C68.5636 11.6575 68.2095 11.553 67.8032 11.553C67.4376 11.553 67.1125 11.6459 66.8252 11.8258C66.5379 12.0087 66.3145 12.2757 66.152 12.6239C65.9894 12.9721 65.9111 13.3871 65.9111 13.866C65.9111 14.2316 65.9575 14.5567 66.0504 14.844C66.1433 15.1313 66.2738 15.375 66.4422 15.5782C66.6076 15.7813 66.8107 15.9351 67.0429 16.0396C67.278 16.1441 67.5304 16.1963 67.8003 16.1963C68.0702 16.1963 68.3198 16.1499 68.5433 16.0541C68.7667 15.9613 68.9582 15.8278 69.115 15.6565C69.2717 15.4853 69.3819 15.2735 69.4429 15.0239H71.6804C71.4917 15.9322 71.0506 16.652 70.3599 17.1888C69.6663 17.7257 68.8189 17.9956 67.8177 17.9956L67.8206 17.9927Z" fill="#1D2438"/>
<path d="M76.4834 17.804C75.9321 17.804 75.4474 17.7169 75.0353 17.5457C74.6232 17.3745 74.304 17.0872 74.0747 16.6838C73.8455 16.2833 73.7294 15.7319 73.7294 15.0354V11.6893H72.3857V9.92199H73.7294L73.9645 7.78027H75.8392V9.92199H77.92V11.6893H75.8392V15.0673C75.8392 15.4214 75.9176 15.6681 76.0743 15.8016C76.231 15.938 76.498 16.0047 76.8723 16.0047H77.9055V17.804H76.4834Z" fill="#1D2438"/>
<path d="M82.1743 17.9925C81.5387 17.9925 80.9931 17.859 80.5404 17.5949C80.0877 17.3279 79.7394 16.9391 79.5015 16.4225C79.2606 15.9059 79.1416 15.2675 79.1416 14.5072V9.9248H81.2514V14.2866C81.2514 14.9221 81.3849 15.401 81.649 15.726C81.916 16.0481 82.3252 16.2107 82.8765 16.2107C83.2306 16.2107 83.544 16.1294 83.8139 15.9698C84.0838 15.8073 84.3015 15.5722 84.464 15.2675C84.6265 14.9599 84.7048 14.5826 84.7048 14.1328V9.92771H86.8001V17.8097H84.9544L84.7832 16.527C84.5539 16.9739 84.2144 17.3338 83.7675 17.5978C83.3206 17.8619 82.7866 17.9954 82.1713 17.9954L82.1743 17.9925Z" fill="#1D2438"/>
<path d="M88.3994 17.804V9.92203H90.277L90.4802 11.376C90.6688 11.0306 90.9039 10.7404 91.1912 10.4995C91.4785 10.2587 91.8064 10.0729 92.175 9.93654C92.5464 9.80015 92.9556 9.7334 93.4025 9.7334V11.9709H92.6828C92.3694 11.9709 92.0821 12.0086 91.8151 12.0812C91.5481 12.1537 91.316 12.2727 91.1186 12.4323C90.9213 12.5919 90.7704 12.8154 90.6659 13.0969C90.5614 13.3784 90.5092 13.7324 90.5092 14.1619V17.8069H88.3965L88.3994 17.804Z" fill="#1D2438"/>
<path d="M97.988 17.9927C97.1957 17.9927 96.4934 17.8244 95.884 17.4848C95.2745 17.1453 94.7986 16.6722 94.462 16.0628C94.1224 15.4534 93.9541 14.7482 93.9541 13.9443C93.9541 13.1404 94.1195 12.3946 94.4533 11.762C94.787 11.1293 95.26 10.636 95.8695 10.2761C96.4789 9.91626 97.187 9.73633 97.988 9.73633C98.7889 9.73633 99.4535 9.90755 100.037 10.2529C100.62 10.5953 101.073 11.0597 101.398 11.6459C101.723 12.2321 101.883 12.8909 101.883 13.6309V13.982C101.883 14.1126 101.871 14.2461 101.851 14.3796H95.4545V13.0969H99.7553C99.7234 12.5861 99.5435 12.1857 99.2155 11.8926C98.8876 11.5994 98.4784 11.4543 97.988 11.4543C97.6339 11.4543 97.306 11.5356 97.0042 11.6952C96.7024 11.8577 96.4644 12.1044 96.2932 12.4381C96.1219 12.7719 96.0349 13.1927 96.0349 13.7034V14.1562C96.0349 14.5828 96.1161 14.9571 96.2787 15.2735C96.4412 15.5927 96.6675 15.8364 96.9577 16.0077C97.2479 16.1789 97.5875 16.266 97.9735 16.266C98.3594 16.266 98.6787 16.1818 98.9369 16.0164C99.1923 15.851 99.3809 15.6362 99.5086 15.375H101.668C101.523 15.8655 101.276 16.3095 100.934 16.7042C100.591 17.1017 100.167 17.4152 99.6683 17.6415C99.1691 17.8679 98.609 17.984 97.9938 17.984L97.988 17.9927Z" fill="#1D2438"/>
<path d="M103.147 17.8039V6.54395H105.257V17.8039H103.147Z" fill="#1D2438"/>
<path d="M107.855 21.2428L109.761 16.9274H109.291L106.131 9.92188H108.429L110.681 15.0034L112.716 9.92188H114.953L110.089 21.2428H107.852H107.855Z" fill="#1D2438"/>
</g>
<defs>
<linearGradient id="paint0_linear_713_110" x1="12.4757" y1="-1.58742" x2="23.3119" y2="8.20411" gradientUnits="userSpaceOnUse">
<stop stop-color="#5774B8"/>
<stop offset="1" stop-color="#6C63AB"/>
</linearGradient>
<linearGradient id="paint1_linear_713_110" x1="7.45267" y1="6.44543" x2="19.6761" y2="17.4936" gradientUnits="userSpaceOnUse">
<stop stop-color="#5774B8"/>
<stop offset="1" stop-color="#6C63AB"/>
</linearGradient>
<linearGradient id="paint2_linear_713_110" x1="3.27352" y1="15.7959" x2="14.1098" y2="25.5874" gradientUnits="userSpaceOnUse">
<stop stop-color="#5774B8"/>
<stop offset="1" stop-color="#6C63AB"/>
</linearGradient>
<clipPath id="clip0_713_110">
<rect width="114.956" height="24" fill="white"/>
</clipPath>
</defs>
</svg>
