<svg width="92" height="24" viewBox="0 0 92 24" fill="none" xmlns="http://www.w3.org/2000/svg">
<g clip-path="url(#clip0_1437_2160)">
<path d="M0 6.34299C0 2.83986 2.83986 0 6.34301 0H19.7444C19.7444 3.50314 16.9045 6.34299 13.4014 6.34299H0Z" fill="#325FA6"/>
<path d="M0.010498 8.83691C0.010498 12.34 2.85036 15.1799 6.35351 15.1799H19.7549C19.7549 11.6768 16.915 8.83691 13.4119 8.83691H0.010498Z" fill="#325FA6"/>
<path d="M0 23.9992C0 20.4961 2.83986 17.6562 6.34301 17.6562H19.7444C19.7444 21.1594 16.9045 23.9992 13.4014 23.9992H0Z" fill="#325FA6"/>
<path d="M27.4459 13.6656C28.311 14.1874 29.4919 14.4483 30.1786 14.4483C30.7828 14.4483 31.0986 14.2286 31.0986 13.8029C31.0986 13.3498 30.7278 13.1987 30.2198 13.0339L29.849 12.8966C28.8603 12.5944 27.391 12.1276 27.391 10.1777C27.391 8.22767 28.8328 7.49982 30.8652 7.49982C31.7577 7.49982 32.6504 7.63719 33.4194 7.87063L33.2958 10.0677C32.4718 9.66955 31.3183 9.47726 30.7965 9.47726C30.206 9.47726 29.9177 9.7107 29.9177 10.109C29.9177 10.5072 30.2335 10.6995 30.7416 10.8642L31.3046 11.0427C32.2659 11.3311 33.7626 11.7843 33.7626 13.693C33.7626 15.4645 32.4718 16.4257 30.2747 16.4257C29.3272 16.4257 28.2561 16.2335 27.3086 15.8627L27.4459 13.6656ZM38.5363 16.1648C38.1106 16.3159 37.4927 16.4257 36.8885 16.4257C35.2543 16.4257 34.3343 15.643 34.3343 14.1188V11.3998H33.4692V9.73816C34.4167 9.54595 34.9522 8.94169 35.0758 7.98047H36.806V9.42234H38.5363V11.3998H36.806V13.5557C36.806 14.1325 37.067 14.3797 37.6712 14.3797C37.9184 14.3797 38.2891 14.3248 38.5363 14.2561V16.1648ZM38.9903 16.2884V9.42234H41.3248V10.9054C41.5995 9.86176 42.3822 9.28504 43.7279 9.28504V11.8667H43.0825C42.3273 11.8667 41.723 12.155 41.4621 12.6906V16.2884H38.9903ZM44.0564 14.0501V9.42234H46.5282V13.3223C46.5282 13.9814 46.8029 14.2973 47.3521 14.2973C47.7504 14.2973 48.1074 14.0913 48.3409 13.8579V9.42234H50.8127V16.2884H48.8352L48.6292 15.437C48.1898 16.0001 47.2697 16.4257 46.3085 16.4257C44.9353 16.4257 44.0564 15.492 44.0564 14.0501ZM51.2346 12.8417C51.2346 10.4935 52.7039 9.28504 54.9286 9.28504C55.6289 9.28504 56.3155 9.40865 56.8235 9.58717L56.6313 11.7843C56.3017 11.5783 55.7525 11.3723 55.2031 11.3723C54.3243 11.3723 53.775 11.8804 53.775 12.8829C53.775 13.8716 54.2832 14.3659 55.2856 14.3659C55.6563 14.3659 56.4254 14.2973 56.8648 14.1737L56.6862 16.1648C56.3017 16.3022 55.5465 16.4257 54.8873 16.4257C52.6902 16.4257 51.2346 15.1761 51.2346 12.8417ZM62.2447 16.1648C61.8189 16.3159 61.201 16.4257 60.5968 16.4257C58.9626 16.4257 58.0426 15.643 58.0426 14.1188V11.3998H57.1775V9.73816C58.125 9.54595 58.6606 8.94169 58.7842 7.98047H60.5144V9.42234H62.2447V11.3998H60.5144V13.5557C60.5144 14.1325 60.7753 14.3797 61.3795 14.3797C61.6267 14.3797 61.9975 14.3248 62.2447 14.2561V16.1648ZM62.591 14.0501V9.42234H65.0629V13.3223C65.0629 13.9814 65.3375 14.2973 65.8868 14.2973C66.285 14.2973 66.6421 14.0913 66.8755 13.8579V9.42234H69.3473V16.2884H67.3699L67.1639 15.437C66.7244 16.0001 65.8044 16.4257 64.8432 16.4257C63.47 16.4257 62.591 15.492 62.591 14.0501ZM70.0851 16.2884V9.42234H72.4194V10.9054C72.694 9.86176 73.4767 9.28504 74.8223 9.28504V11.8667H74.1773C73.422 11.8667 72.818 12.155 72.5571 12.6906V16.2884H70.0851ZM78.5477 16.4257C76.062 16.4257 74.6616 15.1349 74.6616 12.8417C74.6616 10.5072 76.1167 9.28504 78.2594 9.28504C80.3603 9.28504 81.4313 10.4386 81.4313 12.21C81.4313 12.6631 81.3629 13.0889 81.2663 13.4047H77.0371C77.133 13.9539 77.6274 14.6131 79.0832 14.6131C79.7694 14.6131 80.6623 14.4895 81.2115 14.3248L81.0465 16.0687C80.4288 16.261 79.44 16.4257 78.5477 16.4257ZM77.0097 12.1688H79.3167V12.0177C79.3167 11.2625 78.973 10.7956 78.2458 10.7956C77.4767 10.7956 77.0234 11.2899 77.0097 12.1688ZM81.84 14.3659V7.08789H84.3121V13.9128C84.3121 14.2286 84.4634 14.3797 84.7654 14.3797C84.8749 14.3797 85.0811 14.3522 85.2735 14.2973L85.3146 16.2197C84.8886 16.3434 84.3942 16.4257 83.9553 16.4257C82.5816 16.4257 81.84 15.6567 81.84 14.3659ZM85.0616 16.2472C85.5149 16.3983 86.0915 16.5219 86.5996 16.5219C87.52 16.5219 88.165 16.1511 88.4944 15.5743H86.3387C85.7211 13.7068 85.1164 10.6445 84.9931 9.42234H87.4789C87.5885 10.6308 88.0418 13.2674 88.3301 14.2835H88.4396C88.7279 13.2674 89.1812 10.6308 89.2915 9.42234H91.6533C91.5157 10.9741 90.8432 14.0639 90.2796 15.5332C89.6209 17.387 88.6321 18.4855 86.6681 18.4855C86.0367 18.4855 85.3088 18.3757 84.8973 18.1972L85.0616 16.2472Z" fill="#1C2541"/>
</g>
<defs>
<clipPath id="clip0_1437_2160">
<rect width="91.964" height="24" fill="white"/>
</clipPath>
</defs>
</svg>
