<svg width="72" height="77" viewBox="0 0 72 77" fill="none" xmlns="http://www.w3.org/2000/svg">
<g filter="url(#filter0_dddddd_2391_19764)">
<rect x="12" y="1" width="48" height="40" rx="10" fill="white"/>
<path d="M34.5861 14.4141L29.4141 19.5861" stroke="#006FFF" stroke-width="1.5" stroke-linecap="round" stroke-linejoin="round"/>
<path d="M42.5861 22.4141L37.4141 27.5861" stroke="#006FFF" stroke-width="1.5" stroke-linecap="round" stroke-linejoin="round"/>
<path d="M30 21H42" stroke="#006FFF" stroke-width="1.5" stroke-linecap="round" stroke-linejoin="round"/>
<path d="M36 31C37.1046 31 38 30.1046 38 29C38 27.8954 37.1046 27 36 27C34.8954 27 34 27.8954 34 29C34 30.1046 34.8954 31 36 31Z" stroke="#006FFF" stroke-width="1.5" stroke-linecap="round" stroke-linejoin="round"/>
<path d="M36 15C37.1046 15 38 14.1046 38 13C38 11.8954 37.1046 11 36 11C34.8954 11 34 11.8954 34 13C34 14.1046 34.8954 15 36 15Z" stroke="#006FFF" stroke-width="1.5" stroke-linecap="round" stroke-linejoin="round"/>
<path d="M44 23C45.1046 23 46 22.1046 46 21C46 19.8954 45.1046 19 44 19C42.8954 19 42 19.8954 42 21C42 22.1046 42.8954 23 44 23Z" stroke="#006FFF" stroke-width="1.5" stroke-linecap="round" stroke-linejoin="round"/>
<path d="M28 23C29.1046 23 30 22.1046 30 21C30 19.8954 29.1046 19 28 19C26.8954 19 26 19.8954 26 21C26 22.1046 26.8954 23 28 23Z" stroke="#006FFF" stroke-width="1.5" stroke-linecap="round" stroke-linejoin="round"/>
</g>
<defs>
<filter id="filter0_dddddd_2391_19764" x="0" y="0" width="72" height="77" filterUnits="userSpaceOnUse" color-interpolation-filters="sRGB">
<feFlood flood-opacity="0" result="BackgroundImageFix"/>
<feColorMatrix in="SourceAlpha" type="matrix" values="0 0 0 0 0 0 0 0 0 0 0 0 0 0 0 0 0 0 127 0" result="hardAlpha"/>
<feMorphology radius="12" operator="erode" in="SourceAlpha" result="effect1_dropShadow_2391_19764"/>
<feOffset dy="24"/>
<feGaussianBlur stdDeviation="12"/>
<feColorMatrix type="matrix" values="0 0 0 0 0.2 0 0 0 0 0.2 0 0 0 0 0.2 0 0 0 0.05 0"/>
<feBlend mode="normal" in2="BackgroundImageFix" result="effect1_dropShadow_2391_19764"/>
<feColorMatrix in="SourceAlpha" type="matrix" values="0 0 0 0 0 0 0 0 0 0 0 0 0 0 0 0 0 0 127 0" result="hardAlpha"/>
<feMorphology radius="6" operator="erode" in="SourceAlpha" result="effect2_dropShadow_2391_19764"/>
<feOffset dy="12"/>
<feGaussianBlur stdDeviation="6"/>
<feColorMatrix type="matrix" values="0 0 0 0 0.2 0 0 0 0 0.2 0 0 0 0 0.2 0 0 0 0.05 0"/>
<feBlend mode="normal" in2="effect1_dropShadow_2391_19764" result="effect2_dropShadow_2391_19764"/>
<feColorMatrix in="SourceAlpha" type="matrix" values="0 0 0 0 0 0 0 0 0 0 0 0 0 0 0 0 0 0 127 0" result="hardAlpha"/>
<feMorphology radius="3" operator="erode" in="SourceAlpha" result="effect3_dropShadow_2391_19764"/>
<feOffset dy="6"/>
<feGaussianBlur stdDeviation="3"/>
<feColorMatrix type="matrix" values="0 0 0 0 0.2 0 0 0 0 0.2 0 0 0 0 0.2 0 0 0 0.05 0"/>
<feBlend mode="normal" in2="effect2_dropShadow_2391_19764" result="effect3_dropShadow_2391_19764"/>
<feColorMatrix in="SourceAlpha" type="matrix" values="0 0 0 0 0 0 0 0 0 0 0 0 0 0 0 0 0 0 127 0" result="hardAlpha"/>
<feMorphology radius="1.5" operator="erode" in="SourceAlpha" result="effect4_dropShadow_2391_19764"/>
<feOffset dy="3"/>
<feGaussianBlur stdDeviation="1.5"/>
<feColorMatrix type="matrix" values="0 0 0 0 0.2 0 0 0 0 0.2 0 0 0 0 0.2 0 0 0 0.05 0"/>
<feBlend mode="normal" in2="effect3_dropShadow_2391_19764" result="effect4_dropShadow_2391_19764"/>
<feColorMatrix in="SourceAlpha" type="matrix" values="0 0 0 0 0 0 0 0 0 0 0 0 0 0 0 0 0 0 127 0" result="hardAlpha"/>
<feMorphology radius="0.5" operator="erode" in="SourceAlpha" result="effect5_dropShadow_2391_19764"/>
<feOffset dy="1"/>
<feGaussianBlur stdDeviation="0.5"/>
<feColorMatrix type="matrix" values="0 0 0 0 0.2 0 0 0 0 0.2 0 0 0 0 0.2 0 0 0 0.05 0"/>
<feBlend mode="normal" in2="effect4_dropShadow_2391_19764" result="effect5_dropShadow_2391_19764"/>
<feColorMatrix in="SourceAlpha" type="matrix" values="0 0 0 0 0 0 0 0 0 0 0 0 0 0 0 0 0 0 127 0" result="hardAlpha"/>
<feMorphology radius="1" operator="dilate" in="SourceAlpha" result="effect6_dropShadow_2391_19764"/>
<feOffset/>
<feColorMatrix type="matrix" values="0 0 0 0 0 0 0 0 0 0 0 0 0 0 0 0 0 0 0.08 0"/>
<feBlend mode="normal" in2="effect5_dropShadow_2391_19764" result="effect6_dropShadow_2391_19764"/>
<feBlend mode="normal" in="SourceGraphic" in2="effect6_dropShadow_2391_19764" result="shape"/>
</filter>
</defs>
</svg>
