<svg width="72" height="77" viewBox="0 0 72 77" fill="none" xmlns="http://www.w3.org/2000/svg">
<g filter="url(#filter0_dddddd_2391_19775)">
<rect x="12" y="1" width="48" height="40" rx="10" fill="white"/>
<path d="M33 12H28C27.4477 12 27 12.4477 27 13V20C27 20.5523 27.4477 21 28 21H33C33.5523 21 34 20.5523 34 20V13C34 12.4477 33.5523 12 33 12Z" stroke="#006FFF" stroke-width="1.5" stroke-linecap="round" stroke-linejoin="round"/>
<path d="M44 12H39C38.4477 12 38 12.4477 38 13V16C38 16.5523 38.4477 17 39 17H44C44.5523 17 45 16.5523 45 16V13C45 12.4477 44.5523 12 44 12Z" stroke="#006FFF" stroke-width="1.5" stroke-linecap="round" stroke-linejoin="round"/>
<path d="M44 21H39C38.4477 21 38 21.4477 38 22V29C38 29.5523 38.4477 30 39 30H44C44.5523 30 45 29.5523 45 29V22C45 21.4477 44.5523 21 44 21Z" stroke="#006FFF" stroke-width="1.5" stroke-linecap="round" stroke-linejoin="round"/>
<path d="M33 25H28C27.4477 25 27 25.4477 27 26V29C27 29.5523 27.4477 30 28 30H33C33.5523 30 34 29.5523 34 29V26C34 25.4477 33.5523 25 33 25Z" stroke="#006FFF" stroke-width="1.5" stroke-linecap="round" stroke-linejoin="round"/>
</g>
<defs>
<filter id="filter0_dddddd_2391_19775" x="0" y="0" width="72" height="77" filterUnits="userSpaceOnUse" color-interpolation-filters="sRGB">
<feFlood flood-opacity="0" result="BackgroundImageFix"/>
<feColorMatrix in="SourceAlpha" type="matrix" values="0 0 0 0 0 0 0 0 0 0 0 0 0 0 0 0 0 0 127 0" result="hardAlpha"/>
<feMorphology radius="12" operator="erode" in="SourceAlpha" result="effect1_dropShadow_2391_19775"/>
<feOffset dy="24"/>
<feGaussianBlur stdDeviation="12"/>
<feColorMatrix type="matrix" values="0 0 0 0 0.2 0 0 0 0 0.2 0 0 0 0 0.2 0 0 0 0.05 0"/>
<feBlend mode="normal" in2="BackgroundImageFix" result="effect1_dropShadow_2391_19775"/>
<feColorMatrix in="SourceAlpha" type="matrix" values="0 0 0 0 0 0 0 0 0 0 0 0 0 0 0 0 0 0 127 0" result="hardAlpha"/>
<feMorphology radius="6" operator="erode" in="SourceAlpha" result="effect2_dropShadow_2391_19775"/>
<feOffset dy="12"/>
<feGaussianBlur stdDeviation="6"/>
<feColorMatrix type="matrix" values="0 0 0 0 0.2 0 0 0 0 0.2 0 0 0 0 0.2 0 0 0 0.05 0"/>
<feBlend mode="normal" in2="effect1_dropShadow_2391_19775" result="effect2_dropShadow_2391_19775"/>
<feColorMatrix in="SourceAlpha" type="matrix" values="0 0 0 0 0 0 0 0 0 0 0 0 0 0 0 0 0 0 127 0" result="hardAlpha"/>
<feMorphology radius="3" operator="erode" in="SourceAlpha" result="effect3_dropShadow_2391_19775"/>
<feOffset dy="6"/>
<feGaussianBlur stdDeviation="3"/>
<feColorMatrix type="matrix" values="0 0 0 0 0.2 0 0 0 0 0.2 0 0 0 0 0.2 0 0 0 0.05 0"/>
<feBlend mode="normal" in2="effect2_dropShadow_2391_19775" result="effect3_dropShadow_2391_19775"/>
<feColorMatrix in="SourceAlpha" type="matrix" values="0 0 0 0 0 0 0 0 0 0 0 0 0 0 0 0 0 0 127 0" result="hardAlpha"/>
<feMorphology radius="1.5" operator="erode" in="SourceAlpha" result="effect4_dropShadow_2391_19775"/>
<feOffset dy="3"/>
<feGaussianBlur stdDeviation="1.5"/>
<feColorMatrix type="matrix" values="0 0 0 0 0.2 0 0 0 0 0.2 0 0 0 0 0.2 0 0 0 0.05 0"/>
<feBlend mode="normal" in2="effect3_dropShadow_2391_19775" result="effect4_dropShadow_2391_19775"/>
<feColorMatrix in="SourceAlpha" type="matrix" values="0 0 0 0 0 0 0 0 0 0 0 0 0 0 0 0 0 0 127 0" result="hardAlpha"/>
<feMorphology radius="0.5" operator="erode" in="SourceAlpha" result="effect5_dropShadow_2391_19775"/>
<feOffset dy="1"/>
<feGaussianBlur stdDeviation="0.5"/>
<feColorMatrix type="matrix" values="0 0 0 0 0.2 0 0 0 0 0.2 0 0 0 0 0.2 0 0 0 0.05 0"/>
<feBlend mode="normal" in2="effect4_dropShadow_2391_19775" result="effect5_dropShadow_2391_19775"/>
<feColorMatrix in="SourceAlpha" type="matrix" values="0 0 0 0 0 0 0 0 0 0 0 0 0 0 0 0 0 0 127 0" result="hardAlpha"/>
<feMorphology radius="1" operator="dilate" in="SourceAlpha" result="effect6_dropShadow_2391_19775"/>
<feOffset/>
<feColorMatrix type="matrix" values="0 0 0 0 0 0 0 0 0 0 0 0 0 0 0 0 0 0 0.08 0"/>
<feBlend mode="normal" in2="effect5_dropShadow_2391_19775" result="effect6_dropShadow_2391_19775"/>
<feBlend mode="normal" in="SourceGraphic" in2="effect6_dropShadow_2391_19775" result="shape"/>
</filter>
</defs>
</svg>
