<svg width="32" height="32" viewBox="0 0 32 32" fill="none" xmlns="http://www.w3.org/2000/svg">
<path d="M28.5223 2.78125H20.1742C19.7902 2.78125 19.4785 3.09293 19.4785 3.47695C19.4785 3.86096 19.7902 4.17264 20.1742 4.17264H28.5223C28.9063 4.17264 29.218 3.86096 29.218 3.47695C29.218 3.09293 28.9063 2.78125 28.5223 2.78125Z" fill="#006FFF"/>
<path d="M29.0142 2.9862L26.2315 0.203485C25.9602 -0.0678283 25.5191 -0.0678283 25.2478 0.203485C24.9765 0.474798 24.9765 0.915877 25.2478 1.18719L27.538 3.47737L25.2465 5.76892C24.9751 6.04024 24.9751 6.48132 25.2465 6.75263C25.3828 6.88757 25.5609 6.95579 25.739 6.95579C25.9171 6.95579 26.0952 6.88763 26.2315 6.75263L29.0142 3.96991C29.2856 3.69853 29.2856 3.25752 29.0142 2.9862Z" fill="#006FFF"/>
<path d="M10.4344 2.78125H2.08632C1.70231 2.78125 1.39062 3.09293 1.39062 3.47695C1.39062 3.86096 1.70231 4.17264 2.08632 4.17264H10.4344C10.8184 4.17264 11.1301 3.86096 11.1301 3.47695C11.1301 3.09293 10.8184 2.78125 10.4344 2.78125Z" fill="#006FFF"/>
<path d="M3.07029 3.47737L5.36047 1.18719C5.63178 0.915877 5.63178 0.474798 5.36047 0.203485C5.08916 -0.0678283 4.64808 -0.0678283 4.37676 0.203485L1.59411 2.98627C1.3228 3.25758 1.3228 3.69866 1.59411 3.96997L4.37683 6.75269C4.5132 6.88763 4.69125 6.95585 4.86937 6.95585C5.04748 6.95585 5.22553 6.8877 5.36053 6.75132C5.63185 6.48001 5.63185 6.03893 5.36053 5.76762L3.07029 3.47737Z" fill="#006FFF"/>
<path d="M27.8265 13.9123C27.2547 13.9123 26.7218 14.0862 26.2793 14.3826C25.8981 13.3001 24.8643 12.5209 23.6525 12.5209C23.0806 12.5209 22.5477 12.6949 22.1053 12.9912C21.7241 11.9088 20.6903 11.1296 19.4784 11.1296C18.972 11.1296 18.4962 11.266 18.0871 11.5039V6.95557C18.0871 5.42089 16.8391 4.17285 15.3044 4.17285C13.7697 4.17285 12.5217 5.42089 12.5217 6.95557V18.782L10.1035 16.9691C8.67047 15.8936 6.63073 16.0369 5.36045 17.3058C4.54652 18.1198 4.54652 19.4429 5.36045 20.2569L15.2683 30.1661C16.4509 31.3487 18.0245 31.9998 19.6969 31.9998H22.9569C27.1755 31.9998 30.6093 28.5674 30.6093 24.3474V16.695C30.6093 15.1603 29.3612 13.9123 27.8265 13.9123ZM29.2179 24.3474C29.2179 27.7993 26.4088 30.6085 22.9569 30.6085H19.6969C18.3946 30.6085 17.1716 30.102 16.252 29.1823L6.34416 19.2732C6.07285 19.0019 6.07285 18.5608 6.34416 18.2895C6.77546 17.8595 7.35147 17.6383 7.9303 17.6383C8.40059 17.6383 8.87363 17.7844 9.27017 18.0821L12.8 20.7299C13.0115 20.8885 13.2954 20.9121 13.5291 20.7953C13.7642 20.677 13.9131 20.4363 13.9131 20.1733V6.95557C13.9131 6.18892 14.5364 5.56424 15.3045 5.56424C16.0725 5.56424 16.6958 6.18898 16.6958 6.95557V17.3907C16.6958 17.7747 17.0075 18.0864 17.3915 18.0864C17.7755 18.0864 18.0872 17.7747 18.0872 17.3907V13.9123C18.0872 13.1457 18.7105 12.521 19.4785 12.521C20.2465 12.521 20.8698 13.1457 20.8698 13.9123V17.3907C20.8698 17.7747 21.1815 18.0864 21.5655 18.0864C21.9495 18.0864 22.2612 17.7747 22.2612 17.3907V15.3037C22.2612 14.537 22.8845 13.9123 23.6526 13.9123C24.4206 13.9123 25.0439 14.5371 25.0439 15.3037V17.3907C25.0439 17.7747 25.3556 18.0864 25.7396 18.0864C26.1236 18.0864 26.4353 17.7747 26.4353 17.3907V16.695C26.4353 15.9283 27.0586 15.3037 27.8266 15.3037C28.5946 15.3037 29.2179 15.9284 29.2179 16.695V24.3474Z" fill="#006FFF"/>
</svg>
