<svg width="68" height="27" viewBox="0 0 68 27" fill="none" xmlns="http://www.w3.org/2000/svg">
<g clip-path="url(#clip0_3013_2047)">
<path d="M17.0514 7.22092L24.3621 10.5062C25.9618 8.34864 25.0138 5.59571 22.2408 4.3473L12.5713 0L2.89782 4.3473C0.126114 5.59034 -0.821924 8.34864 0.776466 10.5062L7.97056 7.27455L12.5673 5.21622L17.0473 7.22092H17.0514Z" fill="#646464"/>
<path d="M17.0514 14.4182L24.3621 17.7035C25.9618 15.5459 25.0138 12.793 22.2408 11.5446L12.5713 7.19727L2.89782 11.5446C0.126114 12.7876 -0.821924 15.5459 0.776466 17.7035L7.97056 14.4718L12.5673 12.4135L17.0473 14.4182H17.0514Z" fill="#646464"/>
<path d="M17.051 21.6115L24.3618 24.8968C25.9615 22.7393 25.0135 19.9863 22.2404 18.7379L12.571 14.3906L2.9015 18.7379C0.124434 19.985 -0.822263 22.7393 0.776127 24.8968L7.97022 21.6652L12.5669 19.6068L17.047 21.6115H17.051Z" fill="#646464"/>
<path d="M36.6516 5.2474V5.37211H39.3375V8.46832H36.6516V17.8535H33.3837V8.46832H31.5601V5.37211H33.3837V5.2474C33.3837 1.80121 35.308 -0.220919 39.3334 0.028494V3.1247C37.6358 3 36.6475 3.5471 36.6475 5.2474H36.6516Z" fill="#646464"/>
<path d="M52.8059 5.37182V17.8546H49.538V16.4573C48.7777 17.5797 47.4609 18.2045 45.7633 18.2045C43.0774 18.2045 40.9775 16.3581 40.9775 13.0366V5.37182H44.2454V12.6356C44.2454 14.3346 45.2819 15.2062 46.7516 15.2062C48.3486 15.2062 49.538 14.2837 49.538 12.11V5.36914H52.8059V5.37316V5.37182Z" fill="#646464"/>
<path d="M67.9999 11.614C67.9999 15.3364 65.2135 18.2046 61.8223 18.2046C59.9718 18.2046 58.6335 17.5315 57.719 16.381V17.852H54.4512V0.376953H57.719V6.84292C58.6295 5.69509 59.9718 5.01926 61.8223 5.01926C65.2162 5.01926 67.9999 7.89153 67.9999 11.6099V11.614ZM64.7321 11.614C64.7321 9.51808 63.237 8.09401 61.2108 8.09401C59.1847 8.09401 57.7163 9.51674 57.7163 11.614C57.7163 13.7112 59.2088 15.1339 61.2108 15.1339C63.2128 15.1339 64.7321 13.7112 64.7321 11.614Z" fill="#646464"/>
<path d="M34.9889 24.9918C34.8119 24.9918 34.6536 24.957 34.5155 24.8886C34.3774 24.8202 34.2634 24.7183 34.1736 24.5842H34.124V24.9114H33.3784V21.1836H34.124V22.6573H34.1736C34.2648 22.5232 34.3788 22.4226 34.5155 22.3583C34.6523 22.2939 34.8105 22.2604 34.9889 22.2604C35.2235 22.2604 35.4327 22.3167 35.6178 22.4307C35.8028 22.5446 35.9463 22.7042 36.0509 22.9107C36.1555 23.1172 36.2064 23.3546 36.2064 23.6227C36.2064 23.8909 36.1541 24.1323 36.0509 24.3375C35.9476 24.5426 35.8028 24.7022 35.6178 24.8175C35.4327 24.9328 35.2235 24.9918 34.9889 24.9918ZM34.777 24.3576C34.9071 24.3576 35.0251 24.3254 35.127 24.2624C35.2289 24.1993 35.3107 24.1108 35.371 23.9982C35.4314 23.8856 35.4622 23.7609 35.4622 23.6227C35.4622 23.4846 35.4327 23.3653 35.3737 23.2527C35.3147 23.14 35.2329 23.0515 35.1297 22.9885C35.0251 22.9241 34.9084 22.8933 34.777 22.8933C34.6456 22.8933 34.5289 22.9255 34.4243 22.9885C34.3198 23.0515 34.2393 23.14 34.1803 23.2527C34.1213 23.3653 34.0918 23.4887 34.0918 23.6227C34.0918 23.7568 34.1213 23.8802 34.1803 23.9928C34.2393 24.1055 34.3198 24.194 34.4243 24.2597C34.5289 24.3254 34.6456 24.3576 34.777 24.3576Z" fill="#646464"/>
<path d="M37.0514 26.0682C36.9642 26.0682 36.8717 26.0602 36.7725 26.0455C36.6732 26.0307 36.5888 26.0092 36.519 25.9824L36.5244 25.3844C36.5821 25.4112 36.6451 25.43 36.7161 25.442C36.7872 25.4541 36.8502 25.4595 36.9079 25.4595C36.9951 25.4595 37.0702 25.442 37.1318 25.4072C37.1935 25.3723 37.2472 25.3267 37.2901 25.2717C37.333 25.2168 37.3732 25.143 37.4107 25.0532C37.4215 25.0357 37.4295 25.017 37.4389 24.9955C37.4483 24.974 37.455 24.9539 37.4617 24.9378L36.2441 22.3418H37.0447L37.7339 23.9777H37.7835L38.3427 22.3418H39.1178L38.1214 25.0035C38.1174 25.0103 38.1147 25.017 38.1107 25.0237C38.1067 25.0304 38.104 25.0371 38.1 25.0438C38.0101 25.2825 37.9203 25.4729 37.8305 25.615C37.7406 25.7571 37.6347 25.8684 37.5086 25.9489C37.3826 26.0294 37.2311 26.0696 37.0527 26.0696L37.0514 26.0682Z" fill="#646464"/>
<path d="M43.5655 22.0006C43.6191 21.9885 43.6754 22.0099 43.7076 22.0542C43.7612 22.1266 43.8444 22.2392 43.9061 22.3237C43.9517 22.3854 43.9382 22.4726 43.8766 22.5182C43.4703 22.8172 43.0291 23.2141 42.7757 23.5051C42.769 23.5118 42.7743 23.5131 42.7783 23.5118C43.2289 23.3442 44.2654 23.0988 44.7643 23.029V22.4069C44.7643 22.3251 44.7267 22.2473 44.6623 22.1963L44.6288 22.1695L43.0559 20.9265C42.958 20.85 42.8212 20.85 42.7234 20.9265C42.7234 20.9265 41.5769 21.8303 41.1156 22.195C41.0512 22.2459 41.0137 22.3237 41.0137 22.4055V22.9124C42.1307 22.376 43.2584 22.0703 43.5655 22.0006Z" fill="#646464"/>
<path d="M42.069 24.4096C42.0127 24.4324 41.9496 24.4177 41.9108 24.3707C41.845 24.2929 41.7485 24.1723 41.6841 24.0918C41.6426 24.0395 41.6439 23.9644 41.6882 23.9148C41.9067 23.6627 42.5584 22.9574 42.8575 22.7589C42.8642 22.7549 42.8628 22.7509 42.8548 22.7522C42.4874 22.8514 41.4227 23.2457 41.0137 23.4455V24.6456C41.0137 24.7945 41.1344 24.9138 41.2819 24.9138H44.4947C44.6422 24.9138 44.7629 24.7931 44.7629 24.6456V23.6775C44.2158 23.7552 42.7877 24.1092 42.069 24.4096Z" fill="#646464"/>
<mask id="mask0_3013_2047" style="mask-type:luminance" maskUnits="userSpaceOnUse" x="41" y="21" width="20" height="4">
<path d="M60.6515 21.2207H41.3501V24.9901H60.6515V21.2207Z" fill="white"/>
</mask>
<g mask="url(#mask0_3013_2047)">
<path d="M49.8958 22.3438H49.1489V24.9116H49.8958V22.3438Z" fill="#646464"/>
<path d="M45.814 24.9112V24.4902L47.5478 22.0658V22.0162H45.8435V21.3457H48.6621V21.7654L46.9591 24.1898V24.2394H48.7131V24.9099H45.814V24.9112Z" fill="#646464"/>
<path d="M50.4336 24.9123V21.2207H51.1778V24.9123H50.4336Z" fill="#646464"/>
<path d="M51.7153 24.9123V21.2207H52.4595V24.9123H51.7153Z" fill="#646464"/>
<path d="M52.7935 23.6292C52.7935 22.8046 53.3593 22.2695 54.2175 22.2695C55.0757 22.2695 55.6416 22.8046 55.6416 23.6292C55.6416 24.4593 55.0704 24.9889 54.2175 24.9889C53.3647 24.9889 52.7935 24.4539 52.7935 23.6292ZM54.8947 23.6292C54.8947 23.2042 54.6144 22.9038 54.2175 22.9038C53.8206 22.9038 53.535 23.2042 53.535 23.6292C53.535 24.0543 53.8152 24.3587 54.2175 24.3587C54.6198 24.3587 54.8947 24.0543 54.8947 23.6292Z" fill="#646464"/>
<path d="M56.4126 24.9129L55.6416 22.3477H56.3979L56.9182 24.1874H56.9678L57.4237 22.3477H58.1652L58.656 24.1874H58.7056L59.2165 22.3477H59.9527L59.1763 24.9129H58.2095L57.8193 23.2139H57.7697L57.3848 24.9129H56.414H56.4126Z" fill="#646464"/>
<path d="M60.3188 22.1369H60.2866V21.9062H60.3952C60.4489 21.9062 60.4851 21.9344 60.4851 21.976C60.4851 22.0149 60.4516 22.043 60.406 22.0444H60.4019L60.4931 22.1369H60.4529L60.3671 22.0457H60.3215V22.1369H60.3188ZM60.3188 21.9317V22.0202H60.3952C60.4314 22.0202 60.4529 22.0028 60.4529 21.976C60.4529 21.9492 60.4314 21.9317 60.3952 21.9317H60.3188Z" fill="#646464"/>
<path d="M60.3765 22.2969C60.3591 22.2969 60.3403 22.2956 60.3215 22.2916C60.2129 22.2715 60.1258 22.1843 60.1043 22.0744C60.0869 21.9818 60.1137 21.8906 60.1794 21.8249C60.2451 21.7592 60.3363 21.7311 60.4288 21.7499C60.5374 21.77 60.6246 21.8571 60.646 21.9671C60.6635 22.0596 60.6367 22.1508 60.571 22.2165C60.5187 22.2688 60.4489 22.2969 60.3765 22.2969ZM60.3752 21.7834C60.3122 21.7834 60.2532 21.8075 60.2076 21.8531C60.1512 21.9094 60.1271 21.9872 60.1419 22.0677C60.1593 22.1615 60.2344 22.2366 60.3282 22.254C60.4087 22.2688 60.4865 22.246 60.5428 22.1883C60.5991 22.132 60.6233 22.0542 60.6085 21.9738C60.5911 21.8799 60.516 21.8048 60.4221 21.7874C60.406 21.7847 60.3899 21.7834 60.3752 21.7834Z" fill="#646464"/>
<path d="M49.1221 21.6154C49.1221 21.3928 49.2883 21.2266 49.5217 21.2266C49.755 21.2266 49.9213 21.3915 49.9213 21.6154C49.9213 21.8394 49.755 22.0043 49.5217 22.0043C49.2883 22.0043 49.1221 21.8434 49.1221 21.6154Z" fill="#646464"/>
</g>
</g>
<defs>
<clipPath id="clip0_3013_2047">
<rect width="68" height="26.069" fill="white"/>
</clipPath>
</defs>
</svg>
