<svg width="20" height="20" viewBox="0 0 20 20" fill="none" xmlns="http://www.w3.org/2000/svg">
<path d="M13.333 1.66699V3.33366" stroke="#006FFF" stroke-width="1.25" stroke-linecap="round" stroke-linejoin="round"/>
<path d="M5.83301 18.3333V16.6667C5.83301 16.2246 6.0086 15.8007 6.32116 15.4882C6.63372 15.1756 7.05765 15 7.49967 15H12.4997C12.9417 15 13.3656 15.1756 13.6782 15.4882C13.9907 15.8007 14.1663 16.2246 14.1663 16.6667V18.3333" stroke="#006FFF" stroke-width="1.25" stroke-linecap="round" stroke-linejoin="round"/>
<path d="M6.66699 1.66699V3.33366" stroke="#006FFF" stroke-width="1.25" stroke-linecap="round" stroke-linejoin="round"/>
<path d="M10 11.667C11.3807 11.667 12.5 10.5477 12.5 9.16699C12.5 7.78628 11.3807 6.66699 10 6.66699C8.61929 6.66699 7.5 7.78628 7.5 9.16699C7.5 10.5477 8.61929 11.667 10 11.667Z" stroke="#006FFF" stroke-width="1.25" stroke-linecap="round" stroke-linejoin="round"/>
<path d="M15.8333 3.33301H4.16667C3.24619 3.33301 2.5 4.0792 2.5 4.99967V16.6663C2.5 17.5868 3.24619 18.333 4.16667 18.333H15.8333C16.7538 18.333 17.5 17.5868 17.5 16.6663V4.99967C17.5 4.0792 16.7538 3.33301 15.8333 3.33301Z" stroke="#006FFF" stroke-width="1.25" stroke-linecap="round" stroke-linejoin="round"/>
</svg>
