<svg width="20" height="20" viewBox="0 0 20 20" fill="none" xmlns="http://www.w3.org/2000/svg">
<path d="M9.16667 10.0003H10.8333C11.2754 10.0003 11.6993 9.82473 12.0118 9.51217C12.3244 9.19961 12.5 8.77569 12.5 8.33366C12.5 7.89163 12.3244 7.46771 12.0118 7.15515C11.6993 6.84259 11.2754 6.66699 10.8333 6.66699H8.33333C7.83333 6.66699 7.41667 6.83366 7.16667 7.16699L2.5 11.667" stroke="#006FFF" stroke-width="1.25" stroke-linecap="round" stroke-linejoin="round"/>
<path d="M5.83301 15.0002L7.16634 13.8336C7.41634 13.5002 7.83301 13.3336 8.33301 13.3336H11.6663C12.583 13.3336 13.4163 13.0002 13.9997 12.3336L17.833 8.66689C18.1546 8.363 18.3423 7.94381 18.3548 7.50153C18.3673 7.05926 18.2036 6.63014 17.8997 6.30856C17.5958 5.98699 17.1766 5.7993 16.7343 5.7868C16.292 5.7743 15.8629 5.938 15.5413 6.24189L12.0413 9.49189" stroke="#006FFF" stroke-width="1.25" stroke-linecap="round" stroke-linejoin="round"/>
<path d="M1.66699 10.833L6.66699 15.833" stroke="#006FFF" stroke-width="1.25" stroke-linecap="round" stroke-linejoin="round"/>
</svg>
