<svg width="20" height="20" viewBox="0 0 20 20" fill="none" xmlns="http://www.w3.org/2000/svg">
<path d="M15.8337 17.5003C16.7541 17.5003 17.5003 16.7541 17.5003 15.8337C17.5003 14.9132 16.7541 14.167 15.8337 14.167C14.9132 14.167 14.167 14.9132 14.167 15.8337C14.167 16.7541 14.9132 17.5003 15.8337 17.5003Z" stroke="#006FFF" stroke-width="1.25" stroke-linecap="round" stroke-linejoin="round"/>
<path d="M4.16667 5.83333C5.08714 5.83333 5.83333 5.08714 5.83333 4.16667C5.83333 3.24619 5.08714 2.5 4.16667 2.5C3.24619 2.5 2.5 3.24619 2.5 4.16667C2.5 5.08714 3.24619 5.83333 4.16667 5.83333Z" stroke="#006FFF" stroke-width="1.25" stroke-linecap="round" stroke-linejoin="round"/>
<path d="M5.40039 3.0493C7.00297 1.98713 8.92352 1.51177 10.8365 1.70379C12.7495 1.89581 14.5373 2.7434 15.8968 4.1029C17.2563 5.4624 18.1039 7.25016 18.2959 9.16317C18.4879 11.0762 18.0126 12.9967 16.9504 14.5993" stroke="#006FFF" stroke-width="1.25" stroke-linecap="round" stroke-linejoin="round"/>
<path d="M5.3418 5.3418L14.6585 14.6585" stroke="#006FFF" stroke-width="1.25" stroke-linecap="round" stroke-linejoin="round"/>
<path d="M3.0493 5.40039C1.98713 7.00297 1.51177 8.92352 1.70379 10.8365C1.89581 12.7495 2.7434 14.5373 4.1029 15.8968C5.4624 17.2563 7.25016 18.1039 9.16317 18.2959C11.0762 18.4879 12.9967 18.0126 14.5993 16.9504" stroke="#006FFF" stroke-width="1.25" stroke-linecap="round" stroke-linejoin="round"/>
</svg>
