<svg width="33" height="28" viewBox="0 0 33 28" fill="none" xmlns="http://www.w3.org/2000/svg">
<path d="M26.1621 23.3135C25.5384 23.7152 24.797 23.9502 24 23.9502H8C7.20267 23.9502 6.46073 23.7155 5.83691 23.3135L14.2305 14.377L15.5 15.1104C15.8094 15.289 16.1906 15.289 16.5 15.1104L17.7686 14.377L26.1621 23.3135ZM12.4512 13.3506L4.47559 21.8428C4.17236 21.2793 4 20.6349 4 19.9502V10.959C4 10.1747 4.22624 9.44358 4.61621 8.82617L12.4512 13.3506ZM27.3828 8.82617C27.773 9.44367 28 10.1746 28 10.959V19.9502C28 20.6351 27.8268 21.2792 27.5234 21.8428L19.5479 13.3506L27.3828 8.82617ZM24 6.95898C24.6635 6.95898 25.289 7.12129 25.8398 7.40723L16 13.0889L6.15918 7.40723C6.71024 7.12104 7.33615 6.95898 8 6.95898H24Z" fill="url(#paint0_linear_345_9723)"/>
<circle cx="27.2596" cy="6.95877" r="4.95877" fill="#58DD56" stroke="white"/>
<path d="M27.2081 5.75227H26.2001V4.88227H28.1381V9.32227H27.2081V5.75227Z" fill="white"/>
<defs>
<linearGradient id="paint0_linear_345_9723" x1="17.5" y1="7.53091" x2="17.5" y2="25.5697" gradientUnits="userSpaceOnUse">
<stop stop-color="#6C63AB"/>
<stop offset="1" stop-color="#006FFF"/>
</linearGradient>
</defs>
</svg>
