<svg width="26" height="22" viewBox="0 0 26 22" fill="none" xmlns="http://www.w3.org/2000/svg">
<path d="M12.1035 1.4834C18.2649 1.4834 23.2598 5.77451 23.2598 11.0674C23.2597 16.3602 18.2649 20.6514 12.1035 20.6514C10.1256 20.6514 8.26904 20.2062 6.6582 19.4307L2.80664 21.1162V16.3643C1.63257 14.8467 0.947281 13.0261 0.947266 11.0674C0.947266 5.77454 5.94215 1.48345 12.1035 1.4834Z" fill="#006FFF"/>
<path d="M20.1343 1.10698C20.4126 0.250452 21.6244 0.250451 21.9027 1.10698L22.161 1.90203C22.2855 2.28508 22.6424 2.54443 23.0452 2.54443H23.8812C24.7818 2.54443 25.1562 3.69688 24.4276 4.22624L23.7513 4.71761C23.4255 4.95435 23.2891 5.37398 23.4136 5.75703L23.6719 6.55208C23.9502 7.40861 22.9699 8.12086 22.2413 7.5915L21.565 7.10013C21.2391 6.86339 20.7979 6.86339 20.472 7.10013L19.7957 7.5915C19.0671 8.12086 18.0868 7.40861 18.3651 6.55208L18.6234 5.75703C18.7479 5.37398 18.6115 4.95435 18.2857 4.71761L17.6094 4.22624C16.8808 3.69688 17.2552 2.54443 18.1558 2.54443H18.9918C19.3946 2.54443 19.7515 2.28508 19.876 1.90203L20.1343 1.10698Z" fill="#58DD56" stroke="white" stroke-width="0.929686"/>
<circle cx="7.91992" cy="11.3467" r="1.39453" fill="white"/>
<circle cx="12.5684" cy="11.3467" r="1.39453" fill="white"/>
<circle cx="17.2168" cy="11.3467" r="1.39453" fill="white"/>
</svg>
