<svg width="22" height="22" viewBox="0 0 22 22" fill="none" xmlns="http://www.w3.org/2000/svg">
<path d="M11.0088 0C11.747 2.02407e-05 12.4735 0.185526 13.1211 0.540039C13.7687 0.894644 14.3171 1.40723 14.7148 2.0293C15.4385 1.86665 16.1919 1.88921 16.9043 2.0957C17.6166 2.30225 18.2656 2.68551 18.79 3.20996C19.3145 3.73445 19.6978 4.38332 19.9043 5.0957C20.1108 5.80814 20.1334 6.56146 19.9707 7.28516C20.5928 7.68291 21.1044 8.23127 21.459 8.87891C21.8136 9.52653 22 10.2529 22 10.9912C22 11.7295 21.8136 12.4559 21.459 13.1035C21.1044 13.7511 20.5927 14.2995 19.9707 14.6973C20.1326 15.4198 20.1093 16.1716 19.9033 16.8828C19.6973 17.5941 19.3151 18.2424 18.792 18.7666C18.2689 19.2907 17.6219 19.6744 16.9111 19.8818C16.2003 20.0893 15.4485 20.1136 14.7256 19.9531C14.3284 20.5776 13.7796 21.0921 13.1309 21.4482C12.4823 21.8042 11.7545 21.9911 11.0146 21.9912C10.2747 21.9912 9.54612 21.8043 8.89746 21.4482C8.24872 21.0921 7.69997 20.5776 7.30273 19.9531C6.58014 20.1151 5.82849 20.0917 5.11719 19.8857C4.40583 19.6797 3.75762 19.2975 3.2334 18.7744C2.70931 18.2513 2.32564 17.6044 2.11816 16.8936C1.91069 16.1827 1.88638 15.431 2.04688 14.708C1.42003 14.3113 0.903684 13.7621 0.545898 13.1123C0.18816 12.4625 1.22585e-05 11.733 0 10.9912C0 10.2495 0.188188 9.51991 0.545898 8.87012C0.903684 8.22027 1.42003 7.67112 2.04688 7.27441C1.88639 6.55151 1.91072 5.79972 2.11816 5.08887C2.32563 4.37809 2.70934 3.73108 3.2334 3.20801C3.75762 2.68488 4.40583 2.30172 5.11719 2.0957C5.82844 1.88977 6.5802 1.86732 7.30273 2.0293C7.70048 1.40723 8.24885 0.894644 8.89648 0.540039C9.54402 0.185573 10.2706 0 11.0088 0ZM16.0146 6.32129C15.6184 6.0263 15.058 6.10793 14.7627 6.50391L9.83887 13.1152L7.10156 11.3877C6.68363 11.124 6.1301 11.2482 5.86621 11.666C5.60243 12.084 5.72769 12.6375 6.14551 12.9014L9.58398 15.0723C9.97939 15.3217 10.501 15.2236 10.7803 14.8486L16.1982 7.57422C16.4934 7.17782 16.4109 6.61658 16.0146 6.32129Z" fill="#006FFF"/>
</svg>
