<svg width="20" height="20" viewBox="0 0 20 20" fill="none" xmlns="http://www.w3.org/2000/svg">
<path d="M14.54 0C15.0476 0 15.4599 0.411417 15.46 0.918945V1.13574H17.9453C19.0797 1.13574 19.9998 2.0551 20 3.18945V17.9453C20 19.0798 19.0798 20 17.9453 20H2.05469C0.920204 20 0 19.0798 0 17.9453V3.18945C0.000150987 2.0551 0.920297 1.13574 2.05469 1.13574H4.54004V0.918945C4.54009 0.411417 4.95242 0 5.45996 0C5.9673 0.000236913 6.37885 0.411563 6.37891 0.918945V1.13574H13.6211V0.918945C13.6211 0.411563 14.0327 0.000236635 14.54 0ZM5.78613 13.4336C5.4274 13.0749 4.84429 13.0752 4.48535 13.4336L3.18848 14.7305C2.82958 15.0894 2.82961 15.6723 3.18848 16.0312C3.54733 16.3898 4.12946 16.3898 4.48828 16.0312L5.78613 14.7334C6.14411 14.3745 6.14445 13.7923 5.78613 13.4336ZM11.2988 13.4336C10.9401 13.0753 10.3578 13.0754 9.99902 13.4336L8.70215 14.7305C8.34325 15.0894 8.34329 15.6723 8.70215 16.0312C9.06093 16.3896 9.64215 16.3896 10.001 16.0312L11.2988 14.7334C11.6571 14.3745 11.6573 13.7924 11.2988 13.4336ZM16.8125 13.4336C16.4537 13.0751 15.8706 13.075 15.5117 13.4336L14.2148 14.7305C13.856 15.0893 13.8562 15.6723 14.2148 16.0312C14.5737 16.3898 15.1558 16.3898 15.5146 16.0312L16.8125 14.7334C17.1708 14.3745 17.171 13.7923 16.8125 13.4336ZM5.78613 9.06445C5.42741 8.70578 4.84429 8.70613 4.48535 9.06445L3.18848 10.3613C2.82958 10.7202 2.82961 11.3032 3.18848 11.6621C3.54732 12.0207 4.12944 12.0207 4.48828 11.6621L5.78613 10.3643C6.14408 10.0054 6.14447 9.4231 5.78613 9.06445ZM11.2988 9.06445C10.9401 8.70622 10.3578 8.70631 9.99902 9.06445L8.70215 10.3613C8.34325 10.7202 8.34329 11.3032 8.70215 11.6621C9.06095 12.0206 9.64214 12.0205 10.001 11.6621L11.2988 10.3643C11.6571 10.0054 11.6573 9.42321 11.2988 9.06445ZM16.8125 9.06445C16.4537 8.70596 15.8705 8.70592 15.5117 9.06445L14.2148 10.3613C13.856 10.7201 13.8563 11.3032 14.2148 11.6621C14.5737 12.0207 15.1558 12.0207 15.5146 11.6621L16.8125 10.3643C17.1708 10.0054 17.171 9.42319 16.8125 9.06445ZM2.05469 2.97363C1.93545 2.97363 1.83804 3.07025 1.83789 3.18945V5.83691H18.1621V3.18945C18.162 3.07025 18.0646 2.97363 17.9453 2.97363H15.46V3.18945C15.4597 3.69682 15.0475 4.1084 14.54 4.1084C14.0328 4.10816 13.6213 3.69668 13.6211 3.18945V2.97363H6.37891V3.18945C6.37866 3.69668 5.96718 4.10816 5.45996 4.1084C4.95254 4.1084 4.54028 3.69682 4.54004 3.18945V2.97363H2.05469Z" fill="#186CED"/>
</svg>
